Hoogli-Light.ufo
<glyph name="exclam" format="1">
  <advance width="322"/>
  <unicode hex="0021"/>
  <outline>
    <contour>
      <point x="191" y="178"/>
      <point x="199" y="189"/>
      <point x="199" y="203" type="curve" smooth="yes"/>
      <point x="199" y="587" type="line" smooth="yes"/>
      <point x="199" y="601"/>
      <point x="190" y="612"/>
      <point x="179" y="612" type="curve" smooth="yes"/>
      <point x="168" y="612"/>
      <point x="159" y="601"/>
      <point x="159" y="587" type="curve" smooth="yes"/>
      <point x="159" y="203" type="line" smooth="yes"/>
      <point x="159" y="189"/>
      <point x="168" y="178"/>
      <point x="179" y="178" type="curve" smooth="yes"/>
    </contour>
    <contour>
      <point x="194" y="48"/>
      <point x="211" y="57"/>
      <point x="211" y="76" type="curve" smooth="yes"/>
      <point x="211" y="97"/>
      <point x="198" y="111"/>
      <point x="177" y="111" type="curve" smooth="yes"/>
      <point x="161" y="111"/>
      <point x="147" y="99"/>
      <point x="147" y="83" type="curve" smooth="yes"/>
      <point x="147" y="65"/>
      <point x="159" y="48"/>
      <point x="181" y="48" type="curve" smooth="yes"/>
    </contour>
  </outline>
</glyph>
<glyph name="dollar" format="1">
  <advance width="573"/>
  <unicode hex="0024"/>
  <outline>
    <contour>
      <point x="447" y="-18"/>
      <point x="505" y="56"/>
      <point x="505" y="130" type="curve" smooth="yes"/>
      <point x="505" y="203"/>
      <point x="458" y="267"/>
      <point x="291" y="299" type="curve" smooth="yes"/>
      <point x="153" y="322"/>
      <point x="119" y="370"/>
      <point x="119" y="417" type="curve" smooth="yes"/>
      <point x="119" y="466"/>
      <point x="179" y="507"/>
      <point x="263" y="507" type="curve" smooth="yes"/>
      <point x="343" y="507"/>
      <point x="382" y="495"/>
      <point x="437" y="476" type="curve" smooth="yes"/>
      <point x="448" y="473"/>
      <point x="459" y="478"/>
      <point x="463" y="488" type="curve" smooth="yes"/>
      <point x="466" y="499"/>
      <point x="461" y="510"/>
      <point x="451" y="514" type="curve" smooth="yes"/>
      <point x="392" y="535"/>
      <point x="349" y="547"/>
      <point x="263" y="547" type="curve" smooth="yes"/>
      <point x="141" y="547"/>
      <point x="79" y="480"/>
      <point x="79" y="417" type="curve" smooth="yes"/>
      <point x="79" y="360"/>
      <point x="101" y="290"/>
      <point x="285" y="259" type="curve" smooth="yes"/>
      <point x="412" y="235"/>
      <point x="465" y="191"/>
      <point x="465" y="130" type="curve" smooth="yes"/>
      <point x="465" y="70"/>
      <point x="403" y="22"/>
      <point x="287" y="22" type="curve" smooth="yes"/>
      <point x="218" y="22"/>
      <point x="153" y="35"/>
      <point x="93" y="65" type="curve" smooth="yes"/>
      <point x="83" y="70"/>
      <point x="71" y="66"/>
      <point x="66" y="56" type="curve" smooth="yes"/>
      <point x="61" y="46"/>
      <point x="65" y="34"/>
      <point x="75" y="29" type="curve" smooth="yes"/>
      <point x="141" y="-3"/>
      <point x="212" y="-18"/>
      <point x="287" y="-18" type="curve" smooth="yes"/>
    </contour>
    <contour>
      <point x="294" y="-121"/>
      <point x="303" y="-112"/>
      <point x="303" y="-101" type="curve" smooth="yes"/>
      <point x="303" y="623" type="line" smooth="yes"/>
      <point x="303" y="634"/>
      <point x="294" y="643"/>
      <point x="283" y="643" type="curve" smooth="yes"/>
      <point x="272" y="643"/>
      <point x="263" y="634"/>
      <point x="263" y="623" type="curve" smooth="yes"/>
      <point x="263" y="-101" type="line" smooth="yes"/>
      <point x="263" y="-112"/>
      <point x="272" y="-121"/>
      <point x="283" y="-121" type="curve" smooth="yes"/>
    </contour>
  </outline>
</glyph>
<glyph name="percent" format="1">
  <advance width="825"/>
  <unicode hex="0025"/>
  <outline>
    <contour>
      <point x="198" y="548" type="curve" smooth="yes"/>
      <point x="270" y="548"/>
      <point x="332" y="483"/>
      <point x="332" y="385" type="curve" smooth="yes"/>
      <point x="332" y="293"/>
      <point x="281" y="222"/>
      <point x="198" y="222" type="curve" smooth="yes"/>
      <point x="123" y="222"/>
      <point x="64" y="293"/>
      <point x="64" y="384" type="curve" smooth="yes"/>
      <point x="64" y="483"/>
      <point x="122" y="548"/>
    </contour>
    <contour>
      <point x="628" y="306" type="curve" smooth="yes"/>
      <point x="700" y="306"/>
      <point x="761" y="241"/>
      <point x="761" y="143" type="curve" smooth="yes"/>
      <point x="761" y="52"/>
      <point x="710" y="-20"/>
      <point x="628" y="-20" type="curve" smooth="yes"/>
      <point x="552" y="-20"/>
      <point x="493" y="53"/>
      <point x="493" y="142" type="curve" smooth="yes"/>
      <point x="493" y="241"/>
      <point x="551" y="306"/>
    </contour>
    <contour>
      <point x="580" y="510" type="curve" smooth="yes"/>
      <point x="282" y="1" type="line" smooth="yes"/>
      <point x="277" y="-8"/>
      <point x="264" y="-12"/>
      <point x="255" y="-6" type="curve" smooth="yes"/>
      <point x="246" y="-1"/>
      <point x="242" y="12"/>
      <point x="248" y="21" type="curve" smooth="yes"/>
      <point x="546" y="530" type="line" smooth="yes"/>
      <point x="551" y="539"/>
      <point x="564" y="543"/>
      <point x="573" y="537" type="curve" smooth="yes"/>
      <point x="582" y="532"/>
      <point x="586" y="519"/>
    </contour>
    <contour>
      <point x="198" y="508" type="curve" smooth="yes"/>
      <point x="140" y="508"/>
      <point x="104" y="453"/>
      <point x="104" y="384" type="curve" smooth="yes"/>
      <point x="104" y="321"/>
      <point x="141" y="262"/>
      <point x="198" y="262" type="curve" smooth="yes"/>
      <point x="261" y="262"/>
      <point x="292" y="321"/>
      <point x="292" y="385" type="curve" smooth="yes"/>
      <point x="292" y="453"/>
      <point x="252" y="508"/>
    </contour>
    <contour>
      <point x="628" y="266" type="curve" smooth="yes"/>
      <point x="569" y="266"/>
      <point x="533" y="211"/>
      <point x="533" y="142" type="curve" smooth="yes"/>
      <point x="533" y="79"/>
      <point x="570" y="20"/>
      <point x="628" y="20" type="curve" smooth="yes"/>
      <point x="690" y="20"/>
      <point x="721" y="80"/>
      <point x="721" y="143" type="curve" smooth="yes"/>
      <point x="721" y="211"/>
      <point x="682" y="266"/>
    </contour>
  </outline>
</glyph>
<glyph name="quotesingle" format="1">
  <advance width="300"/>
  <unicode hex="0027"/>
  <outline>
    <contour>
      <point x="223" y="508"/>
      <point x="231" y="519"/>
      <point x="231" y="533" type="curve" smooth="yes"/>
      <point x="231" y="604" type="line" smooth="yes"/>
      <point x="231" y="618"/>
      <point x="222" y="629"/>
      <point x="211" y="629" type="curve" smooth="yes"/>
      <point x="200" y="629"/>
      <point x="191" y="618"/>
      <point x="191" y="604" type="curve" smooth="yes"/>
      <point x="191" y="533" type="line" smooth="yes"/>
      <point x="191" y="519"/>
      <point x="200" y="508"/>
      <point x="211" y="508" type="curve" smooth="yes"/>
    </contour>
  </outline>
</glyph>
<glyph name="parenleft" format="1">
  <advance width="322"/>
  <unicode hex="0028"/>
  <outline>
    <contour>
      <point x="223" y="-115"/>
      <point x="236" y="-115"/>
      <point x="244" y="-107" type="curve" smooth="yes"/>
      <point x="252" y="-100"/>
      <point x="252" y="-87"/>
      <point x="244" y="-79" type="curve" smooth="yes"/>
      <point x="165" y="3"/>
      <point x="107" y="125"/>
      <point x="107" y="259" type="curve" smooth="yes"/>
      <point x="107" y="394"/>
      <point x="169" y="523"/>
      <point x="245" y="607" type="curve" smooth="yes"/>
      <point x="252" y="615"/>
      <point x="251" y="628"/>
      <point x="243" y="635" type="curve" smooth="yes"/>
      <point x="235" y="642"/>
      <point x="222" y="641"/>
      <point x="215" y="633" type="curve" smooth="yes"/>
      <point x="133" y="543"/>
      <point x="67" y="404"/>
      <point x="67" y="259" type="curve" smooth="yes"/>
      <point x="67" y="115"/>
      <point x="129" y="-17"/>
      <point x="216" y="-107" type="curve" smooth="yes"/>
    </contour>
  </outline>
</glyph>
<glyph name="parenright" format="1">
  <advance width="322"/>
  <unicode hex="0029"/>
  <outline>
    <contour>
      <point x="152" y="-82"/>
      <point x="158" y="-65"/>
      <point x="172" y="-34" type="curve" smooth="yes"/>
      <point x="201" y="33"/>
      <point x="252" y="145"/>
      <point x="252" y="297" type="curve" smooth="yes"/>
      <point x="252" y="430"/>
      <point x="213" y="524"/>
      <point x="162" y="644" type="curve" smooth="yes"/>
      <point x="156" y="658"/>
      <point x="147" y="669"/>
      <point x="135" y="669" type="curve" smooth="yes"/>
      <point x="125" y="669"/>
      <point x="121" y="660"/>
      <point x="121" y="654" type="curve" smooth="yes"/>
      <point x="121" y="625"/>
      <point x="212" y="475"/>
      <point x="212" y="289" type="curve" smooth="yes"/>
      <point x="212" y="102"/>
      <point x="121" y="-28"/>
      <point x="121" y="-65" type="curve" smooth="yes"/>
      <point x="121" y="-72"/>
      <point x="124" y="-82"/>
      <point x="136" y="-82" type="curve" smooth="yes"/>
    </contour>
  </outline>
</glyph>
<glyph name="asterisk" format="1">
  <advance width="423"/>
  <unicode hex="002A"/>
  <outline>
    <contour>
      <point x="231" y="544" type="curve" smooth="yes"/>
      <point x="231" y="284" type="line" smooth="yes"/>
      <point x="231" y="273"/>
      <point x="222" y="264"/>
      <point x="211" y="264" type="curve" smooth="yes"/>
      <point x="200" y="264"/>
      <point x="191" y="273"/>
      <point x="191" y="284" type="curve" smooth="yes"/>
      <point x="191" y="544" type="line" smooth="yes"/>
      <point x="191" y="555"/>
      <point x="200" y="564"/>
      <point x="211" y="564" type="curve" smooth="yes"/>
      <point x="222" y="564"/>
      <point x="231" y="555"/>
    </contour>
    <contour>
      <point x="99" y="500" type="curve" smooth="yes"/>
      <point x="344" y="357" type="line" smooth="yes"/>
      <point x="353" y="352"/>
      <point x="357" y="339"/>
      <point x="351" y="330" type="curve" smooth="yes"/>
      <point x="346" y="321"/>
      <point x="333" y="317"/>
      <point x="324" y="323" type="curve" smooth="yes"/>
      <point x="79" y="466" type="line" smooth="yes"/>
      <point x="70" y="471"/>
      <point x="66" y="484"/>
      <point x="72" y="493" type="curve" smooth="yes"/>
      <point x="77" y="502"/>
      <point x="90" y="506"/>
    </contour>
    <contour>
      <point x="79" y="357" type="curve" smooth="yes"/>
      <point x="324" y="500" type="line" smooth="yes"/>
      <point x="333" y="506"/>
      <point x="346" y="502"/>
      <point x="351" y="493" type="curve" smooth="yes"/>
      <point x="357" y="484"/>
      <point x="353" y="471"/>
      <point x="344" y="466" type="curve" smooth="yes"/>
      <point x="99" y="323" type="line" smooth="yes"/>
      <point x="90" y="317"/>
      <point x="77" y="321"/>
      <point x="72" y="330" type="curve" smooth="yes"/>
      <point x="66" y="339"/>
      <point x="70" y="352"/>
    </contour>
  </outline>
</glyph>
<glyph name="comma" format="1">
  <advance width="200"/>
  <unicode hex="002C"/>
  <outline>
    <contour>
      <point x="123" y="-101"/>
      <point x="167" y="-64"/>
      <point x="167" y="-10" type="curve" smooth="yes"/>
      <point x="167" y="25"/>
      <point x="145" y="63"/>
      <point x="106" y="63" type="curve" smooth="yes"/>
      <point x="82" y="63"/>
      <point x="65" y="48"/>
      <point x="65" y="26" type="curve" smooth="yes"/>
      <point x="65" y="4"/>
      <point x="82" y="-12"/>
      <point x="103" y="-12" type="curve" smooth="yes"/>
      <point x="129" y="-12"/>
      <point x="138" y="11"/>
      <point x="138" y="27" type="curve"/>
      <point x="120" y="13" type="line"/>
      <point x="130" y="4"/>
      <point x="135" y="-7"/>
      <point x="135" y="-21" type="curve" smooth="yes"/>
      <point x="135" y="-47"/>
      <point x="116" y="-66"/>
      <point x="97" y="-75" type="curve" smooth="yes"/>
      <point x="87" y="-80"/>
      <point x="84" y="-84"/>
      <point x="84" y="-89" type="curve" smooth="yes"/>
      <point x="84" y="-96"/>
      <point x="89" y="-101"/>
      <point x="98" y="-101" type="curve" smooth="yes"/>
    </contour>
  </outline>
</glyph>
<glyph name="hyphen" format="1">
  <advance width="395"/>
  <unicode hex="002D"/>
  <outline>
    <contour>
      <point x="296" y="198" type="line" smooth="yes"/>
      <point x="307" y="198"/>
      <point x="316" y="207"/>
      <point x="316" y="218" type="curve" smooth="yes"/>
      <point x="316" y="229"/>
      <point x="307" y="238"/>
      <point x="296" y="238" type="curve" smooth="yes"/>
      <point x="99" y="238" type="line" smooth="yes"/>
      <point x="88" y="238"/>
      <point x="79" y="229"/>
      <point x="79" y="218" type="curve" smooth="yes"/>
      <point x="79" y="207"/>
      <point x="88" y="198"/>
      <point x="99" y="198" type="curve" smooth="yes"/>
    </contour>
  </outline>
</glyph>
<glyph name="period" format="1">
  <advance width="200"/>
  <unicode hex="002E"/>
  <outline>
    <contour>
      <point x="126" y="-12"/>
      <point x="141" y="-4"/>
      <point x="141" y="13" type="curve" smooth="yes"/>
      <point x="141" y="32"/>
      <point x="129" y="45"/>
      <point x="110" y="45" type="curve" smooth="yes"/>
      <point x="96" y="45"/>
      <point x="83" y="34"/>
      <point x="83" y="20" type="curve" smooth="yes"/>
      <point x="83" y="3"/>
      <point x="94" y="-12"/>
      <point x="114" y="-12" type="curve" smooth="yes"/>
    </contour>
  </outline>
</glyph>
<glyph name="slash" format="1">
  <advance width="385"/>
  <unicode hex="002F"/>
  <outline>
    <contour>
      <point x="62" y="-116"/>
      <point x="74" y="-111"/>
      <point x="78" y="-101" type="curve" smooth="yes"/>
      <point x="339" y="613" type="line" smooth="yes"/>
      <point x="342" y="623"/>
      <point x="337" y="635"/>
      <point x="327" y="639" type="curve" smooth="yes"/>
      <point x="317" y="642"/>
      <point x="305" y="637"/>
      <point x="301" y="627" type="curve" smooth="yes"/>
      <point x="40" y="-87" type="line" smooth="yes"/>
      <point x="37" y="-97"/>
      <point x="42" y="-109"/>
      <point x="52" y="-113" type="curve" smooth="yes"/>
    </contour>
  </outline>
</glyph>
<glyph name="zero" format="1">
  <advance width="564"/>
  <unicode hex="0030"/>
  <outline>
    <contour>
      <point x="426" y="-18"/>
      <point x="510" y="109"/>
      <point x="510" y="267" type="curve" smooth="yes"/>
      <point x="510" y="434"/>
      <point x="407" y="549"/>
      <point x="283" y="549" type="curve" smooth="yes"/>
      <point x="150" y="549"/>
      <point x="53" y="434"/>
      <point x="53" y="265" type="curve" smooth="yes"/>
      <point x="53" y="109"/>
      <point x="152" y="-18"/>
      <point x="283" y="-18" type="curve" smooth="yes"/>
    </contour>
    <contour>
      <point x="170" y="22"/>
      <point x="93" y="137"/>
      <point x="93" y="265" type="curve" smooth="yes"/>
      <point x="93" y="404"/>
      <point x="168" y="509"/>
      <point x="283" y="509" type="curve" smooth="yes"/>
      <point x="389" y="509"/>
      <point x="470" y="404"/>
      <point x="470" y="267" type="curve" smooth="yes"/>
      <point x="470" y="137"/>
      <point x="406" y="22"/>
      <point x="283" y="22" type="curve" smooth="yes"/>
    </contour>
  </outline>
</glyph>
<glyph name="one" format="1">
  <advance width="314"/>
  <unicode hex="0031"/>
  <outline>
    <contour>
      <point x="220" y="513" type="curve" smooth="yes"/>
      <point x="220" y="11" type="line" smooth="yes"/>
      <point x="220" y="0"/>
      <point x="211" y="-9"/>
      <point x="200" y="-9" type="curve" smooth="yes"/>
      <point x="189" y="-9"/>
      <point x="180" y="0"/>
      <point x="180" y="11" type="curve" smooth="yes"/>
      <point x="180" y="513" type="line" smooth="yes"/>
      <point x="180" y="524"/>
      <point x="189" y="533"/>
      <point x="200" y="533" type="curve" smooth="yes"/>
      <point x="211" y="533"/>
      <point x="220" y="524"/>
    </contour>
    <contour>
      <point x="210" y="502" type="curve" smooth="yes"/>
      <point x="74" y="428" type="line" smooth="yes"/>
      <point x="64" y="423"/>
      <point x="52" y="427"/>
      <point x="46" y="436" type="curve" smooth="yes"/>
      <point x="41" y="446"/>
      <point x="45" y="458"/>
      <point x="54" y="464" type="curve" smooth="yes"/>
      <point x="190" y="538" type="line" smooth="yes"/>
      <point x="200" y="543"/>
      <point x="212" y="539"/>
      <point x="218" y="530" type="curve" smooth="yes"/>
      <point x="223" y="520"/>
      <point x="219" y="508"/>
    </contour>
  </outline>
</glyph>
<glyph name="nine" format="1">
  <advance width="533"/>
  <unicode hex="0039"/>
  <outline>
    <contour>
      <point x="387" y="-12"/>
      <point x="468" y="87"/>
      <point x="468" y="268" type="curve" smooth="yes"/>
      <point x="468" y="451"/>
      <point x="377" y="549"/>
      <point x="249" y="549" type="curve" smooth="yes"/>
      <point x="117" y="549"/>
      <point x="56" y="459"/>
      <point x="56" y="372" type="curve" smooth="yes"/>
      <point x="56" y="262"/>
      <point x="121" y="199"/>
      <point x="239" y="199" type="curve" smooth="yes"/>
      <point x="344" y="199"/>
      <point x="408" y="253"/>
      <point x="458" y="336" type="curve" smooth="yes"/>
      <point x="464" y="345"/>
      <point x="461" y="358"/>
      <point x="451" y="363" type="curve" smooth="yes"/>
      <point x="442" y="369"/>
      <point x="429" y="366"/>
      <point x="424" y="356" type="curve" smooth="yes"/>
      <point x="382" y="287"/>
      <point x="328" y="239"/>
      <point x="239" y="239" type="curve" smooth="yes"/>
      <point x="149" y="239"/>
      <point x="96" y="286"/>
      <point x="96" y="372" type="curve" smooth="yes"/>
      <point x="96" y="441"/>
      <point x="147" y="509"/>
      <point x="249" y="509" type="curve" smooth="yes"/>
      <point x="359" y="509"/>
      <point x="428" y="417"/>
      <point x="428" y="268" type="curve" smooth="yes"/>
      <point x="428" y="117"/>
      <point x="365" y="28"/>
      <point x="230" y="28" type="curve" smooth="yes"/>
      <point x="197" y="28"/>
      <point x="174" y="34"/>
      <point x="149" y="40" type="curve" smooth="yes"/>
      <point x="139" y="43"/>
      <point x="127" y="36"/>
      <point x="125" y="26" type="curve" smooth="yes"/>
      <point x="122" y="16"/>
      <point x="129" y="4"/>
      <point x="139" y="2" type="curve" smooth="yes"/>
      <point x="168" y="-6"/>
      <point x="193" y="-12"/>
      <point x="230" y="-12" type="curve" smooth="yes"/>
    </contour>
  </outline>
</glyph>
<glyph name="colon" format="1">
  <advance width="200"/>
  <unicode hex="003A"/>
  <outline>
    <contour>
      <point x="134" y="88"/>
      <point x="151" y="97"/>
      <point x="151" y="116" type="curve" smooth="yes"/>
      <point x="151" y="137"/>
      <point x="138" y="151"/>
      <point x="117" y="151" type="curve" smooth="yes"/>
      <point x="101" y="151"/>
      <point x="87" y="139"/>
      <point x="87" y="123" type="curve" smooth="yes"/>
      <point x="87" y="105"/>
      <point x="99" y="88"/>
      <point x="121" y="88" type="curve" smooth="yes"/>
    </contour>
    <contour>
      <point x="134" y="363"/>
      <point x="151" y="372"/>
      <point x="151" y="391" type="curve" smooth="yes"/>
      <point x="151" y="412"/>
      <point x="138" y="426"/>
      <point x="117" y="426" type="curve" smooth="yes"/>
      <point x="101" y="426"/>
      <point x="87" y="414"/>
      <point x="87" y="398" type="curve" smooth="yes"/>
      <point x="87" y="380"/>
      <point x="99" y="363"/>
      <point x="121" y="363" type="curve" smooth="yes"/>
    </contour>
  </outline>
</glyph>
<glyph name="semicolon" format="1">
  <advance width="170"/>
  <unicode hex="003B"/>
  <outline>
    <contour>
      <point x="110" y="138"/>
      <point x="127" y="147"/>
      <point x="127" y="166" type="curve" smooth="yes"/>
      <point x="127" y="187"/>
      <point x="114" y="201"/>
      <point x="93" y="201" type="curve" smooth="yes"/>
      <point x="77" y="201"/>
      <point x="63" y="189"/>
      <point x="63" y="173" type="curve" smooth="yes"/>
      <point x="63" y="155"/>
      <point x="75" y="138"/>
      <point x="97" y="138" type="curve" smooth="yes"/>
    </contour>
    <component base="comma" xOffset="-20"/>
  </outline>
</glyph>
<glyph name="greater" format="1">
  <advance width="511"/>
  <unicode hex="003E"/>
  <outline>
    <contour>
      <point x="421" y="249" type="curve" smooth="yes"/>
      <point x="96" y="396" type="line" smooth="yes"/>
      <point x="86" y="400"/>
      <point x="81" y="412"/>
      <point x="86" y="422" type="curve" smooth="yes"/>
      <point x="90" y="432"/>
      <point x="102" y="437"/>
      <point x="112" y="432" type="curve" smooth="yes"/>
      <point x="437" y="285" type="line" smooth="yes"/>
      <point x="447" y="281"/>
      <point x="452" y="269"/>
      <point x="447" y="259" type="curve" smooth="yes"/>
      <point x="443" y="249"/>
      <point x="431" y="244"/>
    </contour>
    <contour>
      <point x="89" y="128" type="curve" smooth="yes"/>
      <point x="427" y="281" type="line" smooth="yes"/>
      <point x="437" y="286"/>
      <point x="449" y="281"/>
      <point x="453" y="271" type="curve" smooth="yes"/>
      <point x="458" y="261"/>
      <point x="453" y="249"/>
      <point x="443" y="245" type="curve" smooth="yes"/>
      <point x="105" y="92" type="line" smooth="yes"/>
      <point x="95" y="87"/>
      <point x="83" y="92"/>
      <point x="79" y="102" type="curve" smooth="yes"/>
      <point x="74" y="112"/>
      <point x="79" y="124"/>
    </contour>
  </outline>
</glyph>
<glyph name="question" format="1">
  <advance width="400"/>
  <unicode hex="003F"/>
  <outline>
    <contour>
      <point x="195" y="114"/>
      <point x="204" y="125"/>
      <point x="204" y="140" type="curve" smooth="yes"/>
      <point x="205" y="201" type="line" smooth="yes"/>
      <point x="206" y="232"/>
      <point x="217" y="254"/>
      <point x="249" y="288" type="curve" smooth="yes"/>
      <point x="303" y="346"/>
      <point x="363" y="384"/>
      <point x="363" y="465" type="curve" smooth="yes"/>
      <point x="363" y="546"/>
      <point x="305" y="596"/>
      <point x="223" y="596" type="curve" smooth="yes"/>
      <point x="139" y="596"/>
      <point x="86" y="543"/>
      <point x="86" y="484" type="curve" smooth="yes"/>
      <point x="86" y="403"/>
      <point x="153" y="381"/>
      <point x="174" y="381" type="curve" smooth="yes"/>
      <point x="188" y="381"/>
      <point x="195" y="387"/>
      <point x="195" y="397" type="curve" smooth="yes"/>
      <point x="195" y="405"/>
      <point x="190" y="410"/>
      <point x="181" y="413" type="curve" smooth="yes"/>
      <point x="158" y="421"/>
      <point x="125" y="436"/>
      <point x="125" y="479" type="curve" smooth="yes"/>
      <point x="125" y="523"/>
      <point x="158" y="558"/>
      <point x="223" y="558" type="curve" smooth="yes"/>
      <point x="292" y="558"/>
      <point x="327" y="509"/>
      <point x="327" y="468" type="curve" smooth="yes"/>
      <point x="327" y="412"/>
      <point x="294" y="383"/>
      <point x="229" y="323" type="curve" smooth="yes"/>
      <point x="183" y="281"/>
      <point x="163" y="251"/>
      <point x="163" y="200" type="curve" smooth="yes"/>
      <point x="163" y="141" type="line" smooth="yes"/>
      <point x="163" y="125"/>
      <point x="171" y="114"/>
      <point x="183" y="114" type="curve" smooth="yes"/>
    </contour>
    <contour>
      <point x="200" y="-12"/>
      <point x="217" y="-3"/>
      <point x="217" y="16" type="curve" smooth="yes"/>
      <point x="217" y="37"/>
      <point x="204" y="51"/>
      <point x="183" y="51" type="curve" smooth="yes"/>
      <point x="167" y="51"/>
      <point x="153" y="39"/>
      <point x="153" y="23" type="curve" smooth="yes"/>
      <point x="153" y="5"/>
      <point x="165" y="-12"/>
      <point x="187" y="-12" type="curve" smooth="yes"/>
    </contour>
  </outline>
</glyph>
<glyph name="A" format="1">
  <advance width="579"/>
  <unicode hex="0041"/>
  <outline>
    <contour>
      <point x="298" y="521" type="curve" smooth="yes"/>
      <point x="227" y="361"/>
      <point x="128" y="136"/>
      <point x="81" y="4" type="curve" smooth="yes"/>
      <point x="77" y="-6"/>
      <point x="65" y="-11"/>
      <point x="55" y="-8" type="curve" smooth="yes"/>
      <point x="45" y="-4"/>
      <point x="40" y="8"/>
      <point x="43" y="18" type="curve" smooth="yes"/>
      <point x="90" y="150"/>
      <point x="191" y="377"/>
      <point x="262" y="537" type="curve" smooth="yes"/>
      <point x="266" y="547"/>
      <point x="278" y="552"/>
      <point x="288" y="547" type="curve" smooth="yes"/>
      <point x="298" y="543"/>
      <point x="303" y="531"/>
    </contour>
    <contour>
      <point x="304" y="538" type="curve" smooth="yes"/>
      <point x="380" y="376"/>
      <point x="484" y="148"/>
      <point x="534" y="18" type="curve" smooth="yes"/>
      <point x="538" y="8"/>
      <point x="532" y="-4"/>
      <point x="522" y="-8" type="curve" smooth="yes"/>
      <point x="512" y="-12"/>
      <point x="500" y="-6"/>
      <point x="496" y="4" type="curve" smooth="yes"/>
      <point x="446" y="132"/>
      <point x="344" y="360"/>
      <point x="268" y="520" type="curve" smooth="yes"/>
      <point x="263" y="530"/>
      <point x="268" y="542"/>
      <point x="277" y="547" type="curve" smooth="yes"/>
      <point x="287" y="552"/>
      <point x="299" y="547"/>
    </contour>
    <contour>
      <point x="134" y="183" type="curve" smooth="yes"/>
      <point x="440" y="183" type="line" smooth="yes"/>
      <point x="451" y="183"/>
      <point x="460" y="174"/>
      <point x="460" y="163" type="curve" smooth="yes"/>
      <point x="460" y="152"/>
      <point x="451" y="143"/>
      <point x="440" y="143" type="curve" smooth="yes"/>
      <point x="134" y="143" type="line" smooth="yes"/>
      <point x="123" y="143"/>
      <point x="114" y="152"/>
      <point x="114" y="163" type="curve" smooth="yes"/>
      <point x="114" y="174"/>
      <point x="123" y="183"/>
    </contour>
  </outline>
</glyph>
<glyph name="B" format="1">
  <advance width="524"/>
  <unicode hex="0042"/>
  <outline>
    <contour>
      <point x="124" y="304" type="curve" smooth="yes"/>
      <point x="280" y="304" type="line" smooth="yes"/>
      <point x="341" y="304"/>
      <point x="395" y="282"/>
      <point x="427" y="250" type="curve" smooth="yes"/>
      <point x="458" y="219"/>
      <point x="472" y="184"/>
      <point x="472" y="144" type="curve" smooth="yes"/>
      <point x="472" y="108"/>
      <point x="459" y="71"/>
      <point x="431" y="43" type="curve" smooth="yes"/>
      <point x="400" y="13"/>
      <point x="354" y="-9"/>
      <point x="277" y="-9" type="curve" smooth="yes"/>
      <point x="114" y="-9" type="line" smooth="yes"/>
      <point x="103" y="-9"/>
      <point x="94" y="0"/>
      <point x="94" y="11" type="curve" smooth="yes"/>
      <point x="94" y="520" type="line" smooth="yes"/>
      <point x="94" y="531"/>
      <point x="103" y="540"/>
      <point x="114" y="540" type="curve" smooth="yes"/>
      <point x="260" y="540" type="line" smooth="yes"/>
      <point x="320" y="540"/>
      <point x="359" y="520"/>
      <point x="384" y="495" type="curve" smooth="yes"/>
      <point x="407" y="473"/>
      <point x="422" y="436"/>
      <point x="422" y="404" type="curve" smooth="yes"/>
      <point x="422" y="367"/>
      <point x="407" y="333"/>
      <point x="384" y="311" type="curve" smooth="yes"/>
      <point x="363" y="289"/>
      <point x="322" y="267"/>
      <point x="273" y="264" type="curve" smooth="yes"/>
      <point x="263" y="263"/>
      <point x="253" y="272"/>
      <point x="252" y="283" type="curve" smooth="yes"/>
      <point x="251" y="293"/>
      <point x="260" y="303"/>
      <point x="271" y="304" type="curve" smooth="yes"/>
      <point x="308" y="307"/>
      <point x="339" y="323"/>
      <point x="356" y="339" type="curve" smooth="yes"/>
      <point x="371" y="355"/>
      <point x="382" y="379"/>
      <point x="382" y="404" type="curve" smooth="yes"/>
      <point x="382" y="426"/>
      <point x="371" y="451"/>
      <point x="356" y="467" type="curve" smooth="yes"/>
      <point x="337" y="486"/>
      <point x="306" y="500"/>
      <point x="260" y="500" type="curve" smooth="yes"/>
      <point x="114" y="500" type="line"/>
      <point x="134" y="520" type="line"/>
      <point x="134" y="11" type="line"/>
      <point x="114" y="31" type="line"/>
      <point x="277" y="31" type="line" smooth="yes"/>
      <point x="340" y="31"/>
      <point x="378" y="47"/>
      <point x="403" y="71" type="curve" smooth="yes"/>
      <point x="423" y="91"/>
      <point x="432" y="118"/>
      <point x="432" y="144" type="curve" smooth="yes"/>
      <point x="432" y="174"/>
      <point x="422" y="199"/>
      <point x="399" y="222" type="curve" smooth="yes"/>
      <point x="373" y="248"/>
      <point x="329" y="264"/>
      <point x="280" y="264" type="curve" smooth="yes"/>
      <point x="124" y="264" type="line" smooth="yes"/>
      <point x="113" y="264"/>
      <point x="104" y="273"/>
      <point x="104" y="284" type="curve" smooth="yes"/>
      <point x="104" y="295"/>
      <point x="113" y="304"/>
    </contour>
  </outline>
</glyph>
<glyph name="C" format="1">
  <advance width="564"/>
  <unicode hex="0043"/>
  <outline>
    <contour>
      <point x="401" y="-19"/>
      <point x="452" y="-6"/>
      <point x="493" y="15" type="curve" smooth="yes"/>
      <point x="503" y="20"/>
      <point x="507" y="33"/>
      <point x="502" y="42" type="curve" smooth="yes"/>
      <point x="497" y="52"/>
      <point x="484" y="56"/>
      <point x="475" y="51" type="curve" smooth="yes"/>
      <point x="438" y="32"/>
      <point x="393" y="21"/>
      <point x="342" y="21" type="curve" smooth="yes"/>
      <point x="186" y="21"/>
      <point x="95" y="126"/>
      <point x="95" y="262" type="curve" smooth="yes"/>
      <point x="95" y="410"/>
      <point x="206" y="510"/>
      <point x="336" y="510" type="curve" smooth="yes"/>
      <point x="387" y="510"/>
      <point x="437" y="499"/>
      <point x="469" y="481" type="curve" smooth="yes"/>
      <point x="479" y="476"/>
      <point x="491" y="480"/>
      <point x="497" y="489" type="curve" smooth="yes"/>
      <point x="502" y="499"/>
      <point x="498" y="511"/>
      <point x="489" y="517" type="curve" smooth="yes"/>
      <point x="451" y="537"/>
      <point x="395" y="550"/>
      <point x="336" y="550" type="curve" smooth="yes"/>
      <point x="186" y="550"/>
      <point x="55" y="434"/>
      <point x="55" y="262" type="curve" smooth="yes"/>
      <point x="55" y="104"/>
      <point x="160" y="-19"/>
      <point x="342" y="-19" type="curve" smooth="yes"/>
    </contour>
    <contour>
      <point x="322" y="550" type="move" name="top"/>
    </contour>
    <contour>
      <point x="315" y="-14" type="move" name="bottom"/>
    </contour>
  </outline>
</glyph>
<glyph name="D" format="1">
  <advance width="613"/>
  <unicode hex="0044"/>
  <outline>
    <contour>
      <point x="299" y="-9" type="curve" smooth="yes"/>
      <point x="114" y="-9" type="line" smooth="yes"/>
      <point x="103" y="-9"/>
      <point x="94" y="0"/>
      <point x="94" y="11" type="curve" smooth="yes"/>
      <point x="94" y="520" type="line" smooth="yes"/>
      <point x="94" y="531"/>
      <point x="103" y="540"/>
      <point x="114" y="540" type="curve" smooth="yes"/>
      <point x="299" y="540" type="line" smooth="yes"/>
      <point x="435" y="540"/>
      <point x="557" y="428"/>
      <point x="557" y="266" type="curve" smooth="yes"/>
      <point x="557" y="112"/>
      <point x="455" y="-9"/>
    </contour>
    <contour>
      <point x="299" y="31" type="line" smooth="yes"/>
      <point x="433" y="31"/>
      <point x="517" y="136"/>
      <point x="517" y="266" type="curve" smooth="yes"/>
      <point x="517" y="402"/>
      <point x="415" y="500"/>
      <point x="299" y="500" type="curve" smooth="yes"/>
      <point x="114" y="500" type="line"/>
      <point x="134" y="520" type="line"/>
      <point x="134" y="11" type="line"/>
      <point x="114" y="31" type="line"/>
    </contour>
  </outline>
</glyph>
<glyph name="E" format="1">
  <advance width="481"/>
  <unicode hex="0045"/>
  <outline>
    <contour>
      <point x="125" y="-9"/>
      <point x="134" y="0"/>
      <point x="134" y="11" type="curve" smooth="yes"/>
      <point x="134" y="520" type="line" smooth="yes"/>
      <point x="134" y="531"/>
      <point x="125" y="540"/>
      <point x="114" y="540" type="curve" smooth="yes"/>
      <point x="103" y="540"/>
      <point x="94" y="531"/>
      <point x="94" y="520" type="curve" smooth="yes"/>
      <point x="94" y="11" type="line" smooth="yes"/>
      <point x="94" y="0"/>
      <point x="103" y="-9"/>
      <point x="114" y="-9" type="curve" smooth="yes"/>
    </contour>
    <contour>
      <point x="407" y="-9" type="line" smooth="yes"/>
      <point x="418" y="-9"/>
      <point x="427" y="0"/>
      <point x="427" y="11" type="curve" smooth="yes"/>
      <point x="427" y="22"/>
      <point x="418" y="31"/>
      <point x="407" y="31" type="curve" smooth="yes"/>
      <point x="123" y="31" type="line" smooth="yes"/>
      <point x="112" y="31"/>
      <point x="103" y="22"/>
      <point x="103" y="11" type="curve" smooth="yes"/>
      <point x="103" y="0"/>
      <point x="112" y="-9"/>
      <point x="123" y="-9" type="curve" smooth="yes"/>
    </contour>
    <contour>
      <point x="360" y="265" type="line" smooth="yes"/>
      <point x="371" y="265"/>
      <point x="380" y="274"/>
      <point x="380" y="285" type="curve" smooth="yes"/>
      <point x="380" y="296"/>
      <point x="371" y="305"/>
      <point x="360" y="305" type="curve" smooth="yes"/>
      <point x="123" y="305" type="line" smooth="yes"/>
      <point x="112" y="305"/>
      <point x="103" y="296"/>
      <point x="103" y="285" type="curve" smooth="yes"/>
      <point x="103" y="274"/>
      <point x="112" y="265"/>
      <point x="123" y="265" type="curve" smooth="yes"/>
    </contour>
    <contour>
      <point x="405" y="500" type="line" smooth="yes"/>
      <point x="416" y="500"/>
      <point x="425" y="509"/>
      <point x="425" y="520" type="curve" smooth="yes"/>
      <point x="425" y="531"/>
      <point x="416" y="540"/>
      <point x="405" y="540" type="curve" smooth="yes"/>
      <point x="123" y="540" type="line" smooth="yes"/>
      <point x="112" y="540"/>
      <point x="103" y="531"/>
      <point x="103" y="520" type="curve" smooth="yes"/>
      <point x="103" y="509"/>
      <point x="112" y="500"/>
      <point x="123" y="500" type="curve" smooth="yes"/>
    </contour>
    <contour>
      <point x="409" y="5" type="move" name="ogonek"/>
    </contour>
    <contour>
      <point x="246" y="541" type="move" name="top"/>
    </contour>
  </outline>
</glyph>
<glyph name="H" format="1">
  <advance width="633"/>
  <unicode hex="0048"/>
  <outline>
    <contour>
      <point x="529" y="-9"/>
      <point x="538" y="0"/>
      <point x="538" y="11" type="curve" smooth="yes"/>
      <point x="538" y="520" type="line" smooth="yes"/>
      <point x="538" y="531"/>
      <point x="529" y="540"/>
      <point x="518" y="540" type="curve" smooth="yes"/>
      <point x="507" y="540"/>
      <point x="498" y="531"/>
      <point x="498" y="520" type="curve" smooth="yes"/>
      <point x="498" y="11" type="line" smooth="yes"/>
      <point x="498" y="0"/>
      <point x="507" y="-9"/>
      <point x="518" y="-9" type="curve" smooth="yes"/>
    </contour>
    <contour>
      <point x="125" y="-9"/>
      <point x="134" y="0"/>
      <point x="134" y="11" type="curve" smooth="yes"/>
      <point x="134" y="520" type="line" smooth="yes"/>
      <point x="134" y="531"/>
      <point x="125" y="540"/>
      <point x="114" y="540" type="curve" smooth="yes"/>
      <point x="103" y="540"/>
      <point x="94" y="531"/>
      <point x="94" y="520" type="curve" smooth="yes"/>
      <point x="94" y="11" type="line" smooth="yes"/>
      <point x="94" y="0"/>
      <point x="103" y="-9"/>
      <point x="114" y="-9" type="curve" smooth="yes"/>
    </contour>
    <contour>
      <point x="517" y="264" type="line" smooth="yes"/>
      <point x="528" y="264"/>
      <point x="537" y="273"/>
      <point x="537" y="284" type="curve" smooth="yes"/>
      <point x="537" y="295"/>
      <point x="528" y="304"/>
      <point x="517" y="304" type="curve" smooth="yes"/>
      <point x="118" y="304" type="line" smooth="yes"/>
      <point x="107" y="304"/>
      <point x="98" y="295"/>
      <point x="98" y="284" type="curve" smooth="yes"/>
      <point x="98" y="273"/>
      <point x="107" y="264"/>
      <point x="118" y="264" type="curve" smooth="yes"/>
    </contour>
  </outline>
</glyph>
<glyph name="K" format="1">
  <advance width="555"/>
  <unicode hex="004B"/>
  <outline>
    <contour>
      <point x="134" y="520" type="curve" smooth="yes"/>
      <point x="134" y="11" type="line" smooth="yes"/>
      <point x="134" y="0"/>
      <point x="125" y="-9"/>
      <point x="114" y="-9" type="curve" smooth="yes"/>
      <point x="103" y="-9"/>
      <point x="94" y="0"/>
      <point x="94" y="11" type="curve" smooth="yes"/>
      <point x="94" y="520" type="line" smooth="yes"/>
      <point x="94" y="531"/>
      <point x="103" y="540"/>
      <point x="114" y="540" type="curve" smooth="yes"/>
      <point x="125" y="540"/>
      <point x="134" y="531"/>
    </contour>
    <contour>
      <point x="259" y="316" type="curve" smooth="yes"/>
      <point x="319" y="243"/>
      <point x="445" y="90"/>
      <point x="503" y="24" type="curve" smooth="yes"/>
      <point x="510" y="16"/>
      <point x="509" y="3"/>
      <point x="501" y="-4" type="curve" smooth="yes"/>
      <point x="493" y="-11"/>
      <point x="480" y="-10"/>
      <point x="473" y="-2" type="curve" smooth="yes"/>
      <point x="415" y="64"/>
      <point x="289" y="217"/>
      <point x="229" y="290" type="curve" smooth="yes"/>
      <point x="222" y="299"/>
      <point x="223" y="312"/>
      <point x="231" y="318" type="curve" smooth="yes"/>
      <point x="240" y="325"/>
      <point x="253" y="324"/>
    </contour>
    <contour>
      <point x="101" y="202" type="curve" smooth="yes"/>
      <point x="151" y="248"/>
      <point x="348" y="424"/>
      <point x="453" y="534" type="curve" smooth="yes"/>
      <point x="460" y="542"/>
      <point x="473" y="542"/>
      <point x="481" y="534" type="curve" smooth="yes"/>
      <point x="489" y="527"/>
      <point x="489" y="514"/>
      <point x="481" y="506" type="curve" smooth="yes"/>
      <point x="376" y="396"/>
      <point x="179" y="218"/>
      <point x="127" y="172" type="curve" smooth="yes"/>
      <point x="119" y="165"/>
      <point x="106" y="166"/>
      <point x="99" y="174" type="curve" smooth="yes"/>
      <point x="92" y="182"/>
      <point x="93" y="195"/>
    </contour>
  </outline>
</glyph>
<glyph name="N" format="1">
  <advance width="637"/>
  <unicode hex="004E"/>
  <outline>
    <contour>
      <point x="537" y="1"/>
      <point x="538" y="14"/>
      <point x="532" y="23" type="curve" smooth="yes"/>
      <point x="420" y="173"/>
      <point x="215" y="427"/>
      <point x="136" y="532" type="curve" smooth="yes"/>
      <point x="129" y="541"/>
      <point x="117" y="542"/>
      <point x="108" y="536" type="curve" smooth="yes"/>
      <point x="99" y="529"/>
      <point x="98" y="517"/>
      <point x="104" y="508" type="curve" smooth="yes"/>
      <point x="183" y="403"/>
      <point x="388" y="149"/>
      <point x="500" y="-1" type="curve" smooth="yes"/>
      <point x="506" y="-10"/>
      <point x="519" y="-11"/>
      <point x="528" y="-5" type="curve" smooth="yes"/>
    </contour>
    <contour>
      <point x="125" y="-9"/>
      <point x="134" y="0"/>
      <point x="134" y="11" type="curve" smooth="yes"/>
      <point x="134" y="520" type="line" smooth="yes"/>
      <point x="134" y="531"/>
      <point x="125" y="540"/>
      <point x="114" y="540" type="curve" smooth="yes"/>
      <point x="103" y="540"/>
      <point x="94" y="531"/>
      <point x="94" y="520" type="curve" smooth="yes"/>
      <point x="94" y="11" type="line" smooth="yes"/>
      <point x="94" y="0"/>
      <point x="103" y="-9"/>
      <point x="114" y="-9" type="curve" smooth="yes"/>
    </contour>
    <contour>
      <point x="534" y="-9"/>
      <point x="543" y="0"/>
      <point x="543" y="11" type="curve" smooth="yes"/>
      <point x="543" y="520" type="line" smooth="yes"/>
      <point x="543" y="531"/>
      <point x="534" y="540"/>
      <point x="523" y="540" type="curve" smooth="yes"/>
      <point x="512" y="540"/>
      <point x="503" y="531"/>
      <point x="503" y="520" type="curve" smooth="yes"/>
      <point x="503" y="11" type="line" smooth="yes"/>
      <point x="503" y="0"/>
      <point x="512" y="-9"/>
      <point x="523" y="-9" type="curve" smooth="yes"/>
    </contour>
    <contour>
      <point x="325" y="516" type="move" name="top"/>
    </contour>
    <contour>
      <point x="303" y="33" type="move" name="bottom"/>
    </contour>
  </outline>
</glyph>
<glyph name="O" format="1">
  <advance width="642"/>
  <unicode hex="004F"/>
  <outline>
    <contour>
      <point x="489" y="-19"/>
      <point x="587" y="105"/>
      <point x="587" y="265" type="curve" smooth="yes"/>
      <point x="587" y="433"/>
      <point x="469" y="550"/>
      <point x="323" y="550" type="curve" smooth="yes"/>
      <point x="164" y="550"/>
      <point x="55" y="433"/>
      <point x="55" y="262" type="curve" smooth="yes"/>
      <point x="55" y="105"/>
      <point x="166" y="-19"/>
      <point x="323" y="-19" type="curve" smooth="yes"/>
    </contour>
    <contour>
      <point x="188" y="21"/>
      <point x="95" y="129"/>
      <point x="95" y="262" type="curve" smooth="yes"/>
      <point x="95" y="407"/>
      <point x="186" y="510"/>
      <point x="323" y="510" type="curve" smooth="yes"/>
      <point x="449" y="510"/>
      <point x="547" y="407"/>
      <point x="547" y="265" type="curve" smooth="yes"/>
      <point x="547" y="129"/>
      <point x="465" y="21"/>
      <point x="323" y="21" type="curve" smooth="yes"/>
    </contour>
    <contour>
      <point x="323" y="551" type="move" name="top"/>
    </contour>
    <contour>
      <point x="324" y="-17" type="move" name="bottom"/>
    </contour>
  </outline>
</glyph>
<glyph name="Z" format="1">
  <advance width="561"/>
  <unicode hex="005A"/>
  <outline>
    <contour>
      <point x="487" y="509" type="curve" smooth="yes"/>
      <point x="421" y="409"/>
      <point x="155" y="94"/>
      <point x="100" y="8" type="curve" smooth="yes"/>
      <point x="94" y="-1"/>
      <point x="81" y="-4"/>
      <point x="72" y="2" type="curve" smooth="yes"/>
      <point x="63" y="8"/>
      <point x="60" y="21"/>
      <point x="66" y="30" type="curve" smooth="yes"/>
      <point x="121" y="116"/>
      <point x="387" y="431"/>
      <point x="453" y="531" type="curve" smooth="yes"/>
      <point x="459" y="540"/>
      <point x="472" y="543"/>
      <point x="481" y="537" type="curve" smooth="yes"/>
      <point x="490" y="531"/>
      <point x="493" y="518"/>
    </contour>
    <contour>
      <point x="92" y="540" type="curve" smooth="yes"/>
      <point x="459" y="540" type="line" smooth="yes"/>
      <point x="470" y="540"/>
      <point x="479" y="531"/>
      <point x="479" y="520" type="curve" smooth="yes"/>
      <point x="479" y="509"/>
      <point x="470" y="500"/>
      <point x="459" y="500" type="curve" smooth="yes"/>
      <point x="92" y="500" type="line" smooth="yes"/>
      <point x="81" y="500"/>
      <point x="72" y="509"/>
      <point x="72" y="520" type="curve" smooth="yes"/>
      <point x="72" y="531"/>
      <point x="81" y="540"/>
    </contour>
    <contour>
      <point x="78" y="31" type="curve" smooth="yes"/>
      <point x="483" y="31" type="line" smooth="yes"/>
      <point x="494" y="31"/>
      <point x="503" y="22"/>
      <point x="503" y="11" type="curve" smooth="yes"/>
      <point x="503" y="0"/>
      <point x="494" y="-9"/>
      <point x="483" y="-9" type="curve" smooth="yes"/>
      <point x="78" y="-9" type="line" smooth="yes"/>
      <point x="67" y="-9"/>
      <point x="58" y="0"/>
      <point x="58" y="11" type="curve" smooth="yes"/>
      <point x="58" y="22"/>
      <point x="67" y="31"/>
    </contour>
  </outline>
</glyph>
<glyph name="bracketleft" format="1">
  <advance width="300"/>
  <unicode hex="005B"/>
  <outline>
    <contour>
      <point x="107" y="-62"/>
      <point x="115" y="-51"/>
      <point x="115" y="-37" type="curve" smooth="yes"/>
      <point x="115" y="634" type="line" smooth="yes"/>
      <point x="115" y="648"/>
      <point x="106" y="659"/>
      <point x="95" y="659" type="curve" smooth="yes"/>
      <point x="84" y="659"/>
      <point x="75" y="648"/>
      <point x="75" y="634" type="curve" smooth="yes"/>
      <point x="75" y="-37" type="line" smooth="yes"/>
      <point x="75" y="-51"/>
      <point x="84" y="-62"/>
      <point x="95" y="-62" type="curve" smooth="yes"/>
    </contour>
    <contour>
      <point x="95" y="626" type="line"/>
      <point x="173" y="626" type="line" smooth="yes"/>
      <point x="184" y="626"/>
      <point x="193" y="634"/>
      <point x="193" y="643" type="curve" smooth="yes"/>
      <point x="193" y="652"/>
      <point x="184" y="659"/>
      <point x="173" y="659" type="curve" smooth="yes"/>
      <point x="95" y="659" type="line"/>
    </contour>
    <contour>
      <point x="95" y="-62" type="line"/>
      <point x="173" y="-62" type="line" smooth="yes"/>
      <point x="184" y="-62"/>
      <point x="193" y="-54"/>
      <point x="193" y="-45" type="curve" smooth="yes"/>
      <point x="193" y="-36"/>
      <point x="184" y="-29"/>
      <point x="173" y="-29" type="curve" smooth="yes"/>
      <point x="95" y="-29" type="line"/>
    </contour>
  </outline>
</glyph>
<glyph name="backslash" format="1">
  <advance width="385"/>
  <unicode hex="005C"/>
  <outline>
    <contour>
      <point x="343" y="-89"/>
      <point x="348" y="-77"/>
      <point x="345" y="-67" type="curve" smooth="yes"/>
      <point x="84" y="647" type="line" smooth="yes"/>
      <point x="80" y="657"/>
      <point x="68" y="662"/>
      <point x="58" y="659" type="curve" smooth="yes"/>
      <point x="48" y="655"/>
      <point x="43" y="643"/>
      <point x="46" y="633" type="curve" smooth="yes"/>
      <point x="307" y="-81" type="line" smooth="yes"/>
      <point x="311" y="-91"/>
      <point x="323" y="-96"/>
      <point x="333" y="-93" type="curve" smooth="yes"/>
    </contour>
  </outline>
</glyph>
<glyph name="bracketright" format="1">
  <advance width="300"/>
  <unicode hex="005D"/>
  <outline>
    <contour>
      <point x="239" y="-62"/>
      <point x="248" y="-51"/>
      <point x="248" y="-37" type="curve" smooth="yes"/>
      <point x="248" y="634" type="line" smooth="yes"/>
      <point x="248" y="648"/>
      <point x="239" y="659"/>
      <point x="228" y="659" type="curve" smooth="yes"/>
      <point x="217" y="659"/>
      <point x="208" y="648"/>
      <point x="208" y="634" type="curve" smooth="yes"/>
      <point x="208" y="-37" type="line" smooth="yes"/>
      <point x="208" y="-51"/>
      <point x="216" y="-62"/>
      <point x="228" y="-62" type="curve" smooth="yes"/>
    </contour>
    <contour>
      <point x="150" y="659" type="line" smooth="yes"/>
      <point x="139" y="659"/>
      <point x="130" y="652"/>
      <point x="130" y="643" type="curve" smooth="yes"/>
      <point x="130" y="634"/>
      <point x="139" y="626"/>
      <point x="150" y="626" type="curve" smooth="yes"/>
      <point x="228" y="626" type="line"/>
      <point x="228" y="659" type="line"/>
    </contour>
    <contour>
      <point x="150" y="-29" type="line" smooth="yes"/>
      <point x="139" y="-29"/>
      <point x="130" y="-36"/>
      <point x="130" y="-45" type="curve" smooth="yes"/>
      <point x="130" y="-54"/>
      <point x="139" y="-62"/>
      <point x="150" y="-62" type="curve" smooth="yes"/>
      <point x="228" y="-62" type="line"/>
      <point x="228" y="-29" type="line"/>
    </contour>
  </outline>
</glyph>
<glyph name="asciicircum" format="1">
  <advance width="485"/>
  <unicode hex="005E"/>
  <outline>
    <contour>
      <point x="256" y="514" type="curve" smooth="yes"/>
      <point x="206" y="417"/>
      <point x="152" y="317"/>
      <point x="109" y="233" type="curve" smooth="yes"/>
      <point x="104" y="223"/>
      <point x="92" y="219"/>
      <point x="82" y="224" type="curve" smooth="yes"/>
      <point x="72" y="229"/>
      <point x="68" y="241"/>
      <point x="73" y="251" type="curve" smooth="yes"/>
      <point x="116" y="335"/>
      <point x="170" y="435"/>
      <point x="220" y="532" type="curve" smooth="yes"/>
      <point x="225" y="542"/>
      <point x="238" y="546"/>
      <point x="247" y="541" type="curve" smooth="yes"/>
      <point x="257" y="536"/>
      <point x="261" y="523"/>
    </contour>
    <contour>
      <point x="377" y="233" type="curve" smooth="yes"/>
      <point x="333" y="317"/>
      <point x="282" y="417"/>
      <point x="230" y="514" type="curve" smooth="yes"/>
      <point x="225" y="523"/>
      <point x="229" y="536"/>
      <point x="239" y="541" type="curve" smooth="yes"/>
      <point x="248" y="546"/>
      <point x="261" y="542"/>
      <point x="266" y="532" type="curve" smooth="yes"/>
      <point x="318" y="435"/>
      <point x="369" y="335"/>
      <point x="413" y="251" type="curve" smooth="yes"/>
      <point x="418" y="242"/>
      <point x="414" y="229"/>
      <point x="404" y="224" type="curve" smooth="yes"/>
      <point x="395" y="219"/>
      <point x="382" y="223"/>
    </contour>
  </outline>
</glyph>
<glyph name="c" format="1">
  <advance width="438"/>
  <unicode hex="0063"/>
  <outline>
    <contour>
      <point x="355" y="339" type="curve" smooth="yes"/>
      <point x="329" y="347"/>
      <point x="296" y="354"/>
      <point x="268" y="354" type="curve" smooth="yes"/>
      <point x="157" y="354"/>
      <point x="93" y="283"/>
      <point x="93" y="185" type="curve" smooth="yes"/>
      <point x="93" y="99"/>
      <point x="157" y="34"/>
      <point x="267" y="34" type="curve" smooth="yes"/>
      <point x="307" y="34"/>
      <point x="340" y="42"/>
      <point x="367" y="53" type="curve" smooth="yes"/>
      <point x="377" y="57"/>
      <point x="389" y="51"/>
      <point x="393" y="41" type="curve" smooth="yes"/>
      <point x="397" y="31"/>
      <point x="391" y="19"/>
      <point x="381" y="15" type="curve" smooth="yes"/>
      <point x="350" y="4"/>
      <point x="313" y="-6"/>
      <point x="267" y="-6" type="curve" smooth="yes"/>
      <point x="127" y="-6"/>
      <point x="53" y="79"/>
      <point x="53" y="185" type="curve"/>
      <point x="53" y="305"/>
      <point x="131" y="394"/>
      <point x="268" y="394" type="curve" smooth="yes"/>
      <point x="300" y="394"/>
      <point x="337" y="387"/>
      <point x="367" y="377" type="curve" smooth="yes"/>
      <point x="377" y="374"/>
      <point x="383" y="362"/>
      <point x="380" y="352" type="curve" smooth="yes"/>
      <point x="377" y="342"/>
      <point x="365" y="336"/>
    </contour>
  </outline>
</glyph>
<glyph name="d" format="1">
  <advance width="510"/>
  <unicode hex="0064"/>
  <outline>
    <contour>
      <point x="397" y="292" type="curve" smooth="yes"/>
      <point x="354" y="327"/>
      <point x="310" y="349"/>
      <point x="252" y="349" type="curve" smooth="yes"/>
      <point x="160" y="349"/>
      <point x="93" y="279"/>
      <point x="93" y="181" type="curve" smooth="yes"/>
      <point x="93" y="90"/>
      <point x="151" y="30"/>
      <point x="230" y="30" type="curve" smooth="yes"/>
      <point x="303" y="30"/>
      <point x="355" y="81"/>
      <point x="392" y="143" type="curve" smooth="yes"/>
      <point x="397" y="153"/>
      <point x="410" y="156"/>
      <point x="419" y="150" type="curve" smooth="yes"/>
      <point x="429" y="145"/>
      <point x="432" y="132"/>
      <point x="426" y="123" type="curve" smooth="yes"/>
      <point x="381" y="47"/>
      <point x="317" y="-10"/>
      <point x="230" y="-10" type="curve" smooth="yes"/>
      <point x="131" y="-10"/>
      <point x="53" y="64"/>
      <point x="53" y="181" type="curve"/>
      <point x="53" y="303"/>
      <point x="138" y="389"/>
      <point x="252" y="389" type="curve" smooth="yes"/>
      <point x="320" y="389"/>
      <point x="372" y="365"/>
      <point x="423" y="322" type="curve" smooth="yes"/>
      <point x="431" y="315"/>
      <point x="432" y="303"/>
      <point x="425" y="294" type="curve" smooth="yes"/>
      <point x="418" y="286"/>
      <point x="406" y="285"/>
    </contour>
    <contour>
      <point x="430" y="547" type="curve" smooth="yes"/>
      <point x="430" y="10" type="line" smooth="yes"/>
      <point x="430" y="-1"/>
      <point x="421" y="-10"/>
      <point x="410" y="-10" type="curve" smooth="yes"/>
      <point x="399" y="-10"/>
      <point x="390" y="-1"/>
      <point x="390" y="10" type="curve" smooth="yes"/>
      <point x="390" y="547" type="line" smooth="yes"/>
      <point x="390" y="558"/>
      <point x="399" y="567"/>
      <point x="410" y="567" type="curve" smooth="yes"/>
      <point x="421" y="567"/>
      <point x="430" y="558"/>
    </contour>
  </outline>
</glyph>
<glyph name="i" format="1">
  <advance width="214"/>
  <unicode hex="0069"/>
  <outline>
    <contour>
      <point x="107" y="607" type="curve" smooth="yes"/>
      <point x="128" y="607"/>
      <point x="146" y="588"/>
      <point x="146" y="559" type="curve" smooth="yes"/>
      <point x="146" y="532"/>
      <point x="128" y="514"/>
      <point x="108" y="514" type="curve" smooth="yes"/>
      <point x="85" y="514"/>
      <point x="68" y="533"/>
      <point x="68" y="559" type="curve" smooth="yes"/>
      <point x="68" y="588"/>
      <point x="85" y="607"/>
    </contour>
    <contour>
      <point x="87" y="9" type="curve" smooth="yes"/>
      <point x="87" y="368" type="line" smooth="yes"/>
      <point x="87" y="379"/>
      <point x="96" y="388"/>
      <point x="107" y="388" type="curve" smooth="yes"/>
      <point x="118" y="388"/>
      <point x="127" y="379"/>
      <point x="127" y="368" type="curve" smooth="yes"/>
      <point x="127" y="9" type="line" smooth="yes"/>
      <point x="127" y="-2"/>
      <point x="118" y="-11"/>
      <point x="107" y="-11" type="curve" smooth="yes"/>
      <point x="96" y="-11"/>
      <point x="87" y="-2"/>
    </contour>
    <contour>
      <point x="107" y="567" type="curve" smooth="yes"/>
      <point x="103" y="567"/>
      <point x="108" y="558"/>
      <point x="108" y="559" type="curve"/>
      <point x="108" y="559"/>
      <point x="105" y="554"/>
      <point x="108" y="554" type="curve" smooth="yes"/>
      <point x="110" y="554"/>
      <point x="106" y="560"/>
      <point x="106" y="559" type="curve" smooth="yes"/>
      <point x="106" y="558"/>
      <point x="110" y="567"/>
    </contour>
  </outline>
</glyph>
<glyph name="j" format="1">
  <advance width="214"/>
  <unicode hex="006A"/>
  <outline>
    <contour>
      <point x="80" y="-140"/>
      <point x="127" y="-82"/>
      <point x="127" y="33" type="curve" smooth="yes"/>
      <point x="127" y="372" type="line" smooth="yes"/>
      <point x="127" y="383"/>
      <point x="118" y="392"/>
      <point x="107" y="392" type="curve" smooth="yes"/>
      <point x="96" y="392"/>
      <point x="87" y="383"/>
      <point x="87" y="372" type="curve" smooth="yes"/>
      <point x="87" y="33" type="line" smooth="yes"/>
      <point x="87" y="-60"/>
      <point x="50" y="-108"/>
      <point x="-16" y="-134" type="curve" smooth="yes"/>
      <point x="-26" y="-138"/>
      <point x="-32" y="-150"/>
      <point x="-28" y="-160" type="curve" smooth="yes"/>
      <point x="-24" y="-170"/>
      <point x="-12" y="-176"/>
      <point x="-2" y="-172" type="curve" smooth="yes"/>
    </contour>
    <contour>
      <point x="128" y="518"/>
      <point x="146" y="536"/>
      <point x="146" y="563" type="curve" smooth="yes"/>
      <point x="146" y="592"/>
      <point x="128" y="611"/>
      <point x="107" y="611" type="curve" smooth="yes"/>
      <point x="85" y="611"/>
      <point x="68" y="592"/>
      <point x="68" y="563" type="curve" smooth="yes"/>
      <point x="68" y="537"/>
      <point x="85" y="518"/>
      <point x="108" y="518" type="curve" smooth="yes"/>
    </contour>
  </outline>
</glyph>
<glyph name="l" format="1">
  <advance width="214"/>
  <unicode hex="006C"/>
  <outline>
    <contour>
      <point x="118" y="-10"/>
      <point x="127" y="-1"/>
      <point x="127" y="10" type="curve" smooth="yes"/>
      <point x="127" y="547" type="line" smooth="yes"/>
      <point x="127" y="558"/>
      <point x="118" y="567"/>
      <point x="107" y="567" type="curve" smooth="yes"/>
      <point x="96" y="567"/>
      <point x="87" y="558"/>
      <point x="87" y="547" type="curve" smooth="yes"/>
      <point x="87" y="10" type="line" smooth="yes"/>
      <point x="87" y="-1"/>
      <point x="96" y="-10"/>
      <point x="107" y="-10" type="curve" smooth="yes"/>
    </contour>
    <contour>
      <point x="108" y="569" type="move" name="top"/>
    </contour>
    <contour>
      <point x="106" y="-8" type="move" name="bottom"/>
    </contour>
  </outline>
</glyph>
<glyph name="m" format="1">
  <advance width="760"/>
  <unicode hex="006D"/>
  <outline>
    <contour>
      <point x="81" y="14" type="curve" smooth="yes"/>
      <point x="81" y="374" type="line" smooth="yes"/>
      <point x="81" y="385"/>
      <point x="90" y="394"/>
      <point x="101" y="394" type="curve" smooth="yes"/>
      <point x="112" y="394"/>
      <point x="121" y="385"/>
      <point x="121" y="374" type="curve" smooth="yes"/>
      <point x="121" y="14" type="line" smooth="yes"/>
      <point x="121" y="3"/>
      <point x="112" y="-6"/>
      <point x="101" y="-6" type="curve" smooth="yes"/>
      <point x="90" y="-6"/>
      <point x="81" y="3"/>
    </contour>
    <contour>
      <point x="366" y="14" type="curve" smooth="yes"/>
      <point x="366" y="235" type="line" smooth="yes"/>
      <point x="366" y="324"/>
      <point x="327" y="354"/>
      <point x="272" y="354" type="curve" smooth="yes"/>
      <point x="217" y="354"/>
      <point x="160" y="314"/>
      <point x="118" y="267" type="curve" smooth="yes"/>
      <point x="111" y="259"/>
      <point x="98" y="258"/>
      <point x="90" y="265" type="curve" smooth="yes"/>
      <point x="82" y="272"/>
      <point x="81" y="285"/>
      <point x="88" y="293" type="curve" smooth="yes"/>
      <point x="138" y="350"/>
      <point x="207" y="394"/>
      <point x="272" y="394" type="curve" smooth="yes"/>
      <point x="345" y="394"/>
      <point x="406" y="362"/>
      <point x="406" y="235" type="curve" smooth="yes"/>
      <point x="406" y="14" type="line" smooth="yes"/>
      <point x="406" y="3"/>
      <point x="397" y="-6"/>
      <point x="386" y="-6" type="curve" smooth="yes"/>
      <point x="375" y="-6"/>
      <point x="366" y="3"/>
    </contour>
    <contour>
      <point x="650" y="14" type="curve" smooth="yes"/>
      <point x="650" y="235" type="line" smooth="yes"/>
      <point x="650" y="324"/>
      <point x="610" y="354"/>
      <point x="555" y="354" type="curve" smooth="yes"/>
      <point x="500" y="354"/>
      <point x="444" y="314"/>
      <point x="401" y="267" type="curve" smooth="yes"/>
      <point x="394" y="259"/>
      <point x="381" y="258"/>
      <point x="373" y="265" type="curve" smooth="yes"/>
      <point x="365" y="272"/>
      <point x="364" y="285"/>
      <point x="371" y="293" type="curve" smooth="yes"/>
      <point x="422" y="350"/>
      <point x="490" y="394"/>
      <point x="555" y="394" type="curve" smooth="yes"/>
      <point x="628" y="394"/>
      <point x="690" y="362"/>
      <point x="690" y="235" type="curve" smooth="yes"/>
      <point x="690" y="14" type="line" smooth="yes"/>
      <point x="690" y="3"/>
      <point x="681" y="-6"/>
      <point x="670" y="-6" type="curve" smooth="yes"/>
      <point x="659" y="-6"/>
      <point x="650" y="3"/>
    </contour>
  </outline>
</glyph>
<glyph name="q" format="1">
  <advance width="510"/>
  <unicode hex="0071"/>
  <outline>
    <contour>
      <point x="430" y="378" type="curve" smooth="yes"/>
      <point x="430" y="-181" type="line" smooth="yes"/>
      <point x="430" y="-192"/>
      <point x="421" y="-201"/>
      <point x="410" y="-201" type="curve" smooth="yes"/>
      <point x="399" y="-201"/>
      <point x="390" y="-192"/>
      <point x="390" y="-181" type="curve" smooth="yes"/>
      <point x="390" y="378" type="line" smooth="yes"/>
      <point x="390" y="389"/>
      <point x="399" y="398"/>
      <point x="410" y="398" type="curve" smooth="yes"/>
      <point x="421" y="398"/>
      <point x="430" y="389"/>
    </contour>
    <contour>
      <point x="399" y="318" type="curve" smooth="yes"/>
      <point x="359" y="344"/>
      <point x="315" y="358"/>
      <point x="259" y="358" type="curve" smooth="yes"/>
      <point x="169" y="358"/>
      <point x="93" y="292"/>
      <point x="93" y="183" type="curve" smooth="yes"/>
      <point x="93" y="93"/>
      <point x="158" y="39"/>
      <point x="228" y="39" type="curve" smooth="yes"/>
      <point x="289" y="39"/>
      <point x="349" y="74"/>
      <point x="392" y="144" type="curve" smooth="yes"/>
      <point x="398" y="153"/>
      <point x="410" y="156"/>
      <point x="420" y="150" type="curve" smooth="yes"/>
      <point x="429" y="144"/>
      <point x="432" y="132"/>
      <point x="426" y="122" type="curve" smooth="yes"/>
      <point x="373" y="38"/>
      <point x="301" y="-1"/>
      <point x="228" y="-1" type="curve" smooth="yes"/>
      <point x="138" y="-1"/>
      <point x="53" y="67"/>
      <point x="53" y="183" type="curve"/>
      <point x="53" y="318"/>
      <point x="149" y="398"/>
      <point x="259" y="398" type="curve" smooth="yes"/>
      <point x="323" y="398"/>
      <point x="375" y="382"/>
      <point x="421" y="352" type="curve" smooth="yes"/>
      <point x="430" y="346"/>
      <point x="433" y="333"/>
      <point x="427" y="324" type="curve" smooth="yes"/>
      <point x="421" y="315"/>
      <point x="408" y="312"/>
    </contour>
  </outline>
</glyph>
<glyph name="s" format="1">
  <advance width="449"/>
  <unicode hex="0073"/>
  <outline>
    <contour>
      <point x="359" y="-10"/>
      <point x="395" y="49"/>
      <point x="395" y="105" type="curve" smooth="yes"/>
      <point x="395" y="158"/>
      <point x="361" y="211"/>
      <point x="262" y="221" type="curve" smooth="yes"/>
      <point x="220" y="226" type="line" smooth="yes"/>
      <point x="148" y="233"/>
      <point x="112" y="256"/>
      <point x="112" y="289" type="curve" smooth="yes"/>
      <point x="112" y="326"/>
      <point x="151" y="357"/>
      <point x="226" y="357" type="curve" smooth="yes"/>
      <point x="268" y="357"/>
      <point x="306" y="349"/>
      <point x="336" y="342" type="curve" smooth="yes"/>
      <point x="346" y="339"/>
      <point x="358" y="346"/>
      <point x="360" y="356" type="curve" smooth="yes"/>
      <point x="363" y="366"/>
      <point x="356" y="378"/>
      <point x="346" y="380" type="curve" smooth="yes"/>
      <point x="314" y="389"/>
      <point x="272" y="397"/>
      <point x="226" y="397" type="curve" smooth="yes"/>
      <point x="107" y="397"/>
      <point x="72" y="338"/>
      <point x="72" y="289" type="curve" smooth="yes"/>
      <point x="72" y="244"/>
      <point x="98" y="197"/>
      <point x="216" y="186" type="curve" smooth="yes"/>
      <point x="258" y="181" type="line" smooth="yes"/>
      <point x="323" y="175"/>
      <point x="355" y="144"/>
      <point x="355" y="105" type="curve" smooth="yes"/>
      <point x="355" y="63"/>
      <point x="315" y="30"/>
      <point x="233" y="30" type="curve" smooth="yes"/>
      <point x="186" y="30"/>
      <point x="137" y="39"/>
      <point x="94" y="58" type="curve" smooth="yes"/>
      <point x="84" y="63"/>
      <point x="72" y="58"/>
      <point x="68" y="48" type="curve" smooth="yes"/>
      <point x="63" y="38"/>
      <point x="68" y="26"/>
      <point x="78" y="22" type="curve" smooth="yes"/>
      <point x="127" y="1"/>
      <point x="180" y="-10"/>
      <point x="233" y="-10" type="curve" smooth="yes"/>
    </contour>
    <contour>
      <point x="225" y="395" type="move" name="top"/>
    </contour>
    <contour>
      <point x="230" y="-8" type="move" name="bottom"/>
    </contour>
  </outline>
</glyph>
<glyph name="u" format="1">
  <advance width="492"/>
  <unicode hex="0075"/>
  <outline>
    <contour>
      <point x="279" y="-6"/>
      <point x="355" y="49"/>
      <point x="403" y="115" type="curve" smooth="yes"/>
      <point x="410" y="124"/>
      <point x="407" y="137"/>
      <point x="399" y="143" type="curve" smooth="yes"/>
      <point x="390" y="150"/>
      <point x="377" y="147"/>
      <point x="371" y="139" type="curve" smooth="yes"/>
      <point x="331" y="83"/>
      <point x="269" y="34"/>
      <point x="208" y="34" type="curve" smooth="yes"/>
      <point x="149" y="34"/>
      <point x="110" y="72"/>
      <point x="110" y="164" type="curve" smooth="yes"/>
      <point x="110" y="374" type="line" smooth="yes"/>
      <point x="110" y="385"/>
      <point x="101" y="394"/>
      <point x="90" y="394" type="curve" smooth="yes"/>
      <point x="79" y="394"/>
      <point x="70" y="385"/>
      <point x="70" y="374" type="curve" smooth="yes"/>
      <point x="70" y="164" type="line" smooth="yes"/>
      <point x="70" y="34"/>
      <point x="131" y="-6"/>
      <point x="208" y="-6" type="curve" smooth="yes"/>
    </contour>
    <contour>
      <point x="402" y="-6"/>
      <point x="411" y="3"/>
      <point x="411" y="14" type="curve" smooth="yes"/>
      <point x="411" y="374" type="line" smooth="yes"/>
      <point x="411" y="385"/>
      <point x="402" y="394"/>
      <point x="391" y="394" type="curve" smooth="yes"/>
      <point x="380" y="394"/>
      <point x="371" y="385"/>
      <point x="371" y="374" type="curve" smooth="yes"/>
      <point x="371" y="14" type="line" smooth="yes"/>
      <point x="371" y="3"/>
      <point x="380" y="-6"/>
      <point x="391" y="-6" type="curve" smooth="yes"/>
    </contour>
    <contour>
      <point x="392" y="21" type="move" name="ogonek"/>
    </contour>
    <contour>
      <point x="231" y="390" type="move" name="top"/>
    </contour>
  </outline>
</glyph>
<glyph name="x" format="1">
  <advance width="439"/>
  <unicode hex="0078"/>
  <outline>
    <contour>
      <point x="36" y="27" type="curve" smooth="yes"/>
      <point x="104" y="105"/>
      <point x="270" y="284"/>
      <point x="351" y="386" type="curve" smooth="yes"/>
      <point x="358" y="395"/>
      <point x="371" y="396"/>
      <point x="379" y="390" type="curve" smooth="yes"/>
      <point x="388" y="383"/>
      <point x="389" y="370"/>
      <point x="383" y="362" type="curve" smooth="yes"/>
      <point x="300" y="258"/>
      <point x="134" y="79"/>
      <point x="66" y="1" type="curve" smooth="yes"/>
      <point x="59" y="-7"/>
      <point x="46" y="-8"/>
      <point x="38" y="-1" type="curve" smooth="yes"/>
      <point x="30" y="6"/>
      <point x="29" y="19"/>
    </contour>
    <contour>
      <point x="80" y="387" type="curve" smooth="yes"/>
      <point x="162" y="290"/>
      <point x="309" y="136"/>
      <point x="403" y="27" type="curve" smooth="yes"/>
      <point x="410" y="19"/>
      <point x="409" y="6"/>
      <point x="401" y="-1" type="curve" smooth="yes"/>
      <point x="393" y="-8"/>
      <point x="380" y="-7"/>
      <point x="373" y="1" type="curve" smooth="yes"/>
      <point x="279" y="110"/>
      <point x="132" y="264"/>
      <point x="50" y="361" type="curve" smooth="yes"/>
      <point x="43" y="369"/>
      <point x="44" y="382"/>
      <point x="52" y="389" type="curve" smooth="yes"/>
      <point x="60" y="396"/>
      <point x="73" y="395"/>
    </contour>
  </outline>
</glyph>
<glyph name="y" format="1">
  <advance width="443"/>
  <unicode hex="0079"/>
  <outline>
    <contour>
      <point x="41" y="-147" type="curve" smooth="yes"/>
      <point x="104" y="-110"/>
      <point x="162" y="-66"/>
      <point x="219" y="30" type="curve" smooth="yes"/>
      <point x="274" y="123"/>
      <point x="336" y="266"/>
      <point x="371" y="384" type="curve" smooth="yes"/>
      <point x="374" y="394"/>
      <point x="385" y="400"/>
      <point x="396" y="397" type="curve" smooth="yes"/>
      <point x="406" y="394"/>
      <point x="412" y="383"/>
      <point x="409" y="372" type="curve" smooth="yes"/>
      <point x="374" y="252"/>
      <point x="310" y="105"/>
      <point x="253" y="10" type="curve" smooth="yes"/>
      <point x="192" y="-94"/>
      <point x="130" y="-142"/>
      <point x="61" y="-181" type="curve" smooth="yes"/>
      <point x="52" y="-187"/>
      <point x="39" y="-183"/>
      <point x="34" y="-174" type="curve" smooth="yes"/>
      <point x="28" y="-165"/>
      <point x="32" y="-152"/>
    </contour>
    <contour>
      <point x="72" y="386" type="curve" smooth="yes"/>
      <point x="128" y="227"/>
      <point x="196" y="113"/>
      <point x="250" y="31" type="curve" smooth="yes"/>
      <point x="256" y="22"/>
      <point x="253" y="9"/>
      <point x="244" y="3" type="curve" smooth="yes"/>
      <point x="235" y="-3"/>
      <point x="222" y="0"/>
      <point x="216" y="9" type="curve" smooth="yes"/>
      <point x="162" y="93"/>
      <point x="92" y="209"/>
      <point x="34" y="372" type="curve" smooth="yes"/>
      <point x="31" y="383"/>
      <point x="36" y="394"/>
      <point x="46" y="398" type="curve" smooth="yes"/>
      <point x="57" y="401"/>
      <point x="68" y="396"/>
    </contour>
  </outline>
</glyph>
<glyph name="z" format="1">
  <advance width="436"/>
  <unicode hex="007A"/>
  <outline>
    <contour>
      <point x="61" y="1"/>
      <point x="74" y="2"/>
      <point x="81" y="10" type="curve" smooth="yes"/>
      <point x="379" y="361" type="line" smooth="yes"/>
      <point x="386" y="369"/>
      <point x="385" y="382"/>
      <point x="377" y="389" type="curve" smooth="yes"/>
      <point x="369" y="396"/>
      <point x="356" y="395"/>
      <point x="349" y="387" type="curve" smooth="yes"/>
      <point x="51" y="36" type="line" smooth="yes"/>
      <point x="44" y="28"/>
      <point x="45" y="15"/>
      <point x="53" y="8" type="curve" smooth="yes"/>
    </contour>
    <contour>
      <point x="376" y="-6" type="line" smooth="yes"/>
      <point x="387" y="-6"/>
      <point x="396" y="3"/>
      <point x="396" y="14" type="curve" smooth="yes"/>
      <point x="396" y="25"/>
      <point x="387" y="34"/>
      <point x="376" y="34" type="curve" smooth="yes"/>
      <point x="60" y="34" type="line" smooth="yes"/>
      <point x="49" y="34"/>
      <point x="40" y="25"/>
      <point x="40" y="14" type="curve" smooth="yes"/>
      <point x="40" y="3"/>
      <point x="49" y="-6"/>
      <point x="60" y="-6" type="curve" smooth="yes"/>
    </contour>
    <contour>
      <point x="358" y="354" type="line" smooth="yes"/>
      <point x="369" y="354"/>
      <point x="378" y="363"/>
      <point x="378" y="374" type="curve" smooth="yes"/>
      <point x="378" y="385"/>
      <point x="369" y="394"/>
      <point x="358" y="394" type="curve" smooth="yes"/>
      <point x="75" y="394" type="line" smooth="yes"/>
      <point x="64" y="394"/>
      <point x="55" y="385"/>
      <point x="55" y="374" type="curve" smooth="yes"/>
      <point x="55" y="363"/>
      <point x="64" y="354"/>
      <point x="75" y="354" type="curve" smooth="yes"/>
    </contour>
    <contour>
      <point x="216" y="394" type="move" name="top"/>
    </contour>
  </outline>
</glyph>
<glyph name="bar" format="1">
  <advance width="285"/>
  <unicode hex="007C"/>
  <outline>
    <contour>
      <point x="163" y="621" type="curve" smooth="yes"/>
      <point x="163" y="-95" type="line" smooth="yes"/>
      <point x="163" y="-106"/>
      <point x="154" y="-115"/>
      <point x="143" y="-115" type="curve" smooth="yes"/>
      <point x="132" y="-115"/>
      <point x="123" y="-106"/>
      <point x="123" y="-95" type="curve" smooth="yes"/>
      <point x="123" y="621" type="line" smooth="yes"/>
      <point x="123" y="632"/>
      <point x="132" y="641"/>
      <point x="143" y="641" type="curve" smooth="yes"/>
      <point x="154" y="641"/>
      <point x="163" y="632"/>
    </contour>
  </outline>
</glyph>
<glyph name="exclamdown" format="1">
  <advance width="313"/>
  <unicode hex="00A1"/>
  <outline>
    <contour>
      <point x="175" y="291" type="curve" smooth="yes"/>
      <point x="182" y="-1" type="line" smooth="yes"/>
      <point x="182" y="-11"/>
      <point x="173" y="-21"/>
      <point x="162" y="-21" type="curve" smooth="yes"/>
      <point x="152" y="-21"/>
      <point x="142" y="-12"/>
      <point x="142" y="-1" type="curve" smooth="yes"/>
      <point x="135" y="291" type="line" smooth="yes"/>
      <point x="135" y="301"/>
      <point x="144" y="311"/>
      <point x="155" y="311" type="curve" smooth="yes"/>
      <point x="165" y="311"/>
      <point x="175" y="302"/>
    </contour>
    <contour>
      <point x="155" y="469" type="curve" smooth="yes"/>
      <point x="129" y="469"/>
      <point x="114" y="491"/>
      <point x="114" y="520" type="curve" smooth="yes"/>
      <point x="114" y="554"/>
      <point x="136" y="570"/>
      <point x="156" y="570" type="curve" smooth="yes"/>
      <point x="181" y="570"/>
      <point x="197" y="555"/>
      <point x="197" y="520" type="curve" smooth="yes"/>
      <point x="197" y="491"/>
      <point x="180" y="469"/>
    </contour>
  </outline>
</glyph>
<glyph name="cent" format="1">
  <advance width="425"/>
  <unicode hex="00A2"/>
  <outline>
    <contour>
      <point x="256" y="519" type="curve" smooth="yes"/>
      <point x="256" y="11" type="line" smooth="yes"/>
      <point x="256" y="0"/>
      <point x="247" y="-9"/>
      <point x="236" y="-9" type="curve" smooth="yes"/>
      <point x="225" y="-9"/>
      <point x="216" y="0"/>
      <point x="216" y="11" type="curve" smooth="yes"/>
      <point x="216" y="519" type="line" smooth="yes"/>
      <point x="216" y="530"/>
      <point x="225" y="539"/>
      <point x="236" y="539" type="curve" smooth="yes"/>
      <point x="247" y="539"/>
      <point x="256" y="530"/>
    </contour>
    <contour>
      <point x="345" y="400" type="curve" smooth="yes"/>
      <point x="319" y="408"/>
      <point x="286" y="414"/>
      <point x="258" y="414" type="curve" smooth="yes"/>
      <point x="148" y="414"/>
      <point x="83" y="347"/>
      <point x="83" y="255" type="curve" smooth="yes"/>
      <point x="83" y="172"/>
      <point x="147" y="112"/>
      <point x="257" y="112" type="curve" smooth="yes"/>
      <point x="297" y="112"/>
      <point x="330" y="119"/>
      <point x="357" y="130" type="curve" smooth="yes"/>
      <point x="367" y="134"/>
      <point x="379" y="128"/>
      <point x="383" y="118" type="curve" smooth="yes"/>
      <point x="387" y="108"/>
      <point x="381" y="96"/>
      <point x="371" y="92" type="curve" smooth="yes"/>
      <point x="340" y="81"/>
      <point x="303" y="72"/>
      <point x="257" y="72" type="curve" smooth="yes"/>
      <point x="117" y="72"/>
      <point x="43" y="154"/>
      <point x="43" y="255" type="curve"/>
      <point x="43" y="369"/>
      <point x="120" y="454"/>
      <point x="258" y="454" type="curve" smooth="yes"/>
      <point x="290" y="454"/>
      <point x="327" y="448"/>
      <point x="357" y="438" type="curve" smooth="yes"/>
      <point x="367" y="435"/>
      <point x="373" y="423"/>
      <point x="370" y="413" type="curve" smooth="yes"/>
      <point x="367" y="403"/>
      <point x="355" y="397"/>
    </contour>
  </outline>
</glyph>
<glyph name="brokenbar" format="1">
  <advance width="285"/>
  <unicode hex="00A6"/>
  <outline>
    <contour>
      <point x="163" y="145" type="curve" smooth="yes"/>
      <point x="163" y="-93" type="line" smooth="yes"/>
      <point x="163" y="-104"/>
      <point x="154" y="-113"/>
      <point x="143" y="-113" type="curve" smooth="yes"/>
      <point x="132" y="-113"/>
      <point x="123" y="-104"/>
      <point x="123" y="-93" type="curve" smooth="yes"/>
      <point x="123" y="145" type="line" smooth="yes"/>
      <point x="123" y="156"/>
      <point x="132" y="165"/>
      <point x="143" y="165" type="curve" smooth="yes"/>
      <point x="154" y="165"/>
      <point x="163" y="156"/>
    </contour>
    <contour>
      <point x="163" y="550" type="curve" smooth="yes"/>
      <point x="163" y="312" type="line" smooth="yes"/>
      <point x="163" y="301"/>
      <point x="154" y="292"/>
      <point x="143" y="292" type="curve" smooth="yes"/>
      <point x="132" y="292"/>
      <point x="123" y="301"/>
      <point x="123" y="312" type="curve" smooth="yes"/>
      <point x="123" y="550" type="line" smooth="yes"/>
      <point x="123" y="561"/>
      <point x="132" y="570"/>
      <point x="143" y="570" type="curve" smooth="yes"/>
      <point x="154" y="570"/>
      <point x="163" y="561"/>
    </contour>
  </outline>
</glyph>
<glyph name="section" format="1">
  <advance width="521"/>
  <unicode hex="00A7"/>
  <outline>
    <contour>
      <point x="392" y="485" type="curve" smooth="yes"/>
      <point x="344" y="500"/>
      <point x="310" y="509"/>
      <point x="240" y="509" type="curve" smooth="yes"/>
      <point x="171" y="509"/>
      <point x="117" y="479"/>
      <point x="117" y="439" type="curve" smooth="yes"/>
      <point x="117" y="401"/>
      <point x="149" y="363"/>
      <point x="265" y="346" type="curve"/>
      <point x="414" y="316"/>
      <point x="453" y="262"/>
      <point x="453" y="201" type="curve" smooth="yes"/>
      <point x="453" y="138"/>
      <point x="405" y="80"/>
      <point x="261" y="80" type="curve" smooth="yes"/>
      <point x="250" y="80"/>
      <point x="241" y="89"/>
      <point x="241" y="100" type="curve" smooth="yes"/>
      <point x="241" y="111"/>
      <point x="250" y="120"/>
      <point x="261" y="120" type="curve" smooth="yes"/>
      <point x="357" y="120"/>
      <point x="413" y="152"/>
      <point x="413" y="201" type="curve" smooth="yes"/>
      <point x="413" y="250"/>
      <point x="366" y="284"/>
      <point x="259" y="306" type="curve"/>
      <point x="95" y="331"/>
      <point x="77" y="391"/>
      <point x="77" y="439" type="curve" smooth="yes"/>
      <point x="77" y="491"/>
      <point x="131" y="549"/>
      <point x="240" y="549" type="curve" smooth="yes"/>
      <point x="316" y="549"/>
      <point x="352" y="540"/>
      <point x="404" y="523" type="curve" smooth="yes"/>
      <point x="414" y="520"/>
      <point x="420" y="508"/>
      <point x="417" y="498" type="curve" smooth="yes"/>
      <point x="414" y="488"/>
      <point x="402" y="482"/>
    </contour>
    <contour>
      <point x="230" y="307" type="curve" smooth="yes"/>
      <point x="157" y="307"/>
      <point x="107" y="277"/>
      <point x="107" y="222" type="curve" smooth="yes"/>
      <point x="107" y="180"/>
      <point x="137" y="140"/>
      <point x="255" y="120" type="curve" smooth="yes"/>
      <point x="407" y="94"/>
      <point x="443" y="53"/>
      <point x="443" y="-9" type="curve" smooth="yes"/>
      <point x="443" y="-72"/>
      <point x="392" y="-135"/>
      <point x="251" y="-135" type="curve" smooth="yes"/>
      <point x="185" y="-135"/>
      <point x="122" y="-123"/>
      <point x="65" y="-97" type="curve" smooth="yes"/>
      <point x="55" y="-93"/>
      <point x="50" y="-81"/>
      <point x="55" y="-71" type="curve" smooth="yes"/>
      <point x="59" y="-61"/>
      <point x="71" y="-56"/>
      <point x="81" y="-61" type="curve" smooth="yes"/>
      <point x="134" y="-85"/>
      <point x="191" y="-95"/>
      <point x="251" y="-95" type="curve" smooth="yes"/>
      <point x="348" y="-95"/>
      <point x="403" y="-58"/>
      <point x="403" y="-9" type="curve" smooth="yes"/>
      <point x="403" y="41"/>
      <point x="353" y="62"/>
      <point x="249" y="80" type="curve" smooth="yes"/>
      <point x="85" y="108"/>
      <point x="67" y="170"/>
      <point x="67" y="222" type="curve" smooth="yes"/>
      <point x="67" y="295"/>
      <point x="123" y="347"/>
      <point x="230" y="347" type="curve" smooth="yes"/>
      <point x="241" y="347"/>
      <point x="250" y="338"/>
      <point x="250" y="327" type="curve" smooth="yes"/>
      <point x="250" y="316"/>
      <point x="241" y="307"/>
    </contour>
  </outline>
</glyph>
<glyph name="macron" format="1">
  <advance width="485"/>
  <unicode hex="00AF"/>
  <outline>
    <contour>
      <point x="348" y="517" type="curve" smooth="yes"/>
      <point x="137" y="517" type="line" smooth="yes"/>
      <point x="126" y="517"/>
      <point x="117" y="526"/>
      <point x="117" y="537" type="curve" smooth="yes"/>
      <point x="117" y="548"/>
      <point x="126" y="557"/>
      <point x="137" y="557" type="curve" smooth="yes"/>
      <point x="348" y="557" type="line" smooth="yes"/>
      <point x="359" y="557"/>
      <point x="368" y="548"/>
      <point x="368" y="537" type="curve" smooth="yes"/>
      <point x="368" y="526"/>
      <point x="359" y="517"/>
    </contour>
  </outline>
</glyph>
<glyph name="degree" format="1">
  <advance width="432"/>
  <unicode hex="00B0"/>
  <outline>
    <contour>
      <point x="215" y="540" type="curve" smooth="yes"/>
      <point x="314" y="540"/>
      <point x="383" y="467"/>
      <point x="383" y="373" type="curve" smooth="yes"/>
      <point x="383" y="283"/>
      <point x="314" y="212"/>
      <point x="216" y="212" type="curve" smooth="yes"/>
      <point x="117" y="212"/>
      <point x="49" y="284"/>
      <point x="49" y="373" type="curve"/>
      <point x="49" y="464"/>
      <point x="115" y="540"/>
    </contour>
    <contour>
      <point x="215" y="500" type="curve" smooth="yes"/>
      <point x="139" y="500"/>
      <point x="89" y="442"/>
      <point x="89" y="373" type="curve" smooth="yes"/>
      <point x="89" y="306"/>
      <point x="141" y="252"/>
      <point x="216" y="252" type="curve" smooth="yes"/>
      <point x="290" y="252"/>
      <point x="343" y="305"/>
      <point x="343" y="373" type="curve" smooth="yes"/>
      <point x="343" y="445"/>
      <point x="290" y="500"/>
    </contour>
  </outline>
</glyph>
<glyph name="plusminus" format="1">
  <advance width="527"/>
  <unicode hex="00B1"/>
  <outline>
    <contour>
      <point x="86" y="351" type="curve" smooth="yes"/>
      <point x="440" y="351" type="line" smooth="yes"/>
      <point x="451" y="351"/>
      <point x="460" y="342"/>
      <point x="460" y="331" type="curve" smooth="yes"/>
      <point x="460" y="320"/>
      <point x="451" y="311"/>
      <point x="440" y="311" type="curve" smooth="yes"/>
      <point x="86" y="311" type="line" smooth="yes"/>
      <point x="75" y="311"/>
      <point x="66" y="320"/>
      <point x="66" y="331" type="curve" smooth="yes"/>
      <point x="66" y="342"/>
      <point x="75" y="351"/>
    </contour>
    <contour>
      <point x="243" y="206" type="curve" smooth="yes"/>
      <point x="243" y="456" type="line" smooth="yes"/>
      <point x="243" y="467"/>
      <point x="252" y="476"/>
      <point x="263" y="476" type="curve" smooth="yes"/>
      <point x="274" y="476"/>
      <point x="283" y="467"/>
      <point x="283" y="456" type="curve" smooth="yes"/>
      <point x="283" y="206" type="line" smooth="yes"/>
      <point x="283" y="195"/>
      <point x="274" y="186"/>
      <point x="263" y="186" type="curve" smooth="yes"/>
      <point x="252" y="186"/>
      <point x="243" y="195"/>
    </contour>
    <contour>
      <point x="86" y="93" type="curve" smooth="yes"/>
      <point x="440" y="93" type="line" smooth="yes"/>
      <point x="451" y="93"/>
      <point x="460" y="84"/>
      <point x="460" y="73" type="curve" smooth="yes"/>
      <point x="460" y="62"/>
      <point x="451" y="53"/>
      <point x="440" y="53" type="curve" smooth="yes"/>
      <point x="86" y="53" type="line" smooth="yes"/>
      <point x="75" y="53"/>
      <point x="66" y="62"/>
      <point x="66" y="73" type="curve" smooth="yes"/>
      <point x="66" y="84"/>
      <point x="75" y="93"/>
    </contour>
  </outline>
</glyph>
<glyph name="uni00B5" format="1">
  <advance width="492"/>
  <unicode hex="00B5"/>
  <outline>
    <contour>
      <point x="101" y="-146"/>
      <point x="110" y="-137"/>
      <point x="110" y="-126" type="curve" smooth="yes"/>
      <point x="110" y="234" type="line" smooth="yes"/>
      <point x="110" y="245"/>
      <point x="101" y="254"/>
      <point x="90" y="254" type="curve" smooth="yes"/>
      <point x="79" y="254"/>
      <point x="70" y="245"/>
      <point x="70" y="234" type="curve" smooth="yes"/>
      <point x="70" y="-126" type="line" smooth="yes"/>
      <point x="70" y="-137"/>
      <point x="79" y="-146"/>
      <point x="90" y="-146" type="curve" smooth="yes"/>
    </contour>
    <component base="u"/>
  </outline>
</glyph>
<glyph name="cedilla" format="1">
  <advance width="485"/>
  <unicode hex="00B8"/>
  <outline>
    <contour>
      <point x="308" y="-96" type="curve" smooth="yes"/>
      <point x="279" y="-122"/>
      <point x="226" y="-175"/>
      <point x="202" y="-200" type="curve" smooth="yes"/>
      <point x="195" y="-208"/>
      <point x="182" y="-208"/>
      <point x="174" y="-200" type="curve" smooth="yes"/>
      <point x="166" y="-193"/>
      <point x="166" y="-180"/>
      <point x="174" y="-172" type="curve" smooth="yes"/>
      <point x="198" y="-147"/>
      <point x="251" y="-94"/>
      <point x="280" y="-66" type="curve" smooth="yes"/>
      <point x="288" y="-59"/>
      <point x="301" y="-59"/>
      <point x="309" y="-67" type="curve" smooth="yes"/>
      <point x="316" y="-75"/>
      <point x="316" y="-88"/>
    </contour>
  </outline>
</glyph>
<glyph name="guillemotright" format="1">
  <advance width="430"/>
  <unicode hex="00BB"/>
  <outline>
    <contour>
      <point x="59" y="43" type="curve" smooth="yes"/>
      <point x="176" y="201" type="line" smooth="yes"/>
      <point x="182" y="210"/>
      <point x="195" y="212"/>
      <point x="204" y="205" type="curve" smooth="yes"/>
      <point x="213" y="199"/>
      <point x="215" y="186"/>
      <point x="208" y="177" type="curve" smooth="yes"/>
      <point x="91" y="19" type="line" smooth="yes"/>
      <point x="85" y="10"/>
      <point x="72" y="8"/>
      <point x="63" y="15" type="curve" smooth="yes"/>
      <point x="54" y="21"/>
      <point x="52" y="34"/>
    </contour>
    <contour>
      <point x="176" y="182" type="curve" smooth="yes"/>
      <point x="59" y="340" type="line" smooth="yes"/>
      <point x="52" y="349"/>
      <point x="54" y="362"/>
      <point x="63" y="368" type="curve" smooth="yes"/>
      <point x="72" y="375"/>
      <point x="85" y="373"/>
      <point x="91" y="364" type="curve" smooth="yes"/>
      <point x="208" y="206" type="line" smooth="yes"/>
      <point x="215" y="197"/>
      <point x="213" y="184"/>
      <point x="204" y="178" type="curve" smooth="yes"/>
      <point x="195" y="171"/>
      <point x="182" y="173"/>
    </contour>
    <contour>
      <point x="238" y="43" type="curve" smooth="yes"/>
      <point x="354" y="201" type="line" smooth="yes"/>
      <point x="360" y="210"/>
      <point x="373" y="212"/>
      <point x="382" y="205" type="curve" smooth="yes"/>
      <point x="391" y="199"/>
      <point x="393" y="186"/>
      <point x="386" y="177" type="curve" smooth="yes"/>
      <point x="270" y="19" type="line" smooth="yes"/>
      <point x="264" y="10"/>
      <point x="251" y="8"/>
      <point x="242" y="15" type="curve" smooth="yes"/>
      <point x="233" y="21"/>
      <point x="231" y="34"/>
    </contour>
    <contour>
      <point x="354" y="182" type="curve" smooth="yes"/>
      <point x="238" y="340" type="line" smooth="yes"/>
      <point x="231" y="349"/>
      <point x="233" y="362"/>
      <point x="242" y="368" type="curve" smooth="yes"/>
      <point x="251" y="375"/>
      <point x="264" y="373"/>
      <point x="270" y="364" type="curve" smooth="yes"/>
      <point x="386" y="206" type="line" smooth="yes"/>
      <point x="393" y="197"/>
      <point x="391" y="184"/>
      <point x="382" y="178" type="curve" smooth="yes"/>
      <point x="373" y="171"/>
      <point x="360" y="173"/>
    </contour>
  </outline>
</glyph>
<glyph name="threequarters" format="1">
  <advance width="837"/>
  <unicode hex="00BE"/>
  <outline>
    <contour>
      <point x="302" y="-12"/>
      <point x="315" y="-8"/>
      <point x="320" y="1" type="curve" smooth="yes"/>
      <point x="617" y="510" type="line" smooth="yes"/>
      <point x="623" y="519"/>
      <point x="619" y="532"/>
      <point x="610" y="537" type="curve" smooth="yes"/>
      <point x="601" y="543"/>
      <point x="588" y="539"/>
      <point x="583" y="530" type="curve" smooth="yes"/>
      <point x="286" y="21" type="line" smooth="yes"/>
      <point x="280" y="12"/>
      <point x="284" y="-1"/>
      <point x="293" y="-6" type="curve" smooth="yes"/>
    </contour>
    <contour>
      <point x="301" y="226"/>
      <point x="338" y="271"/>
      <point x="338" y="322" type="curve" smooth="yes"/>
      <point x="338" y="375"/>
      <point x="298" y="415"/>
      <point x="220" y="415" type="curve" smooth="yes"/>
      <point x="188" y="415"/>
      <point x="163" y="410"/>
      <point x="149" y="406" type="curve" smooth="yes"/>
      <point x="139" y="403"/>
      <point x="133" y="391"/>
      <point x="136" y="381" type="curve" smooth="yes"/>
      <point x="139" y="371"/>
      <point x="151" y="365"/>
      <point x="161" y="368" type="curve" smooth="yes"/>
      <point x="173" y="372"/>
      <point x="194" y="375"/>
      <point x="220" y="375" type="curve" smooth="yes"/>
      <point x="264" y="375"/>
      <point x="298" y="357"/>
      <point x="298" y="322" type="curve" smooth="yes"/>
      <point x="298" y="287"/>
      <point x="265" y="266"/>
      <point x="213" y="266" type="curve" smooth="yes"/>
      <point x="178" y="266"/>
      <point x="148" y="272"/>
      <point x="124" y="282" type="curve" smooth="yes"/>
      <point x="114" y="286"/>
      <point x="102" y="280"/>
      <point x="98" y="270" type="curve" smooth="yes"/>
      <point x="94" y="260"/>
      <point x="100" y="248"/>
      <point x="110" y="244" type="curve" smooth="yes"/>
      <point x="138" y="234"/>
      <point x="172" y="226"/>
      <point x="213" y="226" type="curve" smooth="yes"/>
    </contour>
    <contour>
      <point x="144" y="404" type="line" smooth="yes"/>
      <point x="136" y="397"/>
      <point x="135" y="384"/>
      <point x="142" y="376" type="curve" smooth="yes"/>
      <point x="149" y="368"/>
      <point x="162" y="367"/>
      <point x="170" y="374" type="curve" smooth="yes"/>
      <point x="316" y="501" type="line" smooth="yes"/>
      <point x="324" y="508"/>
      <point x="325" y="521"/>
      <point x="318" y="529" type="curve" smooth="yes"/>
      <point x="311" y="537"/>
      <point x="298" y="538"/>
      <point x="290" y="531" type="curve" smooth="yes"/>
    </contour>
    <contour>
      <point x="732" y="71" type="line" smooth="yes"/>
      <point x="743" y="71"/>
      <point x="752" y="80"/>
      <point x="752" y="91" type="curve" smooth="yes"/>
      <point x="752" y="102"/>
      <point x="743" y="111"/>
      <point x="732" y="111" type="curve" smooth="yes"/>
      <point x="506" y="111" type="line" smooth="yes"/>
      <point x="495" y="111"/>
      <point x="486" y="102"/>
      <point x="486" y="91" type="curve" smooth="yes"/>
      <point x="486" y="80"/>
      <point x="495" y="71"/>
      <point x="506" y="71" type="curve" smooth="yes"/>
    </contour>
    <contour>
      <point x="308" y="500" type="line" smooth="yes"/>
      <point x="319" y="500"/>
      <point x="328" y="509"/>
      <point x="328" y="520" type="curve" smooth="yes"/>
      <point x="328" y="531"/>
      <point x="319" y="540"/>
      <point x="308" y="540" type="curve" smooth="yes"/>
      <point x="128" y="540" type="line" smooth="yes"/>
      <point x="117" y="540"/>
      <point x="108" y="531"/>
      <point x="108" y="520" type="curve" smooth="yes"/>
      <point x="108" y="509"/>
      <point x="117" y="500"/>
      <point x="128" y="500" type="curve" smooth="yes"/>
    </contour>
    <contour>
      <point x="496" y="69"/>
      <point x="509" y="70"/>
      <point x="516" y="78" type="curve" smooth="yes"/>
      <point x="677" y="267" type="line" smooth="yes"/>
      <point x="684" y="275"/>
      <point x="683" y="288"/>
      <point x="675" y="295" type="curve" smooth="yes"/>
      <point x="667" y="302"/>
      <point x="654" y="301"/>
      <point x="647" y="293" type="curve" smooth="yes"/>
      <point x="486" y="104" type="line" smooth="yes"/>
      <point x="479" y="96"/>
      <point x="480" y="83"/>
      <point x="488" y="76" type="curve" smooth="yes"/>
    </contour>
    <contour>
      <point x="677" y="-8"/>
      <point x="686" y="1"/>
      <point x="686" y="12" type="curve" smooth="yes"/>
      <point x="686" y="285" type="line" smooth="yes"/>
      <point x="686" y="296"/>
      <point x="677" y="305"/>
      <point x="666" y="305" type="curve" smooth="yes"/>
      <point x="655" y="305"/>
      <point x="646" y="296"/>
      <point x="646" y="285" type="curve" smooth="yes"/>
      <point x="646" y="12" type="line" smooth="yes"/>
      <point x="646" y="1"/>
      <point x="655" y="-8"/>
      <point x="666" y="-8" type="curve" smooth="yes"/>
    </contour>
  </outline>
</glyph>
<glyph name="Aacute" format="1">
  <advance width="579"/>
  <unicode hex="00C1"/>
  <outline>
    <contour>
      <point x="298" y="516" type="curve" smooth="yes"/>
      <point x="227" y="356"/>
      <point x="128" y="131"/>
      <point x="81" y="-2" type="curve" smooth="yes"/>
      <point x="77" y="-12"/>
      <point x="66" y="-17"/>
      <point x="55" y="-14" type="curve" smooth="yes"/>
      <point x="45" y="-10"/>
      <point x="40" y="1"/>
      <point x="43" y="12" type="curve" smooth="yes"/>
      <point x="90" y="145"/>
      <point x="191" y="372"/>
      <point x="262" y="532" type="curve" smooth="yes"/>
      <point x="266" y="542"/>
      <point x="278" y="547"/>
      <point x="288" y="542" type="curve" smooth="yes"/>
      <point x="298" y="538"/>
      <point x="303" y="526"/>
    </contour>
    <contour>
      <point x="304" y="532" type="curve" smooth="yes"/>
      <point x="380" y="370"/>
      <point x="484" y="143"/>
      <point x="534" y="12" type="curve" smooth="yes"/>
      <point x="538" y="2"/>
      <point x="532" y="-10"/>
      <point x="522" y="-14" type="curve" smooth="yes"/>
      <point x="512" y="-18"/>
      <point x="500" y="-12"/>
      <point x="496" y="-2" type="curve" smooth="yes"/>
      <point x="446" y="127"/>
      <point x="344" y="354"/>
      <point x="268" y="516" type="curve" smooth="yes"/>
      <point x="263" y="525"/>
      <point x="268" y="538"/>
      <point x="278" y="542" type="curve" smooth="yes"/>
      <point x="287" y="547"/>
      <point x="300" y="542"/>
    </contour>
    <contour>
      <point x="134" y="178" type="curve" smooth="yes"/>
      <point x="440" y="178" type="line" smooth="yes"/>
      <point x="451" y="178"/>
      <point x="460" y="169"/>
      <point x="460" y="158" type="curve" smooth="yes"/>
      <point x="460" y="147"/>
      <point x="451" y="138"/>
      <point x="440" y="138" type="curve" smooth="yes"/>
      <point x="134" y="138" type="line" smooth="yes"/>
      <point x="123" y="138"/>
      <point x="114" y="147"/>
      <point x="114" y="158" type="curve" smooth="yes"/>
      <point x="114" y="169"/>
      <point x="123" y="178"/>
    </contour>
    <contour>
      <point x="414" y="726" type="curve" smooth="yes"/>
      <point x="367" y="697"/>
      <point x="316" y="666"/>
      <point x="287" y="644" type="curve" smooth="yes"/>
      <point x="278" y="637"/>
      <point x="265" y="639"/>
      <point x="259" y="648" type="curve" smooth="yes"/>
      <point x="252" y="657"/>
      <point x="254" y="670"/>
      <point x="263" y="676" type="curve" smooth="yes"/>
      <point x="294" y="698"/>
      <point x="345" y="731"/>
      <point x="394" y="760" type="curve" smooth="yes"/>
      <point x="403" y="766"/>
      <point x="416" y="763"/>
      <point x="421" y="753" type="curve" smooth="yes"/>
      <point x="427" y="744"/>
      <point x="424" y="731"/>
    </contour>
  </outline>
</glyph>
<glyph name="Ccedilla" format="1">
  <advance width="564"/>
  <unicode hex="00C7"/>
  <outline>
    <contour>
      <point x="469" y="487" type="curve" smooth="yes"/>
      <point x="437" y="505"/>
      <point x="387" y="516"/>
      <point x="336" y="516" type="curve" smooth="yes"/>
      <point x="206" y="516"/>
      <point x="95" y="416"/>
      <point x="95" y="268" type="curve" smooth="yes"/>
      <point x="95" y="132"/>
      <point x="186" y="27"/>
      <point x="342" y="27" type="curve" smooth="yes"/>
      <point x="393" y="27"/>
      <point x="438" y="38"/>
      <point x="475" y="57" type="curve" smooth="yes"/>
      <point x="484" y="62"/>
      <point x="497" y="58"/>
      <point x="502" y="48" type="curve" smooth="yes"/>
      <point x="507" y="39"/>
      <point x="503" y="26"/>
      <point x="493" y="21" type="curve" smooth="yes"/>
      <point x="452" y="0"/>
      <point x="401" y="-13"/>
      <point x="342" y="-13" type="curve" smooth="yes"/>
      <point x="160" y="-13"/>
      <point x="55" y="110"/>
      <point x="55" y="268" type="curve" smooth="yes"/>
      <point x="55" y="440"/>
      <point x="186" y="556"/>
      <point x="336" y="556" type="curve" smooth="yes"/>
      <point x="395" y="556"/>
      <point x="451" y="543"/>
      <point x="489" y="523" type="curve" smooth="yes"/>
      <point x="498" y="517"/>
      <point x="502" y="505"/>
      <point x="497" y="495" type="curve" smooth="yes"/>
      <point x="491" y="486"/>
      <point x="479" y="482"/>
    </contour>
    <contour>
      <point x="349" y="-152" type="curve" smooth="yes"/>
      <point x="320" y="-178"/>
      <point x="267" y="-231"/>
      <point x="243" y="-256" type="curve" smooth="yes"/>
      <point x="236" y="-264"/>
      <point x="223" y="-264"/>
      <point x="215" y="-256" type="curve" smooth="yes"/>
      <point x="207" y="-249"/>
      <point x="207" y="-236"/>
      <point x="215" y="-228" type="curve" smooth="yes"/>
      <point x="239" y="-203"/>
      <point x="292" y="-150"/>
      <point x="321" y="-122" type="curve" smooth="yes"/>
      <point x="329" y="-115"/>
      <point x="342" y="-115"/>
      <point x="350" y="-123" type="curve" smooth="yes"/>
      <point x="357" y="-131"/>
      <point x="357" y="-144"/>
    </contour>
  </outline>
</glyph>
<glyph name="Egrave" format="1">
  <advance width="481"/>
  <unicode hex="00C8"/>
  <outline>
    <contour>
      <point x="134" y="515" type="curve" smooth="yes"/>
      <point x="134" y="5" type="line" smooth="yes"/>
      <point x="134" y="-6"/>
      <point x="125" y="-15"/>
      <point x="114" y="-15" type="curve" smooth="yes"/>
      <point x="103" y="-15"/>
      <point x="94" y="-6"/>
      <point x="94" y="5" type="curve" smooth="yes"/>
      <point x="94" y="515" type="line" smooth="yes"/>
      <point x="94" y="526"/>
      <point x="103" y="535"/>
      <point x="114" y="535" type="curve" smooth="yes"/>
      <point x="125" y="535"/>
      <point x="134" y="526"/>
    </contour>
    <contour>
      <point x="123" y="25" type="curve" smooth="yes"/>
      <point x="407" y="25" type="line" smooth="yes"/>
      <point x="418" y="25"/>
      <point x="427" y="16"/>
      <point x="427" y="5" type="curve" smooth="yes"/>
      <point x="427" y="-6"/>
      <point x="418" y="-15"/>
      <point x="407" y="-15" type="curve" smooth="yes"/>
      <point x="123" y="-15" type="line" smooth="yes"/>
      <point x="112" y="-15"/>
      <point x="103" y="-6"/>
      <point x="103" y="5" type="curve" smooth="yes"/>
      <point x="103" y="16"/>
      <point x="112" y="25"/>
    </contour>
    <contour>
      <point x="123" y="535" type="curve" smooth="yes"/>
      <point x="405" y="535" type="line" smooth="yes"/>
      <point x="416" y="535"/>
      <point x="425" y="526"/>
      <point x="425" y="515" type="curve" smooth="yes"/>
      <point x="425" y="504"/>
      <point x="416" y="495"/>
      <point x="405" y="495" type="curve" smooth="yes"/>
      <point x="123" y="495" type="line" smooth="yes"/>
      <point x="112" y="495"/>
      <point x="103" y="504"/>
      <point x="103" y="515" type="curve" smooth="yes"/>
      <point x="103" y="526"/>
      <point x="112" y="535"/>
    </contour>
    <contour>
      <point x="123" y="299" type="curve" smooth="yes"/>
      <point x="360" y="299" type="line" smooth="yes"/>
      <point x="371" y="299"/>
      <point x="380" y="290"/>
      <point x="380" y="279" type="curve" smooth="yes"/>
      <point x="380" y="268"/>
      <point x="371" y="259"/>
      <point x="360" y="259" type="curve" smooth="yes"/>
      <point x="123" y="259" type="line" smooth="yes"/>
      <point x="112" y="259"/>
      <point x="103" y="268"/>
      <point x="103" y="279" type="curve" smooth="yes"/>
      <point x="103" y="290"/>
      <point x="112" y="299"/>
    </contour>
    <contour>
      <point x="159" y="762" type="curve" smooth="yes"/>
      <point x="197" y="740"/>
      <point x="254" y="697"/>
      <point x="283" y="675" type="curve" smooth="yes"/>
      <point x="292" y="668"/>
      <point x="293" y="656"/>
      <point x="287" y="647" type="curve" smooth="yes"/>
      <point x="280" y="638"/>
      <point x="268" y="637"/>
      <point x="259" y="643" type="curve" smooth="yes"/>
      <point x="230" y="665"/>
      <point x="177" y="706"/>
      <point x="139" y="726" type="curve" smooth="yes"/>
      <point x="130" y="732"/>
      <point x="126" y="744"/>
      <point x="131" y="754" type="curve" smooth="yes"/>
      <point x="137" y="763"/>
      <point x="149" y="767"/>
    </contour>
  </outline>
</glyph>
<glyph name="Igrave" format="1">
  <advance width="239"/>
  <unicode hex="00CC"/>
  <outline>
    <contour>
      <point x="139" y="515" type="curve" smooth="yes"/>
      <point x="139" y="5" type="line" smooth="yes"/>
      <point x="139" y="-6"/>
      <point x="130" y="-15"/>
      <point x="119" y="-15" type="curve" smooth="yes"/>
      <point x="108" y="-15"/>
      <point x="99" y="-6"/>
      <point x="99" y="5" type="curve" smooth="yes"/>
      <point x="99" y="515" type="line" smooth="yes"/>
      <point x="99" y="526"/>
      <point x="108" y="535"/>
      <point x="119" y="535" type="curve" smooth="yes"/>
      <point x="130" y="535"/>
      <point x="139" y="526"/>
    </contour>
    <contour>
      <point x="13" y="762" type="curve" smooth="yes"/>
      <point x="51" y="740"/>
      <point x="108" y="697"/>
      <point x="137" y="675" type="curve" smooth="yes"/>
      <point x="146" y="668"/>
      <point x="147" y="656"/>
      <point x="141" y="647" type="curve" smooth="yes"/>
      <point x="134" y="638"/>
      <point x="122" y="637"/>
      <point x="113" y="643" type="curve" smooth="yes"/>
      <point x="84" y="665"/>
      <point x="31" y="706"/>
      <point x="-7" y="726" type="curve" smooth="yes"/>
      <point x="-16" y="732"/>
      <point x="-20" y="744"/>
      <point x="-15" y="754" type="curve" smooth="yes"/>
      <point x="-9" y="763"/>
      <point x="3" y="767"/>
    </contour>
  </outline>
</glyph>
<glyph name="Iacute" format="1">
  <advance width="239"/>
  <unicode hex="00CD"/>
  <outline>
    <contour>
      <point x="139" y="515" type="curve" smooth="yes"/>
      <point x="139" y="5" type="line" smooth="yes"/>
      <point x="139" y="-6"/>
      <point x="130" y="-15"/>
      <point x="119" y="-15" type="curve" smooth="yes"/>
      <point x="108" y="-15"/>
      <point x="99" y="-6"/>
      <point x="99" y="5" type="curve" smooth="yes"/>
      <point x="99" y="515" type="line" smooth="yes"/>
      <point x="99" y="526"/>
      <point x="108" y="535"/>
      <point x="119" y="535" type="curve" smooth="yes"/>
      <point x="130" y="535"/>
      <point x="139" y="526"/>
    </contour>
    <contour>
      <point x="250" y="726" type="curve" smooth="yes"/>
      <point x="203" y="697"/>
      <point x="152" y="666"/>
      <point x="123" y="644" type="curve" smooth="yes"/>
      <point x="114" y="637"/>
      <point x="101" y="639"/>
      <point x="95" y="648" type="curve" smooth="yes"/>
      <point x="88" y="657"/>
      <point x="90" y="670"/>
      <point x="99" y="676" type="curve" smooth="yes"/>
      <point x="130" y="698"/>
      <point x="181" y="731"/>
      <point x="230" y="760" type="curve" smooth="yes"/>
      <point x="239" y="766"/>
      <point x="252" y="763"/>
      <point x="257" y="753" type="curve" smooth="yes"/>
      <point x="263" y="744"/>
      <point x="260" y="731"/>
    </contour>
  </outline>
</glyph>
<glyph name="Eth" format="1">
  <advance width="628"/>
  <unicode hex="00D0"/>
  <outline>
    <contour>
      <point x="311" y="250" type="line" smooth="yes"/>
      <point x="322" y="250"/>
      <point x="331" y="259"/>
      <point x="331" y="270" type="curve" smooth="yes"/>
      <point x="331" y="281"/>
      <point x="322" y="290"/>
      <point x="311" y="290" type="curve" smooth="yes"/>
      <point x="52" y="290" type="line" smooth="yes"/>
      <point x="41" y="290"/>
      <point x="32" y="281"/>
      <point x="32" y="270" type="curve" smooth="yes"/>
      <point x="32" y="259"/>
      <point x="41" y="250"/>
      <point x="52" y="250" type="curve" smooth="yes"/>
    </contour>
    <component base="D" xOffset="16"/>
  </outline>
</glyph>
<glyph name="Ntilde" format="1">
  <advance width="637"/>
  <unicode hex="00D1"/>
  <outline>
    <contour>
      <point x="134" y="515" type="curve" smooth="yes"/>
      <point x="134" y="6" type="line" smooth="yes"/>
      <point x="134" y="-5"/>
      <point x="125" y="-14"/>
      <point x="114" y="-14" type="curve" smooth="yes"/>
      <point x="103" y="-14"/>
      <point x="94" y="-5"/>
      <point x="94" y="6" type="curve" smooth="yes"/>
      <point x="94" y="515" type="line" smooth="yes"/>
      <point x="94" y="526"/>
      <point x="103" y="535"/>
      <point x="114" y="535" type="curve" smooth="yes"/>
      <point x="125" y="535"/>
      <point x="134" y="526"/>
    </contour>
    <contour>
      <point x="543" y="515" type="curve" smooth="yes"/>
      <point x="543" y="6" type="line" smooth="yes"/>
      <point x="543" y="-5"/>
      <point x="534" y="-14"/>
      <point x="523" y="-14" type="curve" smooth="yes"/>
      <point x="512" y="-14"/>
      <point x="503" y="-5"/>
      <point x="503" y="6" type="curve" smooth="yes"/>
      <point x="503" y="515" type="line" smooth="yes"/>
      <point x="503" y="526"/>
      <point x="512" y="535"/>
      <point x="523" y="535" type="curve" smooth="yes"/>
      <point x="534" y="535"/>
      <point x="543" y="526"/>
    </contour>
    <contour>
      <point x="136" y="527" type="curve" smooth="yes"/>
      <point x="215" y="422"/>
      <point x="420" y="168"/>
      <point x="532" y="18" type="curve" smooth="yes"/>
      <point x="538" y="9"/>
      <point x="537" y="-4"/>
      <point x="528" y="-10" type="curve" smooth="yes"/>
      <point x="519" y="-16"/>
      <point x="506" y="-15"/>
      <point x="500" y="-6" type="curve" smooth="yes"/>
      <point x="388" y="144"/>
      <point x="183" y="398"/>
      <point x="104" y="503" type="curve" smooth="yes"/>
      <point x="98" y="512"/>
      <point x="99" y="524"/>
      <point x="108" y="531" type="curve" smooth="yes"/>
      <point x="117" y="537"/>
      <point x="129" y="536"/>
    </contour>
    <contour>
      <point x="161" y="674" type="curve" smooth="yes"/>
      <point x="190" y="712"/>
      <point x="219" y="732"/>
      <point x="249" y="732" type="curve" smooth="yes"/>
      <point x="275" y="732"/>
      <point x="298" y="718"/>
      <point x="323" y="699" type="curve" smooth="yes"/>
      <point x="340" y="687"/>
      <point x="354" y="676"/>
      <point x="371" y="676" type="curve" smooth="yes"/>
      <point x="396" y="676"/>
      <point x="412" y="694"/>
      <point x="434" y="723" type="curve" smooth="yes"/>
      <point x="440" y="732"/>
      <point x="453" y="733"/>
      <point x="462" y="727" type="curve" smooth="yes"/>
      <point x="471" y="721"/>
      <point x="472" y="708"/>
      <point x="466" y="699" type="curve" smooth="yes"/>
      <point x="434" y="656"/>
      <point x="406" y="636"/>
      <point x="371" y="636" type="curve" smooth="yes"/>
      <point x="346" y="636"/>
      <point x="324" y="649"/>
      <point x="299" y="667" type="curve" smooth="yes"/>
      <point x="282" y="680"/>
      <point x="267" y="692"/>
      <point x="249" y="692" type="curve" smooth="yes"/>
      <point x="229" y="692"/>
      <point x="212" y="674"/>
      <point x="193" y="650" type="curve" smooth="yes"/>
      <point x="186" y="641"/>
      <point x="173" y="640"/>
      <point x="165" y="646" type="curve" smooth="yes"/>
      <point x="156" y="653"/>
      <point x="155" y="666"/>
    </contour>
  </outline>
</glyph>
<glyph name="Oacute" format="1">
  <advance width="642"/>
  <unicode hex="00D3"/>
  <outline>
    <contour>
      <point x="323" y="544" type="curve" smooth="yes"/>
      <point x="469" y="544"/>
      <point x="587" y="428"/>
      <point x="587" y="260" type="curve" smooth="yes"/>
      <point x="587" y="100"/>
      <point x="489" y="-24"/>
      <point x="323" y="-24" type="curve" smooth="yes"/>
      <point x="166" y="-24"/>
      <point x="55" y="100"/>
      <point x="55" y="257" type="curve" smooth="yes"/>
      <point x="55" y="428"/>
      <point x="164" y="544"/>
    </contour>
    <contour>
      <point x="323" y="504" type="curve" smooth="yes"/>
      <point x="186" y="504"/>
      <point x="95" y="402"/>
      <point x="95" y="257" type="curve" smooth="yes"/>
      <point x="95" y="124"/>
      <point x="188" y="16"/>
      <point x="323" y="16" type="curve" smooth="yes"/>
      <point x="465" y="16"/>
      <point x="547" y="124"/>
      <point x="547" y="260" type="curve" smooth="yes"/>
      <point x="547" y="402"/>
      <point x="449" y="504"/>
    </contour>
    <contour>
      <point x="451" y="726" type="curve" smooth="yes"/>
      <point x="403" y="697"/>
      <point x="353" y="666"/>
      <point x="324" y="644" type="curve" smooth="yes"/>
      <point x="315" y="637"/>
      <point x="302" y="639"/>
      <point x="296" y="648" type="curve" smooth="yes"/>
      <point x="289" y="657"/>
      <point x="291" y="670"/>
      <point x="300" y="676" type="curve" smooth="yes"/>
      <point x="331" y="698"/>
      <point x="381" y="731"/>
      <point x="431" y="760" type="curve" smooth="yes"/>
      <point x="440" y="766"/>
      <point x="453" y="762"/>
      <point x="458" y="753" type="curve" smooth="yes"/>
      <point x="464" y="744"/>
      <point x="460" y="731"/>
    </contour>
  </outline>
</glyph>
<glyph name="Ucircumflex" format="1">
  <advance width="617"/>
  <unicode hex="00DB"/>
  <outline>
    <contour>
      <point x="122" y="516" type="curve" smooth="yes"/>
      <point x="122" y="205" type="line" smooth="yes"/>
      <point x="122" y="85"/>
      <point x="198" y="17"/>
      <point x="306" y="17" type="curve" smooth="yes"/>
      <point x="427" y="17"/>
      <point x="495" y="85"/>
      <point x="495" y="208" type="curve" smooth="yes"/>
      <point x="495" y="516" type="line" smooth="yes"/>
      <point x="495" y="527"/>
      <point x="504" y="536"/>
      <point x="515" y="536" type="curve" smooth="yes"/>
      <point x="526" y="536"/>
      <point x="535" y="527"/>
      <point x="535" y="516" type="curve" smooth="yes"/>
      <point x="535" y="208" type="line" smooth="yes"/>
      <point x="535" y="59"/>
      <point x="453" y="-23"/>
      <point x="306" y="-23" type="curve" smooth="yes"/>
      <point x="174" y="-23"/>
      <point x="82" y="59"/>
      <point x="82" y="205" type="curve" smooth="yes"/>
      <point x="82" y="516" type="line" smooth="yes"/>
      <point x="82" y="527"/>
      <point x="91" y="536"/>
      <point x="102" y="536" type="curve" smooth="yes"/>
      <point x="113" y="536"/>
      <point x="122" y="527"/>
    </contour>
    <contour>
      <point x="309" y="694" type="curve" smooth="yes"/>
      <point x="274" y="669"/>
      <point x="237" y="644"/>
      <point x="208" y="622" type="curve" smooth="yes"/>
      <point x="199" y="616"/>
      <point x="187" y="617"/>
      <point x="180" y="626" type="curve" smooth="yes"/>
      <point x="174" y="635"/>
      <point x="175" y="647"/>
      <point x="184" y="654" type="curve" smooth="yes"/>
      <point x="213" y="676"/>
      <point x="250" y="701"/>
      <point x="285" y="726" type="curve" smooth="yes"/>
      <point x="294" y="733"/>
      <point x="307" y="730"/>
      <point x="313" y="722" type="curve" smooth="yes"/>
      <point x="320" y="713"/>
      <point x="317" y="700"/>
    </contour>
    <contour>
      <point x="393" y="622" type="curve" smooth="yes"/>
      <point x="364" y="644"/>
      <point x="328" y="669"/>
      <point x="293" y="694" type="curve" smooth="yes"/>
      <point x="284" y="700"/>
      <point x="281" y="713"/>
      <point x="288" y="721" type="curve" smooth="yes"/>
      <point x="294" y="730"/>
      <point x="307" y="733"/>
      <point x="315" y="726" type="curve" smooth="yes"/>
      <point x="352" y="701"/>
      <point x="388" y="676"/>
      <point x="417" y="654" type="curve" smooth="yes"/>
      <point x="426" y="647"/>
      <point x="427" y="635"/>
      <point x="421" y="626" type="curve" smooth="yes"/>
      <point x="414" y="617"/>
      <point x="402" y="616"/>
    </contour>
  </outline>
</glyph>
<glyph name="Thorn" format="1">
  <advance width="500"/>
  <unicode hex="00DE"/>
  <outline>
    <contour>
      <point x="134" y="520" type="curve" smooth="yes"/>
      <point x="134" y="11" type="line" smooth="yes"/>
      <point x="134" y="0"/>
      <point x="125" y="-9"/>
      <point x="114" y="-9" type="curve" smooth="yes"/>
      <point x="103" y="-9"/>
      <point x="94" y="0"/>
      <point x="94" y="11" type="curve" smooth="yes"/>
      <point x="94" y="520" type="line" smooth="yes"/>
      <point x="94" y="531"/>
      <point x="103" y="540"/>
      <point x="114" y="540" type="curve" smooth="yes"/>
      <point x="125" y="540"/>
      <point x="134" y="531"/>
    </contour>
    <contour>
      <point x="141" y="137" type="curve" smooth="yes"/>
      <point x="258" y="137" type="line" smooth="yes"/>
      <point x="361" y="137"/>
      <point x="414" y="194"/>
      <point x="414" y="267" type="curve" smooth="yes"/>
      <point x="414" y="347"/>
      <point x="350" y="401"/>
      <point x="258" y="401" type="curve" smooth="yes"/>
      <point x="126" y="401" type="line" smooth="yes"/>
      <point x="115" y="401"/>
      <point x="106" y="410"/>
      <point x="106" y="421" type="curve" smooth="yes"/>
      <point x="106" y="432"/>
      <point x="115" y="441"/>
      <point x="126" y="441" type="curve" smooth="yes"/>
      <point x="258" y="441" type="line" smooth="yes"/>
      <point x="378" y="441"/>
      <point x="454" y="367"/>
      <point x="454" y="267" type="curve" smooth="yes"/>
      <point x="454" y="176"/>
      <point x="393" y="97"/>
      <point x="258" y="97" type="curve" smooth="yes"/>
      <point x="141" y="97" type="line" smooth="yes"/>
      <point x="130" y="97"/>
      <point x="121" y="106"/>
      <point x="121" y="117" type="curve" smooth="yes"/>
      <point x="121" y="128"/>
      <point x="130" y="137"/>
    </contour>
  </outline>
</glyph>
<glyph name="atilde" format="1">
  <advance width="446"/>
  <unicode hex="00E3"/>
  <outline>
    <contour>
      <point x="110" y="371" type="curve" smooth="yes"/>
      <point x="133" y="378"/>
      <point x="177" y="388"/>
      <point x="214" y="388" type="curve" smooth="yes"/>
      <point x="323" y="388"/>
      <point x="374" y="322"/>
      <point x="374" y="225" type="curve" smooth="yes"/>
      <point x="374" y="129" type="line" smooth="yes"/>
      <point x="374" y="78"/>
      <point x="386" y="48"/>
      <point x="408" y="23" type="curve" smooth="yes"/>
      <point x="415" y="15"/>
      <point x="414" y="2"/>
      <point x="406" y="-5" type="curve" smooth="yes"/>
      <point x="398" y="-12"/>
      <point x="385" y="-11"/>
      <point x="378" y="-3" type="curve" smooth="yes"/>
      <point x="350" y="28"/>
      <point x="334" y="64"/>
      <point x="334" y="129" type="curve" smooth="yes"/>
      <point x="334" y="225" type="line" smooth="yes"/>
      <point x="334" y="298"/>
      <point x="297" y="348"/>
      <point x="214" y="348" type="curve" smooth="yes"/>
      <point x="181" y="348"/>
      <point x="143" y="340"/>
      <point x="122" y="333" type="curve" smooth="yes"/>
      <point x="112" y="330"/>
      <point x="100" y="336"/>
      <point x="97" y="346" type="curve" smooth="yes"/>
      <point x="94" y="356"/>
      <point x="100" y="368"/>
    </contour>
    <contour>
      <point x="352" y="193" type="curve" smooth="yes"/>
      <point x="318" y="194"/>
      <point x="286" y="196"/>
      <point x="256" y="196" type="curve" smooth="yes"/>
      <point x="186" y="196"/>
      <point x="139" y="180"/>
      <point x="110" y="152" type="curve" smooth="yes"/>
      <point x="92" y="135"/>
      <point x="87" y="115"/>
      <point x="87" y="94" type="curve" smooth="yes"/>
      <point x="87" y="64"/>
      <point x="112" y="29"/>
      <point x="169" y="29" type="curve" smooth="yes"/>
      <point x="239" y="29"/>
      <point x="292" y="59"/>
      <point x="338" y="121" type="curve" smooth="yes"/>
      <point x="344" y="130"/>
      <point x="357" y="132"/>
      <point x="366" y="125" type="curve" smooth="yes"/>
      <point x="375" y="119"/>
      <point x="377" y="106"/>
      <point x="370" y="97" type="curve" smooth="yes"/>
      <point x="316" y="23"/>
      <point x="253" y="-11"/>
      <point x="169" y="-11" type="curve" smooth="yes"/>
      <point x="76" y="-11"/>
      <point x="47" y="50"/>
      <point x="47" y="94" type="curve"/>
      <point x="47" y="127"/>
      <point x="56" y="155"/>
      <point x="82" y="180" type="curve" smooth="yes"/>
      <point x="117" y="214"/>
      <point x="172" y="236"/>
      <point x="256" y="236" type="curve" smooth="yes"/>
      <point x="286" y="236"/>
      <point x="318" y="234"/>
      <point x="354" y="233" type="curve" smooth="yes"/>
      <point x="364" y="233"/>
      <point x="373" y="223"/>
      <point x="373" y="212" type="curve" smooth="yes"/>
      <point x="373" y="202"/>
      <point x="363" y="193"/>
    </contour>
    <contour>
      <point x="89" y="542" type="curve" smooth="yes"/>
      <point x="115" y="580"/>
      <point x="143" y="602"/>
      <point x="169" y="602" type="curve" smooth="yes"/>
      <point x="192" y="602"/>
      <point x="207" y="591"/>
      <point x="235" y="569" type="curve" smooth="yes"/>
      <point x="251" y="557"/>
      <point x="263" y="547"/>
      <point x="278" y="547" type="curve" smooth="yes"/>
      <point x="295" y="547"/>
      <point x="306" y="566"/>
      <point x="321" y="588" type="curve" smooth="yes"/>
      <point x="327" y="597"/>
      <point x="340" y="600"/>
      <point x="349" y="594" type="curve" smooth="yes"/>
      <point x="358" y="588"/>
      <point x="361" y="575"/>
      <point x="355" y="566" type="curve" smooth="yes"/>
      <point x="328" y="526"/>
      <point x="305" y="507"/>
      <point x="278" y="507" type="curve" smooth="yes"/>
      <point x="257" y="507"/>
      <point x="237" y="519"/>
      <point x="211" y="537" type="curve" smooth="yes"/>
      <point x="193" y="551"/>
      <point x="184" y="562"/>
      <point x="169" y="562" type="curve" smooth="yes"/>
      <point x="153" y="562"/>
      <point x="137" y="542"/>
      <point x="123" y="520" type="curve" smooth="yes"/>
      <point x="117" y="511"/>
      <point x="104" y="508"/>
      <point x="95" y="514" type="curve" smooth="yes"/>
      <point x="86" y="520"/>
      <point x="83" y="533"/>
    </contour>
  </outline>
</glyph>
<glyph name="aring" format="1">
  <advance width="446"/>
  <unicode hex="00E5"/>
  <outline>
    <contour>
      <point x="329" y="461" type="curve" smooth="yes"/>
      <point x="329" y="409"/>
      <point x="289" y="359"/>
      <point x="218" y="359" type="curve" smooth="yes"/>
      <point x="150" y="359"/>
      <point x="110" y="412"/>
      <point x="110" y="461" type="curve" smooth="yes"/>
      <point x="110" y="510"/>
      <point x="150" y="563"/>
      <point x="218" y="563" type="curve" smooth="yes"/>
      <point x="289" y="563"/>
      <point x="329" y="513"/>
    </contour>
    <contour>
      <point x="110" y="372" type="curve" smooth="yes"/>
      <point x="133" y="379"/>
      <point x="177" y="389"/>
      <point x="214" y="389" type="curve" smooth="yes"/>
      <point x="323" y="389"/>
      <point x="374" y="323"/>
      <point x="374" y="226" type="curve" smooth="yes"/>
      <point x="374" y="130" type="line" smooth="yes"/>
      <point x="374" y="79"/>
      <point x="386" y="49"/>
      <point x="408" y="24" type="curve" smooth="yes"/>
      <point x="415" y="16"/>
      <point x="414" y="3"/>
      <point x="406" y="-4" type="curve" smooth="yes"/>
      <point x="398" y="-11"/>
      <point x="385" y="-10"/>
      <point x="378" y="-2" type="curve" smooth="yes"/>
      <point x="350" y="29"/>
      <point x="334" y="65"/>
      <point x="334" y="130" type="curve" smooth="yes"/>
      <point x="334" y="226" type="line" smooth="yes"/>
      <point x="334" y="299"/>
      <point x="297" y="349"/>
      <point x="214" y="349" type="curve" smooth="yes"/>
      <point x="181" y="349"/>
      <point x="143" y="341"/>
      <point x="122" y="334" type="curve" smooth="yes"/>
      <point x="112" y="331"/>
      <point x="100" y="337"/>
      <point x="97" y="347" type="curve" smooth="yes"/>
      <point x="94" y="357"/>
      <point x="100" y="369"/>
    </contour>
    <contour>
      <point x="352" y="194" type="curve" smooth="yes"/>
      <point x="318" y="195"/>
      <point x="286" y="197"/>
      <point x="256" y="197" type="curve" smooth="yes"/>
      <point x="186" y="197"/>
      <point x="139" y="181"/>
      <point x="110" y="153" type="curve" smooth="yes"/>
      <point x="92" y="136"/>
      <point x="87" y="116"/>
      <point x="87" y="95" type="curve" smooth="yes"/>
      <point x="87" y="65"/>
      <point x="112" y="30"/>
      <point x="169" y="30" type="curve" smooth="yes"/>
      <point x="239" y="30"/>
      <point x="292" y="60"/>
      <point x="338" y="122" type="curve" smooth="yes"/>
      <point x="344" y="131"/>
      <point x="357" y="133"/>
      <point x="366" y="126" type="curve" smooth="yes"/>
      <point x="375" y="120"/>
      <point x="377" y="107"/>
      <point x="370" y="98" type="curve" smooth="yes"/>
      <point x="316" y="24"/>
      <point x="253" y="-10"/>
      <point x="169" y="-10" type="curve" smooth="yes"/>
      <point x="76" y="-10"/>
      <point x="47" y="51"/>
      <point x="47" y="95" type="curve"/>
      <point x="47" y="128"/>
      <point x="56" y="156"/>
      <point x="82" y="181" type="curve" smooth="yes"/>
      <point x="117" y="215"/>
      <point x="172" y="237"/>
      <point x="256" y="237" type="curve" smooth="yes"/>
      <point x="286" y="237"/>
      <point x="318" y="235"/>
      <point x="354" y="234" type="curve" smooth="yes"/>
      <point x="364" y="234"/>
      <point x="373" y="224"/>
      <point x="373" y="213" type="curve" smooth="yes"/>
      <point x="373" y="203"/>
      <point x="363" y="194"/>
    </contour>
    <contour>
      <point x="289" y="461" type="curve" smooth="yes"/>
      <point x="289" y="495"/>
      <point x="261" y="523"/>
      <point x="218" y="523" type="curve" smooth="yes"/>
      <point x="176" y="523"/>
      <point x="150" y="492"/>
      <point x="150" y="461" type="curve" smooth="yes"/>
      <point x="150" y="430"/>
      <point x="176" y="399"/>
      <point x="218" y="399" type="curve" smooth="yes"/>
      <point x="261" y="399"/>
      <point x="289" y="427"/>
    </contour>
  </outline>
</glyph>
<glyph name="ograve" format="1">
  <advance width="510"/>
  <unicode hex="00F2"/>
  <outline>
    <contour>
      <point x="254" y="392" type="curve" smooth="yes"/>
      <point x="379" y="392"/>
      <point x="457" y="298"/>
      <point x="457" y="183" type="curve" smooth="yes"/>
      <point x="457" y="71"/>
      <point x="379" y="-15"/>
      <point x="254" y="-15" type="curve" smooth="yes"/>
      <point x="131" y="-15"/>
      <point x="52" y="72"/>
      <point x="52" y="185" type="curve"/>
      <point x="52" y="298"/>
      <point x="129" y="392"/>
    </contour>
    <contour>
      <point x="254" y="352" type="curve" smooth="yes"/>
      <point x="153" y="352"/>
      <point x="92" y="276"/>
      <point x="92" y="185" type="curve" smooth="yes"/>
      <point x="92" y="94"/>
      <point x="155" y="25"/>
      <point x="254" y="25" type="curve" smooth="yes"/>
      <point x="353" y="25"/>
      <point x="417" y="93"/>
      <point x="417" y="183" type="curve" smooth="yes"/>
      <point x="417" y="276"/>
      <point x="355" y="352"/>
    </contour>
    <contour>
      <point x="184" y="623" type="curve" smooth="yes"/>
      <point x="213" y="586"/>
      <point x="230" y="564"/>
      <point x="258" y="522" type="curve" smooth="yes"/>
      <point x="264" y="513"/>
      <point x="261" y="500"/>
      <point x="252" y="494" type="curve" smooth="yes"/>
      <point x="243" y="488"/>
      <point x="230" y="491"/>
      <point x="224" y="500" type="curve" smooth="yes"/>
      <point x="198" y="540"/>
      <point x="181" y="562"/>
      <point x="152" y="597" type="curve" smooth="yes"/>
      <point x="146" y="606"/>
      <point x="147" y="619"/>
      <point x="155" y="626" type="curve" smooth="yes"/>
      <point x="164" y="632"/>
      <point x="177" y="631"/>
    </contour>
  </outline>
</glyph>
<glyph name="otilde" format="1">
  <advance width="510"/>
  <unicode hex="00F5"/>
  <outline>
    <contour>
      <point x="254" y="393" type="curve" smooth="yes"/>
      <point x="379" y="393"/>
      <point x="457" y="299"/>
      <point x="457" y="184" type="curve" smooth="yes"/>
      <point x="457" y="72"/>
      <point x="379" y="-15"/>
      <point x="254" y="-15" type="curve" smooth="yes"/>
      <point x="131" y="-15"/>
      <point x="52" y="73"/>
      <point x="52" y="186" type="curve"/>
      <point x="52" y="299"/>
      <point x="129" y="393"/>
    </contour>
    <contour>
      <point x="254" y="353" type="curve" smooth="yes"/>
      <point x="153" y="353"/>
      <point x="92" y="277"/>
      <point x="92" y="186" type="curve" smooth="yes"/>
      <point x="92" y="95"/>
      <point x="155" y="25"/>
      <point x="254" y="25" type="curve" smooth="yes"/>
      <point x="353" y="25"/>
      <point x="417" y="94"/>
      <point x="417" y="184" type="curve" smooth="yes"/>
      <point x="417" y="277"/>
      <point x="355" y="353"/>
    </contour>
    <contour>
      <point x="125" y="542" type="curve" smooth="yes"/>
      <point x="151" y="580"/>
      <point x="179" y="602"/>
      <point x="205" y="602" type="curve" smooth="yes"/>
      <point x="228" y="602"/>
      <point x="244" y="591"/>
      <point x="272" y="569" type="curve" smooth="yes"/>
      <point x="288" y="558"/>
      <point x="300" y="547"/>
      <point x="314" y="547" type="curve" smooth="yes"/>
      <point x="331" y="547"/>
      <point x="342" y="566"/>
      <point x="357" y="589" type="curve" smooth="yes"/>
      <point x="363" y="598"/>
      <point x="376" y="601"/>
      <point x="385" y="595" type="curve" smooth="yes"/>
      <point x="394" y="589"/>
      <point x="397" y="576"/>
      <point x="391" y="567" type="curve" smooth="yes"/>
      <point x="364" y="526"/>
      <point x="341" y="507"/>
      <point x="314" y="507" type="curve" smooth="yes"/>
      <point x="292" y="507"/>
      <point x="274" y="518"/>
      <point x="248" y="537" type="curve" smooth="yes"/>
      <point x="230" y="551"/>
      <point x="220" y="562"/>
      <point x="205" y="562" type="curve" smooth="yes"/>
      <point x="189" y="562"/>
      <point x="173" y="542"/>
      <point x="159" y="520" type="curve" smooth="yes"/>
      <point x="153" y="511"/>
      <point x="140" y="508"/>
      <point x="131" y="514" type="curve" smooth="yes"/>
      <point x="122" y="520"/>
      <point x="119" y="533"/>
    </contour>
  </outline>
</glyph>
<glyph name="odieresis" format="1">
  <advance width="510"/>
  <unicode hex="00F6"/>
  <outline>
    <contour>
      <point x="254" y="393" type="curve" smooth="yes"/>
      <point x="379" y="393"/>
      <point x="457" y="299"/>
      <point x="457" y="184" type="curve" smooth="yes"/>
      <point x="457" y="72"/>
      <point x="379" y="-15"/>
      <point x="254" y="-15" type="curve" smooth="yes"/>
      <point x="131" y="-15"/>
      <point x="52" y="73"/>
      <point x="52" y="186" type="curve"/>
      <point x="52" y="299"/>
      <point x="129" y="393"/>
    </contour>
    <contour>
      <point x="158" y="601" type="curve" smooth="yes"/>
      <point x="175" y="601"/>
      <point x="195" y="583"/>
      <point x="195" y="553" type="curve" smooth="yes"/>
      <point x="195" y="525"/>
      <point x="176" y="508"/>
      <point x="158" y="508" type="curve" smooth="yes"/>
      <point x="136" y="508"/>
      <point x="120" y="526"/>
      <point x="120" y="553" type="curve" smooth="yes"/>
      <point x="120" y="583"/>
      <point x="137" y="601"/>
    </contour>
    <contour>
      <point x="345" y="601" type="curve" smooth="yes"/>
      <point x="362" y="601"/>
      <point x="381" y="585"/>
      <point x="381" y="553" type="curve" smooth="yes"/>
      <point x="381" y="524"/>
      <point x="363" y="508"/>
      <point x="345" y="508" type="curve" smooth="yes"/>
      <point x="323" y="508"/>
      <point x="307" y="526"/>
      <point x="307" y="553" type="curve" smooth="yes"/>
      <point x="307" y="583"/>
      <point x="324" y="601"/>
    </contour>
    <contour>
      <point x="254" y="353" type="curve" smooth="yes"/>
      <point x="153" y="353"/>
      <point x="92" y="277"/>
      <point x="92" y="186" type="curve" smooth="yes"/>
      <point x="92" y="95"/>
      <point x="155" y="25"/>
      <point x="254" y="25" type="curve" smooth="yes"/>
      <point x="353" y="25"/>
      <point x="417" y="94"/>
      <point x="417" y="184" type="curve" smooth="yes"/>
      <point x="417" y="277"/>
      <point x="355" y="353"/>
    </contour>
  </outline>
</glyph>
<glyph name="oslash" format="1">
  <advance width="515"/>
  <unicode hex="00F8"/>
  <outline>
    <contour>
      <point x="71" y="-8"/>
      <point x="84" y="-8"/>
      <point x="91" y="0" type="curve" smooth="yes"/>
      <point x="449" y="360" type="line" smooth="yes"/>
      <point x="457" y="368"/>
      <point x="457" y="381"/>
      <point x="449" y="388" type="curve" smooth="yes"/>
      <point x="441" y="396"/>
      <point x="428" y="396"/>
      <point x="421" y="388" type="curve" smooth="yes"/>
      <point x="63" y="28" type="line" smooth="yes"/>
      <point x="55" y="20"/>
      <point x="55" y="7"/>
      <point x="63" y="0" type="curve" smooth="yes"/>
    </contour>
    <component base="o"/>
  </outline>
</glyph>
<glyph name="ugrave" format="1">
  <advance width="492"/>
  <unicode hex="00F9"/>
  <outline>
    <contour>
      <point x="411" y="368" type="curve" smooth="yes"/>
      <point x="411" y="9" type="line" smooth="yes"/>
      <point x="411" y="-2"/>
      <point x="402" y="-11"/>
      <point x="391" y="-11" type="curve" smooth="yes"/>
      <point x="380" y="-11"/>
      <point x="371" y="-2"/>
      <point x="371" y="9" type="curve" smooth="yes"/>
      <point x="371" y="368" type="line" smooth="yes"/>
      <point x="371" y="379"/>
      <point x="380" y="388"/>
      <point x="391" y="388" type="curve" smooth="yes"/>
      <point x="402" y="388"/>
      <point x="411" y="379"/>
    </contour>
    <contour>
      <point x="110" y="368" type="curve" smooth="yes"/>
      <point x="110" y="158" type="line" smooth="yes"/>
      <point x="110" y="67"/>
      <point x="149" y="29"/>
      <point x="208" y="29" type="curve" smooth="yes"/>
      <point x="269" y="29"/>
      <point x="331" y="77"/>
      <point x="371" y="133" type="curve" smooth="yes"/>
      <point x="377" y="141"/>
      <point x="390" y="144"/>
      <point x="399" y="137" type="curve" smooth="yes"/>
      <point x="407" y="131"/>
      <point x="410" y="118"/>
      <point x="403" y="109" type="curve" smooth="yes"/>
      <point x="355" y="43"/>
      <point x="279" y="-11"/>
      <point x="208" y="-11" type="curve" smooth="yes"/>
      <point x="131" y="-11"/>
      <point x="70" y="29"/>
      <point x="70" y="158" type="curve" smooth="yes"/>
      <point x="70" y="368" type="line" smooth="yes"/>
      <point x="70" y="379"/>
      <point x="79" y="388"/>
      <point x="90" y="388" type="curve" smooth="yes"/>
      <point x="101" y="388"/>
      <point x="110" y="379"/>
    </contour>
    <contour>
      <point x="172" y="623" type="curve" smooth="yes"/>
      <point x="201" y="586"/>
      <point x="218" y="564"/>
      <point x="246" y="522" type="curve" smooth="yes"/>
      <point x="252" y="513"/>
      <point x="249" y="500"/>
      <point x="240" y="494" type="curve" smooth="yes"/>
      <point x="231" y="488"/>
      <point x="218" y="491"/>
      <point x="212" y="500" type="curve" smooth="yes"/>
      <point x="186" y="540"/>
      <point x="169" y="562"/>
      <point x="140" y="597" type="curve" smooth="yes"/>
      <point x="134" y="606"/>
      <point x="135" y="619"/>
      <point x="143" y="626" type="curve" smooth="yes"/>
      <point x="152" y="632"/>
      <point x="165" y="631"/>
    </contour>
  </outline>
</glyph>
<glyph name="uacute" format="1">
  <advance width="492"/>
  <unicode hex="00FA"/>
  <outline>
    <contour>
      <point x="411" y="368" type="curve" smooth="yes"/>
      <point x="411" y="9" type="line" smooth="yes"/>
      <point x="411" y="-2"/>
      <point x="402" y="-11"/>
      <point x="391" y="-11" type="curve" smooth="yes"/>
      <point x="380" y="-11"/>
      <point x="371" y="-2"/>
      <point x="371" y="9" type="curve" smooth="yes"/>
      <point x="371" y="368" type="line" smooth="yes"/>
      <point x="371" y="379"/>
      <point x="380" y="388"/>
      <point x="391" y="388" type="curve" smooth="yes"/>
      <point x="402" y="388"/>
      <point x="411" y="379"/>
    </contour>
    <contour>
      <point x="110" y="368" type="curve" smooth="yes"/>
      <point x="110" y="158" type="line" smooth="yes"/>
      <point x="110" y="67"/>
      <point x="149" y="29"/>
      <point x="208" y="29" type="curve" smooth="yes"/>
      <point x="269" y="29"/>
      <point x="331" y="77"/>
      <point x="371" y="133" type="curve" smooth="yes"/>
      <point x="377" y="141"/>
      <point x="390" y="144"/>
      <point x="399" y="137" type="curve" smooth="yes"/>
      <point x="407" y="131"/>
      <point x="410" y="118"/>
      <point x="403" y="109" type="curve" smooth="yes"/>
      <point x="355" y="43"/>
      <point x="279" y="-11"/>
      <point x="208" y="-11" type="curve" smooth="yes"/>
      <point x="131" y="-11"/>
      <point x="70" y="29"/>
      <point x="70" y="158" type="curve" smooth="yes"/>
      <point x="70" y="368" type="line" smooth="yes"/>
      <point x="70" y="379"/>
      <point x="79" y="388"/>
      <point x="90" y="388" type="curve" smooth="yes"/>
      <point x="101" y="388"/>
      <point x="110" y="379"/>
    </contour>
    <contour>
      <point x="335" y="598" type="curve" smooth="yes"/>
      <point x="306" y="566"/>
      <point x="277" y="532"/>
      <point x="250" y="500" type="curve" smooth="yes"/>
      <point x="243" y="492"/>
      <point x="230" y="491"/>
      <point x="222" y="498" type="curve" smooth="yes"/>
      <point x="214" y="505"/>
      <point x="213" y="518"/>
      <point x="220" y="526" type="curve" smooth="yes"/>
      <point x="247" y="558"/>
      <point x="276" y="592"/>
      <point x="305" y="624" type="curve" smooth="yes"/>
      <point x="312" y="632"/>
      <point x="325" y="633"/>
      <point x="333" y="626" type="curve" smooth="yes"/>
      <point x="341" y="619"/>
      <point x="342" y="606"/>
    </contour>
  </outline>
</glyph>
<glyph name="udieresis" format="1">
  <advance width="492"/>
  <unicode hex="00FC"/>
  <outline>
    <contour>
      <point x="143" y="601" type="curve" smooth="yes"/>
      <point x="160" y="601"/>
      <point x="179" y="585"/>
      <point x="179" y="553" type="curve" smooth="yes"/>
      <point x="179" y="524"/>
      <point x="161" y="508"/>
      <point x="143" y="508" type="curve" smooth="yes"/>
      <point x="121" y="508"/>
      <point x="105" y="526"/>
      <point x="105" y="553" type="curve" smooth="yes"/>
      <point x="105" y="583"/>
      <point x="122" y="601"/>
    </contour>
    <contour>
      <point x="329" y="601" type="curve" smooth="yes"/>
      <point x="348" y="601"/>
      <point x="366" y="583"/>
      <point x="366" y="553" type="curve" smooth="yes"/>
      <point x="366" y="525"/>
      <point x="349" y="508"/>
      <point x="329" y="508" type="curve" smooth="yes"/>
      <point x="309" y="508"/>
      <point x="292" y="525"/>
      <point x="292" y="553" type="curve" smooth="yes"/>
      <point x="292" y="583"/>
      <point x="310" y="601"/>
    </contour>
    <contour>
      <point x="411" y="369" type="curve" smooth="yes"/>
      <point x="411" y="9" type="line" smooth="yes"/>
      <point x="411" y="-2"/>
      <point x="402" y="-11"/>
      <point x="391" y="-11" type="curve" smooth="yes"/>
      <point x="380" y="-11"/>
      <point x="371" y="-2"/>
      <point x="371" y="9" type="curve" smooth="yes"/>
      <point x="371" y="369" type="line" smooth="yes"/>
      <point x="371" y="380"/>
      <point x="380" y="389"/>
      <point x="391" y="389" type="curve" smooth="yes"/>
      <point x="402" y="389"/>
      <point x="411" y="380"/>
    </contour>
    <contour>
      <point x="110" y="369" type="curve" smooth="yes"/>
      <point x="110" y="159" type="line" smooth="yes"/>
      <point x="110" y="67"/>
      <point x="149" y="29"/>
      <point x="208" y="29" type="curve" smooth="yes"/>
      <point x="269" y="29"/>
      <point x="331" y="78"/>
      <point x="371" y="134" type="curve" smooth="yes"/>
      <point x="377" y="142"/>
      <point x="390" y="145"/>
      <point x="399" y="138" type="curve" smooth="yes"/>
      <point x="407" y="132"/>
      <point x="410" y="119"/>
      <point x="403" y="110" type="curve" smooth="yes"/>
      <point x="355" y="44"/>
      <point x="279" y="-11"/>
      <point x="208" y="-11" type="curve" smooth="yes"/>
      <point x="131" y="-11"/>
      <point x="70" y="29"/>
      <point x="70" y="159" type="curve" smooth="yes"/>
      <point x="70" y="369" type="line" smooth="yes"/>
      <point x="70" y="380"/>
      <point x="79" y="389"/>
      <point x="90" y="389" type="curve" smooth="yes"/>
      <point x="101" y="389"/>
      <point x="110" y="380"/>
    </contour>
  </outline>
</glyph>
<glyph name="amacron" format="1">
  <advance width="446"/>
  <unicode hex="0101"/>
  <outline>
    <contour>
      <point x="109" y="371" type="curve" smooth="yes"/>
      <point x="133" y="379"/>
      <point x="177" y="389"/>
      <point x="214" y="389" type="curve" smooth="yes"/>
      <point x="323" y="389"/>
      <point x="374" y="322"/>
      <point x="374" y="225" type="curve" smooth="yes"/>
      <point x="374" y="130" type="line" smooth="yes"/>
      <point x="374" y="79"/>
      <point x="386" y="49"/>
      <point x="408" y="24" type="curve" smooth="yes"/>
      <point x="415" y="16"/>
      <point x="414" y="3"/>
      <point x="406" y="-4" type="curve" smooth="yes"/>
      <point x="398" y="-11"/>
      <point x="385" y="-10"/>
      <point x="378" y="-2" type="curve" smooth="yes"/>
      <point x="350" y="29"/>
      <point x="334" y="65"/>
      <point x="334" y="130" type="curve" smooth="yes"/>
      <point x="334" y="225" type="line" smooth="yes"/>
      <point x="334" y="298"/>
      <point x="297" y="349"/>
      <point x="214" y="349" type="curve" smooth="yes"/>
      <point x="181" y="349"/>
      <point x="143" y="341"/>
      <point x="123" y="333" type="curve" smooth="yes"/>
      <point x="113" y="330"/>
      <point x="101" y="335"/>
      <point x="97" y="345" type="curve" smooth="yes"/>
      <point x="94" y="355"/>
      <point x="99" y="367"/>
    </contour>
    <contour>
      <point x="352" y="194" type="curve" smooth="yes"/>
      <point x="318" y="195"/>
      <point x="286" y="197"/>
      <point x="256" y="197" type="curve" smooth="yes"/>
      <point x="186" y="197"/>
      <point x="139" y="181"/>
      <point x="110" y="153" type="curve" smooth="yes"/>
      <point x="92" y="136"/>
      <point x="87" y="116"/>
      <point x="87" y="95" type="curve" smooth="yes"/>
      <point x="87" y="64"/>
      <point x="112" y="30"/>
      <point x="169" y="30" type="curve" smooth="yes"/>
      <point x="239" y="30"/>
      <point x="292" y="60"/>
      <point x="338" y="122" type="curve" smooth="yes"/>
      <point x="344" y="131"/>
      <point x="357" y="133"/>
      <point x="366" y="126" type="curve" smooth="yes"/>
      <point x="375" y="120"/>
      <point x="377" y="107"/>
      <point x="370" y="98" type="curve" smooth="yes"/>
      <point x="316" y="24"/>
      <point x="253" y="-10"/>
      <point x="169" y="-10" type="curve" smooth="yes"/>
      <point x="76" y="-10"/>
      <point x="47" y="50"/>
      <point x="47" y="95" type="curve"/>
      <point x="47" y="126"/>
      <point x="56" y="156"/>
      <point x="82" y="181" type="curve" smooth="yes"/>
      <point x="117" y="215"/>
      <point x="172" y="237"/>
      <point x="256" y="237" type="curve" smooth="yes"/>
      <point x="286" y="237"/>
      <point x="318" y="235"/>
      <point x="354" y="234" type="curve" smooth="yes"/>
      <point x="364" y="234"/>
      <point x="373" y="224"/>
      <point x="373" y="213" type="curve" smooth="yes"/>
      <point x="373" y="203"/>
      <point x="363" y="194"/>
    </contour>
    <contour>
      <point x="318" y="530" type="curve" smooth="yes"/>
      <point x="107" y="530" type="line" smooth="yes"/>
      <point x="96" y="530"/>
      <point x="87" y="539"/>
      <point x="87" y="550" type="curve" smooth="yes"/>
      <point x="87" y="561"/>
      <point x="96" y="570"/>
      <point x="107" y="570" type="curve" smooth="yes"/>
      <point x="318" y="570" type="line" smooth="yes"/>
      <point x="329" y="570"/>
      <point x="338" y="561"/>
      <point x="338" y="550" type="curve" smooth="yes"/>
      <point x="338" y="539"/>
      <point x="329" y="530"/>
    </contour>
  </outline>
</glyph>
<glyph name="Abreve" format="1">
  <advance width="579"/>
  <unicode hex="0102"/>
  <outline>
    <contour>
      <point x="298" y="516" type="curve" smooth="yes"/>
      <point x="227" y="355"/>
      <point x="128" y="131"/>
      <point x="81" y="-2" type="curve" smooth="yes"/>
      <point x="77" y="-12"/>
      <point x="66" y="-17"/>
      <point x="55" y="-14" type="curve" smooth="yes"/>
      <point x="45" y="-10"/>
      <point x="40" y="1"/>
      <point x="43" y="12" type="curve" smooth="yes"/>
      <point x="90" y="145"/>
      <point x="191" y="371"/>
      <point x="262" y="532" type="curve" smooth="yes"/>
      <point x="266" y="542"/>
      <point x="278" y="547"/>
      <point x="288" y="542" type="curve" smooth="yes"/>
      <point x="298" y="538"/>
      <point x="303" y="526"/>
    </contour>
    <contour>
      <point x="304" y="532" type="curve" smooth="yes"/>
      <point x="380" y="370"/>
      <point x="484" y="143"/>
      <point x="534" y="12" type="curve" smooth="yes"/>
      <point x="538" y="2"/>
      <point x="532" y="-10"/>
      <point x="522" y="-14" type="curve" smooth="yes"/>
      <point x="512" y="-18"/>
      <point x="500" y="-12"/>
      <point x="496" y="-2" type="curve" smooth="yes"/>
      <point x="446" y="127"/>
      <point x="344" y="354"/>
      <point x="268" y="516" type="curve" smooth="yes"/>
      <point x="263" y="525"/>
      <point x="268" y="538"/>
      <point x="278" y="542" type="curve" smooth="yes"/>
      <point x="287" y="547"/>
      <point x="300" y="542"/>
    </contour>
    <contour>
      <point x="134" y="178" type="curve" smooth="yes"/>
      <point x="440" y="178" type="line" smooth="yes"/>
      <point x="451" y="178"/>
      <point x="460" y="169"/>
      <point x="460" y="158" type="curve" smooth="yes"/>
      <point x="460" y="147"/>
      <point x="451" y="138"/>
      <point x="440" y="138" type="curve" smooth="yes"/>
      <point x="134" y="138" type="line" smooth="yes"/>
      <point x="123" y="138"/>
      <point x="114" y="147"/>
      <point x="114" y="158" type="curve" smooth="yes"/>
      <point x="114" y="169"/>
      <point x="123" y="178"/>
    </contour>
    <contour>
      <point x="166" y="759" type="curve" smooth="yes"/>
      <point x="192" y="725"/>
      <point x="231" y="701"/>
      <point x="275" y="701" type="curve" smooth="yes"/>
      <point x="323" y="701"/>
      <point x="356" y="724"/>
      <point x="381" y="758" type="curve" smooth="yes"/>
      <point x="387" y="767"/>
      <point x="400" y="770"/>
      <point x="408" y="763" type="curve" smooth="yes"/>
      <point x="417" y="757"/>
      <point x="420" y="744"/>
      <point x="413" y="736" type="curve" smooth="yes"/>
      <point x="382" y="690"/>
      <point x="337" y="661"/>
      <point x="275" y="661" type="curve" smooth="yes"/>
      <point x="219" y="661"/>
      <point x="168" y="691"/>
      <point x="134" y="735" type="curve" smooth="yes"/>
      <point x="128" y="743"/>
      <point x="129" y="756"/>
      <point x="138" y="763" type="curve" smooth="yes"/>
      <point x="146" y="769"/>
      <point x="159" y="768"/>
    </contour>
  </outline>
</glyph>
<glyph name="Aogonek" format="1">
  <advance width="590"/>
  <unicode hex="0104"/>
  <outline>
    <contour>
      <point x="298" y="527" type="curve" smooth="yes"/>
      <point x="227" y="366"/>
      <point x="128" y="141"/>
      <point x="81" y="9" type="curve" smooth="yes"/>
      <point x="77" y="-1"/>
      <point x="65" y="-6"/>
      <point x="55" y="-3" type="curve" smooth="yes"/>
      <point x="45" y="1"/>
      <point x="40" y="13"/>
      <point x="43" y="23" type="curve" smooth="yes"/>
      <point x="90" y="155"/>
      <point x="191" y="382"/>
      <point x="262" y="543" type="curve" smooth="yes"/>
      <point x="266" y="553"/>
      <point x="278" y="558"/>
      <point x="288" y="553" type="curve" smooth="yes"/>
      <point x="298" y="549"/>
      <point x="303" y="537"/>
    </contour>
    <contour>
      <point x="304" y="543" type="curve" smooth="yes"/>
      <point x="380" y="381"/>
      <point x="484" y="153"/>
      <point x="534" y="23" type="curve" smooth="yes"/>
      <point x="538" y="13"/>
      <point x="532" y="1"/>
      <point x="522" y="-3" type="curve" smooth="yes"/>
      <point x="512" y="-7"/>
      <point x="500" y="-1"/>
      <point x="496" y="9" type="curve" smooth="yes"/>
      <point x="446" y="137"/>
      <point x="344" y="365"/>
      <point x="268" y="527" type="curve" smooth="yes"/>
      <point x="263" y="536"/>
      <point x="268" y="549"/>
      <point x="278" y="553" type="curve" smooth="yes"/>
      <point x="287" y="558"/>
      <point x="300" y="553"/>
    </contour>
    <contour>
      <point x="134" y="188" type="curve" smooth="yes"/>
      <point x="440" y="188" type="line" smooth="yes"/>
      <point x="451" y="188"/>
      <point x="460" y="179"/>
      <point x="460" y="168" type="curve" smooth="yes"/>
      <point x="460" y="157"/>
      <point x="451" y="148"/>
      <point x="440" y="148" type="curve" smooth="yes"/>
      <point x="134" y="148" type="line" smooth="yes"/>
      <point x="123" y="148"/>
      <point x="114" y="157"/>
      <point x="114" y="168" type="curve" smooth="yes"/>
      <point x="114" y="179"/>
      <point x="123" y="188"/>
    </contour>
    <contour>
      <point x="530" y="16" type="curve" smooth="yes"/>
      <point x="530" y="-21" type="line" smooth="yes"/>
      <point x="530" y="-26"/>
      <point x="527" y="-33"/>
      <point x="523" y="-37" type="curve" smooth="yes"/>
      <point x="443" y="-101"/>
      <point x="422" y="-127"/>
      <point x="422" y="-152" type="curve" smooth="yes"/>
      <point x="422" y="-183"/>
      <point x="470" y="-195"/>
      <point x="526" y="-195" type="curve" smooth="yes"/>
      <point x="537" y="-195"/>
      <point x="546" y="-204"/>
      <point x="546" y="-215" type="curve" smooth="yes"/>
      <point x="546" y="-226"/>
      <point x="537" y="-235"/>
      <point x="526" y="-235" type="curve" smooth="yes"/>
      <point x="418" y="-235"/>
      <point x="382" y="-195"/>
      <point x="382" y="-152" type="curve" smooth="yes"/>
      <point x="382" y="-121"/>
      <point x="397" y="-87"/>
      <point x="497" y="-5" type="curve"/>
      <point x="490" y="-21" type="line"/>
      <point x="490" y="16" type="line" smooth="yes"/>
      <point x="490" y="27"/>
      <point x="499" y="36"/>
      <point x="510" y="36" type="curve" smooth="yes"/>
      <point x="521" y="36"/>
      <point x="530" y="27"/>
    </contour>
  </outline>
</glyph>
<glyph name="Dcaron" format="1">
  <advance width="613"/>
  <unicode hex="010E"/>
  <outline>
    <contour>
      <point x="299" y="-15" type="curve" smooth="yes"/>
      <point x="114" y="-15" type="line" smooth="yes"/>
      <point x="103" y="-15"/>
      <point x="94" y="-6"/>
      <point x="94" y="5" type="curve" smooth="yes"/>
      <point x="94" y="515" type="line" smooth="yes"/>
      <point x="94" y="526"/>
      <point x="103" y="535"/>
      <point x="114" y="535" type="curve" smooth="yes"/>
      <point x="299" y="535" type="line" smooth="yes"/>
      <point x="435" y="535"/>
      <point x="557" y="423"/>
      <point x="557" y="261" type="curve" smooth="yes"/>
      <point x="557" y="107"/>
      <point x="455" y="-15"/>
    </contour>
    <contour>
      <point x="299" y="25" type="line" smooth="yes"/>
      <point x="433" y="25"/>
      <point x="517" y="131"/>
      <point x="517" y="261" type="curve" smooth="yes"/>
      <point x="517" y="397"/>
      <point x="415" y="495"/>
      <point x="299" y="495" type="curve" smooth="yes"/>
      <point x="114" y="495" type="line"/>
      <point x="134" y="515" type="line"/>
      <point x="134" y="5" type="line"/>
      <point x="114" y="25" type="line"/>
    </contour>
    <contour>
      <point x="262" y="684" type="curve" smooth="yes"/>
      <point x="296" y="709"/>
      <point x="333" y="734"/>
      <point x="363" y="757" type="curve" smooth="yes"/>
      <point x="371" y="763"/>
      <point x="384" y="762"/>
      <point x="391" y="753" type="curve" smooth="yes"/>
      <point x="397" y="745"/>
      <point x="396" y="732"/>
      <point x="387" y="725" type="curve" smooth="yes"/>
      <point x="357" y="702"/>
      <point x="320" y="677"/>
      <point x="286" y="652" type="curve" smooth="yes"/>
      <point x="277" y="645"/>
      <point x="264" y="647"/>
      <point x="258" y="656" type="curve" smooth="yes"/>
      <point x="251" y="665"/>
      <point x="253" y="678"/>
    </contour>
    <contour>
      <point x="178" y="757" type="curve" smooth="yes"/>
      <point x="207" y="734"/>
      <point x="243" y="709"/>
      <point x="278" y="684" type="curve" smooth="yes"/>
      <point x="286" y="678"/>
      <point x="289" y="665"/>
      <point x="282" y="656" type="curve" smooth="yes"/>
      <point x="276" y="648"/>
      <point x="263" y="645"/>
      <point x="254" y="652" type="curve" smooth="yes"/>
      <point x="219" y="677"/>
      <point x="183" y="702"/>
      <point x="154" y="725" type="curve" smooth="yes"/>
      <point x="145" y="732"/>
      <point x="144" y="745"/>
      <point x="150" y="753" type="curve" smooth="yes"/>
      <point x="157" y="762"/>
      <point x="170" y="763"/>
    </contour>
  </outline>
</glyph>
<glyph name="dcaron" format="1">
  <advance width="643"/>
  <unicode hex="010F"/>
  <outline>
    <contour>
      <point x="317" y="-10"/>
      <point x="381" y="46"/>
      <point x="426" y="122" type="curve" smooth="yes"/>
      <point x="432" y="131"/>
      <point x="429" y="144"/>
      <point x="419" y="149" type="curve" smooth="yes"/>
      <point x="410" y="155"/>
      <point x="397" y="152"/>
      <point x="392" y="142" type="curve" smooth="yes"/>
      <point x="355" y="80"/>
      <point x="303" y="30"/>
      <point x="230" y="30" type="curve" smooth="yes"/>
      <point x="151" y="30"/>
      <point x="93" y="90"/>
      <point x="93" y="181" type="curve" smooth="yes"/>
      <point x="93" y="278"/>
      <point x="160" y="349"/>
      <point x="252" y="349" type="curve" smooth="yes"/>
      <point x="310" y="349"/>
      <point x="354" y="327"/>
      <point x="397" y="292" type="curve" smooth="yes"/>
      <point x="406" y="285"/>
      <point x="418" y="286"/>
      <point x="425" y="294" type="curve" smooth="yes"/>
      <point x="432" y="303"/>
      <point x="431" y="315"/>
      <point x="423" y="322" type="curve" smooth="yes"/>
      <point x="372" y="365"/>
      <point x="320" y="389"/>
      <point x="252" y="389" type="curve" smooth="yes"/>
      <point x="138" y="389"/>
      <point x="53" y="302"/>
      <point x="53" y="181" type="curve"/>
      <point x="53" y="64"/>
      <point x="131" y="-10"/>
      <point x="230" y="-10" type="curve" smooth="yes"/>
    </contour>
    <contour>
      <point x="421" y="-10"/>
      <point x="430" y="-1"/>
      <point x="430" y="10" type="curve" smooth="yes"/>
      <point x="430" y="546" type="line" smooth="yes"/>
      <point x="430" y="557"/>
      <point x="421" y="566"/>
      <point x="410" y="566" type="curve" smooth="yes"/>
      <point x="399" y="566"/>
      <point x="390" y="557"/>
      <point x="390" y="546" type="curve" smooth="yes"/>
      <point x="390" y="10" type="line" smooth="yes"/>
      <point x="390" y="-1"/>
      <point x="399" y="-10"/>
      <point x="410" y="-10" type="curve" smooth="yes"/>
    </contour>
    <contour>
      <point x="597" y="408"/>
      <point x="607" y="415"/>
      <point x="609" y="426" type="curve" smooth="yes"/>
      <point x="630" y="571" type="line" smooth="yes"/>
      <point x="631" y="582"/>
      <point x="624" y="592"/>
      <point x="613" y="594" type="curve" smooth="yes"/>
      <point x="602" y="595"/>
      <point x="592" y="588"/>
      <point x="590" y="577" type="curve" smooth="yes"/>
      <point x="569" y="432" type="line" smooth="yes"/>
      <point x="568" y="421"/>
      <point x="575" y="411"/>
      <point x="586" y="409" type="curve" smooth="yes"/>
    </contour>
  </outline>
</glyph>
<glyph name="Dcroat" format="1">
  <advance width="628"/>
  <unicode hex="0110"/>
  <outline>
    <contour>
      <point x="315" y="-9" type="curve" smooth="yes"/>
      <point x="130" y="-9" type="line" smooth="yes"/>
      <point x="119" y="-9"/>
      <point x="110" y="0"/>
      <point x="110" y="11" type="curve" smooth="yes"/>
      <point x="110" y="520" type="line" smooth="yes"/>
      <point x="110" y="531"/>
      <point x="119" y="540"/>
      <point x="130" y="540" type="curve" smooth="yes"/>
      <point x="315" y="540" type="line" smooth="yes"/>
      <point x="451" y="540"/>
      <point x="573" y="428"/>
      <point x="573" y="266" type="curve" smooth="yes"/>
      <point x="573" y="112"/>
      <point x="471" y="-9"/>
    </contour>
    <contour>
      <point x="52" y="290" type="curve" smooth="yes"/>
      <point x="311" y="290" type="line" smooth="yes"/>
      <point x="322" y="290"/>
      <point x="331" y="281"/>
      <point x="331" y="270" type="curve" smooth="yes"/>
      <point x="331" y="259"/>
      <point x="322" y="250"/>
      <point x="311" y="250" type="curve" smooth="yes"/>
      <point x="52" y="250" type="line" smooth="yes"/>
      <point x="41" y="250"/>
      <point x="32" y="259"/>
      <point x="32" y="270" type="curve" smooth="yes"/>
      <point x="32" y="281"/>
      <point x="41" y="290"/>
    </contour>
    <contour>
      <point x="315" y="31" type="line" smooth="yes"/>
      <point x="449" y="31"/>
      <point x="533" y="136"/>
      <point x="533" y="266" type="curve" smooth="yes"/>
      <point x="533" y="402"/>
      <point x="431" y="500"/>
      <point x="315" y="500" type="curve" smooth="yes"/>
      <point x="130" y="500" type="line"/>
      <point x="150" y="520" type="line"/>
      <point x="150" y="11" type="line"/>
      <point x="130" y="31" type="line"/>
    </contour>
  </outline>
</glyph>
<glyph name="Emacron" format="1">
  <advance width="481"/>
  <unicode hex="0112"/>
  <outline>
    <contour>
      <point x="134" y="516" type="curve" smooth="yes"/>
      <point x="134" y="6" type="line" smooth="yes"/>
      <point x="134" y="-5"/>
      <point x="125" y="-14"/>
      <point x="114" y="-14" type="curve" smooth="yes"/>
      <point x="103" y="-14"/>
      <point x="94" y="-5"/>
      <point x="94" y="6" type="curve" smooth="yes"/>
      <point x="94" y="516" type="line" smooth="yes"/>
      <point x="94" y="527"/>
      <point x="103" y="536"/>
      <point x="114" y="536" type="curve" smooth="yes"/>
      <point x="125" y="536"/>
      <point x="134" y="527"/>
    </contour>
    <contour>
      <point x="123" y="26" type="curve" smooth="yes"/>
      <point x="407" y="26" type="line" smooth="yes"/>
      <point x="418" y="26"/>
      <point x="427" y="17"/>
      <point x="427" y="6" type="curve" smooth="yes"/>
      <point x="427" y="-5"/>
      <point x="418" y="-14"/>
      <point x="407" y="-14" type="curve" smooth="yes"/>
      <point x="123" y="-14" type="line" smooth="yes"/>
      <point x="112" y="-14"/>
      <point x="103" y="-5"/>
      <point x="103" y="6" type="curve" smooth="yes"/>
      <point x="103" y="17"/>
      <point x="112" y="26"/>
    </contour>
    <contour>
      <point x="123" y="536" type="curve" smooth="yes"/>
      <point x="405" y="536" type="line" smooth="yes"/>
      <point x="416" y="536"/>
      <point x="425" y="527"/>
      <point x="425" y="516" type="curve" smooth="yes"/>
      <point x="425" y="505"/>
      <point x="416" y="496"/>
      <point x="405" y="496" type="curve" smooth="yes"/>
      <point x="123" y="496" type="line" smooth="yes"/>
      <point x="112" y="496"/>
      <point x="103" y="505"/>
      <point x="103" y="516" type="curve" smooth="yes"/>
      <point x="103" y="527"/>
      <point x="112" y="536"/>
    </contour>
    <contour>
      <point x="123" y="301" type="curve" smooth="yes"/>
      <point x="360" y="301" type="line" smooth="yes"/>
      <point x="371" y="301"/>
      <point x="380" y="292"/>
      <point x="380" y="281" type="curve" smooth="yes"/>
      <point x="380" y="270"/>
      <point x="371" y="261"/>
      <point x="360" y="261" type="curve" smooth="yes"/>
      <point x="123" y="261" type="line" smooth="yes"/>
      <point x="112" y="261"/>
      <point x="103" y="270"/>
      <point x="103" y="281" type="curve" smooth="yes"/>
      <point x="103" y="292"/>
      <point x="112" y="301"/>
    </contour>
    <contour>
      <point x="364" y="681" type="curve" smooth="yes"/>
      <point x="124" y="681" type="line" smooth="yes"/>
      <point x="113" y="681"/>
      <point x="104" y="690"/>
      <point x="104" y="701" type="curve" smooth="yes"/>
      <point x="104" y="712"/>
      <point x="113" y="721"/>
      <point x="124" y="721" type="curve" smooth="yes"/>
      <point x="364" y="721" type="line" smooth="yes"/>
      <point x="375" y="721"/>
      <point x="384" y="712"/>
      <point x="384" y="701" type="curve" smooth="yes"/>
      <point x="384" y="690"/>
      <point x="375" y="681"/>
    </contour>
  </outline>
</glyph>
<glyph name="Edotaccent" format="1">
  <advance width="481"/>
  <unicode hex="0116"/>
  <outline>
    <contour>
      <point x="257" y="752" type="curve" smooth="yes"/>
      <point x="277" y="752"/>
      <point x="296" y="734"/>
      <point x="296" y="703" type="curve" smooth="yes"/>
      <point x="296" y="674"/>
      <point x="278" y="657"/>
      <point x="257" y="657" type="curve" smooth="yes"/>
      <point x="232" y="657"/>
      <point x="215" y="676"/>
      <point x="215" y="703" type="curve" smooth="yes"/>
      <point x="215" y="732"/>
      <point x="233" y="752"/>
    </contour>
    <contour>
      <point x="134" y="515" type="curve" smooth="yes"/>
      <point x="134" y="6" type="line" smooth="yes"/>
      <point x="134" y="-5"/>
      <point x="125" y="-14"/>
      <point x="114" y="-14" type="curve" smooth="yes"/>
      <point x="103" y="-14"/>
      <point x="94" y="-5"/>
      <point x="94" y="6" type="curve" smooth="yes"/>
      <point x="94" y="515" type="line" smooth="yes"/>
      <point x="94" y="526"/>
      <point x="103" y="535"/>
      <point x="114" y="535" type="curve" smooth="yes"/>
      <point x="125" y="535"/>
      <point x="134" y="526"/>
    </contour>
    <contour>
      <point x="123" y="26" type="curve" smooth="yes"/>
      <point x="407" y="26" type="line" smooth="yes"/>
      <point x="418" y="26"/>
      <point x="427" y="17"/>
      <point x="427" y="6" type="curve" smooth="yes"/>
      <point x="427" y="-5"/>
      <point x="418" y="-14"/>
      <point x="407" y="-14" type="curve" smooth="yes"/>
      <point x="123" y="-14" type="line" smooth="yes"/>
      <point x="112" y="-14"/>
      <point x="103" y="-5"/>
      <point x="103" y="6" type="curve" smooth="yes"/>
      <point x="103" y="17"/>
      <point x="112" y="26"/>
    </contour>
    <contour>
      <point x="123" y="535" type="curve" smooth="yes"/>
      <point x="405" y="535" type="line" smooth="yes"/>
      <point x="416" y="535"/>
      <point x="425" y="526"/>
      <point x="425" y="515" type="curve" smooth="yes"/>
      <point x="425" y="504"/>
      <point x="416" y="495"/>
      <point x="405" y="495" type="curve" smooth="yes"/>
      <point x="123" y="495" type="line" smooth="yes"/>
      <point x="112" y="495"/>
      <point x="103" y="504"/>
      <point x="103" y="515" type="curve" smooth="yes"/>
      <point x="103" y="526"/>
      <point x="112" y="535"/>
    </contour>
    <contour>
      <point x="123" y="300" type="curve" smooth="yes"/>
      <point x="360" y="300" type="line" smooth="yes"/>
      <point x="371" y="300"/>
      <point x="380" y="291"/>
      <point x="380" y="280" type="curve" smooth="yes"/>
      <point x="380" y="269"/>
      <point x="371" y="260"/>
      <point x="360" y="260" type="curve" smooth="yes"/>
      <point x="123" y="260" type="line" smooth="yes"/>
      <point x="112" y="260"/>
      <point x="103" y="269"/>
      <point x="103" y="280" type="curve" smooth="yes"/>
      <point x="103" y="291"/>
      <point x="112" y="300"/>
    </contour>
  </outline>
</glyph>
<glyph name="eogonek" format="1">
  <advance width="473"/>
  <unicode hex="0119"/>
  <outline>
    <contour>
      <point x="86" y="218" type="curve" smooth="yes"/>
      <point x="306" y="218" type="line" smooth="yes"/>
      <point x="350" y="218"/>
      <point x="372" y="233"/>
      <point x="372" y="263" type="curve" smooth="yes"/>
      <point x="372" y="307"/>
      <point x="321" y="359"/>
      <point x="249" y="359" type="curve" smooth="yes"/>
      <point x="162" y="359"/>
      <point x="93" y="292"/>
      <point x="93" y="194" type="curve" smooth="yes"/>
      <point x="93" y="92"/>
      <point x="167" y="40"/>
      <point x="270" y="40" type="curve" smooth="yes"/>
      <point x="305" y="40"/>
      <point x="339" y="47"/>
      <point x="364" y="58" type="curve" smooth="yes"/>
      <point x="374" y="62"/>
      <point x="386" y="57"/>
      <point x="391" y="47" type="curve" smooth="yes"/>
      <point x="395" y="37"/>
      <point x="390" y="25"/>
      <point x="380" y="20" type="curve" smooth="yes"/>
      <point x="351" y="9"/>
      <point x="311" y="0"/>
      <point x="270" y="0" type="curve" smooth="yes"/>
      <point x="141" y="0"/>
      <point x="53" y="70"/>
      <point x="53" y="194" type="curve"/>
      <point x="53" y="317"/>
      <point x="140" y="399"/>
      <point x="249" y="399" type="curve" smooth="yes"/>
      <point x="351" y="399"/>
      <point x="412" y="321"/>
      <point x="412" y="263" type="curve" smooth="yes"/>
      <point x="412" y="215"/>
      <point x="388" y="178"/>
      <point x="306" y="178" type="curve" smooth="yes"/>
      <point x="86" y="178" type="line" smooth="yes"/>
      <point x="75" y="178"/>
      <point x="66" y="187"/>
      <point x="66" y="198" type="curve" smooth="yes"/>
      <point x="66" y="209"/>
      <point x="75" y="218"/>
    </contour>
    <contour>
      <point x="392" y="26" type="curve" smooth="yes"/>
      <point x="392" y="-11" type="line" smooth="yes"/>
      <point x="392" y="-16"/>
      <point x="389" y="-23"/>
      <point x="385" y="-27" type="curve" smooth="yes"/>
      <point x="305" y="-91"/>
      <point x="284" y="-117"/>
      <point x="284" y="-142" type="curve" smooth="yes"/>
      <point x="284" y="-173"/>
      <point x="332" y="-185"/>
      <point x="388" y="-185" type="curve" smooth="yes"/>
      <point x="399" y="-185"/>
      <point x="408" y="-194"/>
      <point x="408" y="-205" type="curve" smooth="yes"/>
      <point x="408" y="-216"/>
      <point x="399" y="-225"/>
      <point x="388" y="-225" type="curve" smooth="yes"/>
      <point x="280" y="-225"/>
      <point x="244" y="-185"/>
      <point x="244" y="-142" type="curve" smooth="yes"/>
      <point x="244" y="-111"/>
      <point x="259" y="-77"/>
      <point x="359" y="5" type="curve"/>
      <point x="352" y="-11" type="line"/>
      <point x="352" y="26" type="line" smooth="yes"/>
      <point x="352" y="37"/>
      <point x="361" y="46"/>
      <point x="372" y="46" type="curve" smooth="yes"/>
      <point x="383" y="46"/>
      <point x="392" y="37"/>
    </contour>
  </outline>
</glyph>
<glyph name="hbar" format="1">
  <advance width="492"/>
  <unicode hex="0127"/>
  <outline>
    <contour>
      <point x="239" y="444" type="line" smooth="yes"/>
      <point x="250" y="444"/>
      <point x="259" y="453"/>
      <point x="259" y="464" type="curve" smooth="yes"/>
      <point x="259" y="475"/>
      <point x="250" y="484"/>
      <point x="239" y="484" type="curve" smooth="yes"/>
      <point x="26" y="484" type="line" smooth="yes"/>
      <point x="15" y="484"/>
      <point x="6" y="475"/>
      <point x="6" y="464" type="curve" smooth="yes"/>
      <point x="6" y="453"/>
      <point x="15" y="444"/>
      <point x="26" y="444" type="curve" smooth="yes"/>
    </contour>
    <component base="h"/>
  </outline>
</glyph>
<glyph name="Iogonek" format="1">
  <advance width="239"/>
  <unicode hex="012E"/>
  <outline>
    <contour>
      <point x="139" y="526" type="curve" smooth="yes"/>
      <point x="139" y="16" type="line" smooth="yes"/>
      <point x="139" y="5"/>
      <point x="130" y="-4"/>
      <point x="119" y="-4" type="curve" smooth="yes"/>
      <point x="108" y="-4"/>
      <point x="99" y="5"/>
      <point x="99" y="16" type="curve" smooth="yes"/>
      <point x="99" y="526" type="line" smooth="yes"/>
      <point x="99" y="537"/>
      <point x="108" y="546"/>
      <point x="119" y="546" type="curve" smooth="yes"/>
      <point x="130" y="546"/>
      <point x="139" y="537"/>
    </contour>
    <contour>
      <point x="139" y="16" type="curve" smooth="yes"/>
      <point x="139" y="-20" type="line" smooth="yes"/>
      <point x="139" y="-25"/>
      <point x="136" y="-32"/>
      <point x="132" y="-35" type="curve" smooth="yes"/>
      <point x="52" y="-101"/>
      <point x="31" y="-126"/>
      <point x="31" y="-152" type="curve"/>
      <point x="31" y="-182"/>
      <point x="79" y="-195"/>
      <point x="135" y="-195" type="curve" smooth="yes"/>
      <point x="146" y="-195"/>
      <point x="155" y="-204"/>
      <point x="155" y="-215" type="curve" smooth="yes"/>
      <point x="155" y="-226"/>
      <point x="146" y="-235"/>
      <point x="135" y="-235" type="curve" smooth="yes"/>
      <point x="27" y="-235"/>
      <point x="-9" y="-194"/>
      <point x="-9" y="-152" type="curve" smooth="yes"/>
      <point x="-9" y="-120"/>
      <point x="6" y="-87"/>
      <point x="106" y="-5" type="curve"/>
      <point x="99" y="-20" type="line"/>
      <point x="99" y="16" type="line" smooth="yes"/>
      <point x="99" y="27"/>
      <point x="108" y="36"/>
      <point x="119" y="36" type="curve" smooth="yes"/>
      <point x="130" y="36"/>
      <point x="139" y="27"/>
    </contour>
  </outline>
</glyph>
<glyph name="iogonek" format="1">
  <advance width="187"/>
  <unicode hex="012F"/>
  <outline>
    <contour>
      <point x="140" y="-219"/>
      <point x="149" y="-210"/>
      <point x="149" y="-199" type="curve" smooth="yes"/>
      <point x="149" y="-188"/>
      <point x="140" y="-180"/>
      <point x="129" y="-180" type="curve" smooth="yes"/>
      <point x="70" y="-180"/>
      <point x="25" y="-166"/>
      <point x="25" y="-136" type="curve" smooth="yes"/>
      <point x="25" y="-110"/>
      <point x="41" y="-85"/>
      <point x="106" y="-19" type="curve" smooth="yes"/>
      <point x="110" y="-15"/>
      <point x="113" y="-9"/>
      <point x="113" y="-4" type="curve" smooth="yes"/>
      <point x="113" y="32" type="line" smooth="yes"/>
      <point x="113" y="43"/>
      <point x="104" y="52"/>
      <point x="93" y="52" type="curve" smooth="yes"/>
      <point x="82" y="52"/>
      <point x="73" y="43"/>
      <point x="73" y="32" type="curve" smooth="yes"/>
      <point x="73" y="-4" type="line"/>
      <point x="80" y="11" type="line"/>
      <point x="0" y="-71"/>
      <point x="-15" y="-104"/>
      <point x="-15" y="-136" type="curve" smooth="yes"/>
      <point x="-15" y="-178"/>
      <point x="21" y="-219"/>
      <point x="129" y="-219" type="curve" smooth="yes"/>
    </contour>
    <component base="idotless"/>
    <component base="dotaccentcomb" xOffset="93"/>
    <contour>
      <point x="94" y="27" type="move" name="_ogonek"/>
    </contour>
  </outline>
</glyph>
<glyph name="dotlessi" format="1">
  <advance width="187"/>
  <unicode hex="0131"/>
  <outline>
    <contour>
      <point x="73" y="14" type="curve" smooth="yes"/>
      <point x="73" y="374" type="line" smooth="yes"/>
      <point x="73" y="385"/>
      <point x="82" y="394"/>
      <point x="93" y="394" type="curve" smooth="yes"/>
      <point x="104" y="394"/>
      <point x="113" y="385"/>
      <point x="113" y="374" type="curve" smooth="yes"/>
      <point x="113" y="14" type="line" smooth="yes"/>
      <point x="113" y="3"/>
      <point x="104" y="-6"/>
      <point x="93" y="-6" type="curve" smooth="yes"/>
      <point x="82" y="-6"/>
      <point x="73" y="3"/>
    </contour>
  </outline>
</glyph>
<glyph name="lacute" format="1">
  <advance width="214"/>
  <unicode hex="013A"/>
  <outline>
    <contour>
      <point x="87" y="5" type="curve" smooth="yes"/>
      <point x="87" y="542" type="line" smooth="yes"/>
      <point x="87" y="553"/>
      <point x="96" y="562"/>
      <point x="107" y="562" type="curve" smooth="yes"/>
      <point x="118" y="562"/>
      <point x="127" y="553"/>
      <point x="127" y="542" type="curve" smooth="yes"/>
      <point x="127" y="5" type="line" smooth="yes"/>
      <point x="127" y="-6"/>
      <point x="118" y="-15"/>
      <point x="107" y="-15" type="curve" smooth="yes"/>
      <point x="96" y="-15"/>
      <point x="87" y="-6"/>
    </contour>
    <contour>
      <point x="203" y="747" type="curve" smooth="yes"/>
      <point x="173" y="714"/>
      <point x="145" y="681"/>
      <point x="118" y="648" type="curve" smooth="yes"/>
      <point x="112" y="640"/>
      <point x="99" y="639"/>
      <point x="90" y="646" type="curve" smooth="yes"/>
      <point x="82" y="652"/>
      <point x="81" y="665"/>
      <point x="88" y="674" type="curve" smooth="yes"/>
      <point x="115" y="707"/>
      <point x="143" y="740"/>
      <point x="173" y="773" type="curve" smooth="yes"/>
      <point x="180" y="781"/>
      <point x="193" y="782"/>
      <point x="201" y="775" type="curve" smooth="yes"/>
      <point x="209" y="768"/>
      <point x="210" y="755"/>
    </contour>
  </outline>
</glyph>
<glyph name="uni013C" format="1">
  <advance width="214"/>
  <unicode hex="013C"/>
  <outline>
    <contour>
      <point x="87" y="17" type="curve" smooth="yes"/>
      <point x="87" y="553" type="line" smooth="yes"/>
      <point x="87" y="564"/>
      <point x="96" y="573"/>
      <point x="107" y="573" type="curve" smooth="yes"/>
      <point x="118" y="573"/>
      <point x="127" y="564"/>
      <point x="127" y="553" type="curve" smooth="yes"/>
      <point x="127" y="17" type="line" smooth="yes"/>
      <point x="127" y="6"/>
      <point x="118" y="-3"/>
      <point x="107" y="-3" type="curve" smooth="yes"/>
      <point x="96" y="-3"/>
      <point x="87" y="6"/>
    </contour>
    <contour>
      <point x="124" y="-107" type="curve" smooth="yes"/>
      <point x="131" y="-121"/>
      <point x="135" y="-139"/>
      <point x="135" y="-156" type="curve" smooth="yes"/>
      <point x="135" y="-201"/>
      <point x="102" y="-245"/>
      <point x="42" y="-272" type="curve" smooth="yes"/>
      <point x="33" y="-277"/>
      <point x="20" y="-272"/>
      <point x="16" y="-262" type="curve" smooth="yes"/>
      <point x="11" y="-253"/>
      <point x="16" y="-240"/>
      <point x="26" y="-236" type="curve" smooth="yes"/>
      <point x="66" y="-217"/>
      <point x="95" y="-189"/>
      <point x="95" y="-156" type="curve" smooth="yes"/>
      <point x="95" y="-145"/>
      <point x="93" y="-135"/>
      <point x="88" y="-127" type="curve" smooth="yes"/>
      <point x="83" y="-117"/>
      <point x="87" y="-105"/>
      <point x="96" y="-99" type="curve" smooth="yes"/>
      <point x="106" y="-94"/>
      <point x="118" y="-98"/>
    </contour>
  </outline>
</glyph>
<glyph name="Lcaron" format="1">
  <advance width="452"/>
  <unicode hex="013D"/>
  <outline>
    <contour>
      <point x="309" y="367"/>
      <point x="319" y="374"/>
      <point x="321" y="385" type="curve" smooth="yes"/>
      <point x="342" y="530" type="line" smooth="yes"/>
      <point x="343" y="541"/>
      <point x="336" y="551"/>
      <point x="325" y="553" type="curve" smooth="yes"/>
      <point x="314" y="554"/>
      <point x="304" y="547"/>
      <point x="302" y="536" type="curve" smooth="yes"/>
      <point x="281" y="391" type="line" smooth="yes"/>
      <point x="280" y="380"/>
      <point x="287" y="370"/>
      <point x="298" y="368" type="curve" smooth="yes"/>
    </contour>
    <component base="L"/>
  </outline>
</glyph>
<glyph name="Lslash" format="1">
  <advance width="468"/>
  <unicode hex="0141"/>
  <outline>
    <contour>
      <point x="287" y="332" type="line" smooth="yes"/>
      <point x="296" y="338"/>
      <point x="299" y="351"/>
      <point x="293" y="360" type="curve" smooth="yes"/>
      <point x="287" y="369"/>
      <point x="274" y="372"/>
      <point x="265" y="366" type="curve" smooth="yes"/>
      <point x="39" y="217" type="line" smooth="yes"/>
      <point x="30" y="211"/>
      <point x="27" y="198"/>
      <point x="33" y="189" type="curve" smooth="yes"/>
      <point x="39" y="180"/>
      <point x="52" y="177"/>
      <point x="61" y="183" type="curve" smooth="yes"/>
    </contour>
    <component base="L" xOffset="16"/>
  </outline>
</glyph>
<glyph name="lslash" format="1">
  <advance width="226"/>
  <unicode hex="0142"/>
  <outline>
    <contour>
      <point x="208" y="342" type="line" smooth="yes"/>
      <point x="216" y="348"/>
      <point x="219" y="361"/>
      <point x="212" y="370" type="curve" smooth="yes"/>
      <point x="206" y="378"/>
      <point x="193" y="381"/>
      <point x="184" y="374" type="curve" smooth="yes"/>
      <point x="20" y="256" type="line" smooth="yes"/>
      <point x="12" y="250"/>
      <point x="9" y="237"/>
      <point x="16" y="228" type="curve" smooth="yes"/>
      <point x="22" y="220"/>
      <point x="35" y="217"/>
      <point x="44" y="224" type="curve" smooth="yes"/>
    </contour>
    <component base="l" xOffset="6"/>
  </outline>
</glyph>
<glyph name="nacute" format="1">
  <advance width="492"/>
  <unicode hex="0144"/>
  <outline>
    <contour>
      <point x="81" y="9" type="curve" smooth="yes"/>
      <point x="81" y="368" type="line" smooth="yes"/>
      <point x="81" y="379"/>
      <point x="90" y="388"/>
      <point x="101" y="388" type="curve" smooth="yes"/>
      <point x="112" y="388"/>
      <point x="121" y="379"/>
      <point x="121" y="368" type="curve" smooth="yes"/>
      <point x="121" y="9" type="line" smooth="yes"/>
      <point x="121" y="-2"/>
      <point x="112" y="-11"/>
      <point x="101" y="-11" type="curve" smooth="yes"/>
      <point x="90" y="-11"/>
      <point x="81" y="-2"/>
    </contour>
    <contour>
      <point x="382" y="9" type="curve" smooth="yes"/>
      <point x="382" y="219" type="line" smooth="yes"/>
      <point x="382" y="310"/>
      <point x="342" y="348"/>
      <point x="284" y="348" type="curve" smooth="yes"/>
      <point x="223" y="348"/>
      <point x="165" y="309"/>
      <point x="119" y="262" type="curve" smooth="yes"/>
      <point x="112" y="254"/>
      <point x="99" y="254"/>
      <point x="91" y="262" type="curve" smooth="yes"/>
      <point x="83" y="269"/>
      <point x="83" y="282"/>
      <point x="91" y="290" type="curve" smooth="yes"/>
      <point x="145" y="345"/>
      <point x="213" y="388"/>
      <point x="284" y="388" type="curve" smooth="yes"/>
      <point x="360" y="388"/>
      <point x="422" y="348"/>
      <point x="422" y="219" type="curve" smooth="yes"/>
      <point x="422" y="9" type="line" smooth="yes"/>
      <point x="422" y="-2"/>
      <point x="413" y="-11"/>
      <point x="402" y="-11" type="curve" smooth="yes"/>
      <point x="391" y="-11"/>
      <point x="382" y="-2"/>
    </contour>
    <contour>
      <point x="347" y="597" type="curve" smooth="yes"/>
      <point x="317" y="565"/>
      <point x="289" y="532"/>
      <point x="261" y="500" type="curve" smooth="yes"/>
      <point x="254" y="492"/>
      <point x="241" y="491"/>
      <point x="233" y="498" type="curve" smooth="yes"/>
      <point x="225" y="505"/>
      <point x="224" y="518"/>
      <point x="231" y="526" type="curve" smooth="yes"/>
      <point x="259" y="558"/>
      <point x="287" y="593"/>
      <point x="317" y="625" type="curve" smooth="yes"/>
      <point x="325" y="633"/>
      <point x="338" y="633"/>
      <point x="346" y="626" type="curve" smooth="yes"/>
      <point x="354" y="618"/>
      <point x="354" y="605"/>
    </contour>
  </outline>
</glyph>
<glyph name="ncaron" format="1">
  <advance width="492"/>
  <unicode hex="0148"/>
  <outline>
    <contour>
      <point x="81" y="9" type="curve" smooth="yes"/>
      <point x="81" y="368" type="line" smooth="yes"/>
      <point x="81" y="379"/>
      <point x="90" y="388"/>
      <point x="101" y="388" type="curve" smooth="yes"/>
      <point x="112" y="388"/>
      <point x="121" y="379"/>
      <point x="121" y="368" type="curve" smooth="yes"/>
      <point x="121" y="9" type="line" smooth="yes"/>
      <point x="121" y="-2"/>
      <point x="112" y="-11"/>
      <point x="101" y="-11" type="curve" smooth="yes"/>
      <point x="90" y="-11"/>
      <point x="81" y="-2"/>
    </contour>
    <contour>
      <point x="382" y="9" type="curve" smooth="yes"/>
      <point x="382" y="219" type="line" smooth="yes"/>
      <point x="382" y="310"/>
      <point x="342" y="348"/>
      <point x="284" y="348" type="curve" smooth="yes"/>
      <point x="223" y="348"/>
      <point x="165" y="309"/>
      <point x="119" y="263" type="curve" smooth="yes"/>
      <point x="112" y="255"/>
      <point x="98" y="255"/>
      <point x="91" y="263" type="curve" smooth="yes"/>
      <point x="83" y="270"/>
      <point x="83" y="284"/>
      <point x="91" y="291" type="curve" smooth="yes"/>
      <point x="145" y="345"/>
      <point x="213" y="388"/>
      <point x="284" y="388" type="curve" smooth="yes"/>
      <point x="360" y="388"/>
      <point x="422" y="348"/>
      <point x="422" y="219" type="curve" smooth="yes"/>
      <point x="422" y="9" type="line" smooth="yes"/>
      <point x="422" y="-2"/>
      <point x="413" y="-11"/>
      <point x="402" y="-11" type="curve" smooth="yes"/>
      <point x="391" y="-11"/>
      <point x="382" y="-2"/>
    </contour>
    <contour>
      <point x="155" y="616" type="curve" smooth="yes"/>
      <point x="183" y="589"/>
      <point x="221" y="550"/>
      <point x="246" y="525" type="curve" smooth="yes"/>
      <point x="254" y="518"/>
      <point x="254" y="504"/>
      <point x="246" y="497" type="curve" smooth="yes"/>
      <point x="239" y="489"/>
      <point x="225" y="489"/>
      <point x="218" y="497" type="curve" smooth="yes"/>
      <point x="193" y="522"/>
      <point x="155" y="561"/>
      <point x="127" y="588" type="curve" smooth="yes"/>
      <point x="119" y="595"/>
      <point x="119" y="608"/>
      <point x="127" y="616" type="curve" smooth="yes"/>
      <point x="134" y="624"/>
      <point x="147" y="624"/>
    </contour>
    <contour>
      <point x="224" y="525" type="curve" smooth="yes"/>
      <point x="248" y="549"/>
      <point x="287" y="589"/>
      <point x="314" y="616" type="curve" smooth="yes"/>
      <point x="321" y="624"/>
      <point x="335" y="624"/>
      <point x="342" y="616" type="curve" smooth="yes"/>
      <point x="350" y="609"/>
      <point x="350" y="595"/>
      <point x="342" y="588" type="curve" smooth="yes"/>
      <point x="315" y="561"/>
      <point x="276" y="521"/>
      <point x="252" y="497" type="curve" smooth="yes"/>
      <point x="245" y="489"/>
      <point x="231" y="489"/>
      <point x="224" y="497" type="curve" smooth="yes"/>
      <point x="216" y="504"/>
      <point x="216" y="518"/>
    </contour>
  </outline>
</glyph>
<glyph name="Eng" format="1">
  <advance width="637"/>
  <unicode hex="014A"/>
  <outline>
    <contour>
      <point x="511" y="-134"/>
      <point x="543" y="-82"/>
      <point x="543" y="-7" type="curve" smooth="yes"/>
      <point x="543" y="142" type="line" smooth="yes"/>
      <point x="543" y="153"/>
      <point x="534" y="162"/>
      <point x="523" y="162" type="curve" smooth="yes"/>
      <point x="512" y="162"/>
      <point x="503" y="153"/>
      <point x="503" y="142" type="curve" smooth="yes"/>
      <point x="503" y="-7" type="line" smooth="yes"/>
      <point x="503" y="-70"/>
      <point x="481" y="-103"/>
      <point x="415" y="-129" type="curve" smooth="yes"/>
      <point x="405" y="-133"/>
      <point x="399" y="-145"/>
      <point x="403" y="-155" type="curve" smooth="yes"/>
      <point x="407" y="-165"/>
      <point x="419" y="-171"/>
      <point x="429" y="-167" type="curve" smooth="yes"/>
    </contour>
    <component base="N"/>
  </outline>
</glyph>
<glyph name="Ohungarumlaut" format="1">
  <advance width="642"/>
  <unicode hex="0150"/>
  <outline>
    <contour>
      <point x="323" y="544" type="curve" smooth="yes"/>
      <point x="469" y="544"/>
      <point x="587" y="428"/>
      <point x="587" y="259" type="curve" smooth="yes"/>
      <point x="587" y="99"/>
      <point x="489" y="-24"/>
      <point x="323" y="-24" type="curve" smooth="yes"/>
      <point x="166" y="-24"/>
      <point x="55" y="99"/>
      <point x="55" y="256" type="curve" smooth="yes"/>
      <point x="55" y="428"/>
      <point x="164" y="544"/>
    </contour>
    <contour>
      <point x="323" y="504" type="curve" smooth="yes"/>
      <point x="186" y="504"/>
      <point x="95" y="402"/>
      <point x="95" y="256" type="curve" smooth="yes"/>
      <point x="95" y="123"/>
      <point x="188" y="16"/>
      <point x="323" y="16" type="curve" smooth="yes"/>
      <point x="465" y="16"/>
      <point x="547" y="123"/>
      <point x="547" y="259" type="curve" smooth="yes"/>
      <point x="547" y="402"/>
      <point x="449" y="504"/>
    </contour>
    <contour>
      <point x="275" y="746" type="curve" smooth="yes"/>
      <point x="253" y="711"/>
      <point x="237" y="681"/>
      <point x="226" y="650" type="curve" smooth="yes"/>
      <point x="222" y="640"/>
      <point x="210" y="634"/>
      <point x="200" y="638" type="curve" smooth="yes"/>
      <point x="190" y="642"/>
      <point x="184" y="654"/>
      <point x="188" y="664" type="curve" smooth="yes"/>
      <point x="201" y="697"/>
      <point x="217" y="729"/>
      <point x="241" y="768" type="curve" smooth="yes"/>
      <point x="247" y="777"/>
      <point x="259" y="780"/>
      <point x="269" y="774" type="curve" smooth="yes"/>
      <point x="278" y="768"/>
      <point x="281" y="756"/>
    </contour>
    <contour>
      <point x="490" y="746" type="curve" smooth="yes"/>
      <point x="468" y="711"/>
      <point x="452" y="681"/>
      <point x="441" y="650" type="curve" smooth="yes"/>
      <point x="437" y="640"/>
      <point x="425" y="634"/>
      <point x="415" y="638" type="curve" smooth="yes"/>
      <point x="405" y="642"/>
      <point x="399" y="654"/>
      <point x="403" y="664" type="curve" smooth="yes"/>
      <point x="416" y="697"/>
      <point x="432" y="729"/>
      <point x="456" y="768" type="curve" smooth="yes"/>
      <point x="462" y="777"/>
      <point x="474" y="780"/>
      <point x="484" y="774" type="curve" smooth="yes"/>
      <point x="493" y="768"/>
      <point x="496" y="756"/>
    </contour>
  </outline>
</glyph>
<glyph name="Sacute" format="1">
  <advance width="521"/>
  <unicode hex="015A"/>
  <outline>
    <contour>
      <point x="391" y="471" type="curve" smooth="yes"/>
      <point x="343" y="490"/>
      <point x="310" y="501"/>
      <point x="240" y="501" type="curve" smooth="yes"/>
      <point x="167" y="501"/>
      <point x="117" y="460"/>
      <point x="117" y="412" type="curve" smooth="yes"/>
      <point x="117" y="365"/>
      <point x="146" y="317"/>
      <point x="266" y="293" type="curve" smooth="yes"/>
      <point x="411" y="261"/>
      <point x="453" y="199"/>
      <point x="453" y="124" type="curve" smooth="yes"/>
      <point x="453" y="49"/>
      <point x="400" y="-24"/>
      <point x="261" y="-24" type="curve" smooth="yes"/>
      <point x="195" y="-24"/>
      <point x="131" y="-8"/>
      <point x="74" y="24" type="curve" smooth="yes"/>
      <point x="65" y="29"/>
      <point x="61" y="41"/>
      <point x="67" y="51" type="curve" smooth="yes"/>
      <point x="72" y="60"/>
      <point x="84" y="64"/>
      <point x="94" y="58" type="curve" smooth="yes"/>
      <point x="145" y="30"/>
      <point x="201" y="16"/>
      <point x="261" y="16" type="curve" smooth="yes"/>
      <point x="362" y="16"/>
      <point x="413" y="65"/>
      <point x="413" y="124" type="curve" smooth="yes"/>
      <point x="413" y="185"/>
      <point x="369" y="229"/>
      <point x="258" y="253" type="curve" smooth="yes"/>
      <point x="98" y="285"/>
      <point x="77" y="355"/>
      <point x="77" y="412" type="curve" smooth="yes"/>
      <point x="77" y="476"/>
      <point x="135" y="541"/>
      <point x="240" y="541" type="curve" smooth="yes"/>
      <point x="316" y="541"/>
      <point x="353" y="530"/>
      <point x="405" y="509" type="curve" smooth="yes"/>
      <point x="415" y="505"/>
      <point x="421" y="493"/>
      <point x="417" y="483" type="curve" smooth="yes"/>
      <point x="413" y="473"/>
      <point x="401" y="467"/>
    </contour>
    <contour>
      <point x="392" y="726" type="curve" smooth="yes"/>
      <point x="345" y="697"/>
      <point x="294" y="666"/>
      <point x="265" y="644" type="curve" smooth="yes"/>
      <point x="256" y="637"/>
      <point x="243" y="639"/>
      <point x="237" y="648" type="curve" smooth="yes"/>
      <point x="230" y="657"/>
      <point x="232" y="670"/>
      <point x="241" y="676" type="curve" smooth="yes"/>
      <point x="272" y="698"/>
      <point x="323" y="731"/>
      <point x="372" y="760" type="curve" smooth="yes"/>
      <point x="381" y="766"/>
      <point x="394" y="763"/>
      <point x="399" y="753" type="curve" smooth="yes"/>
      <point x="405" y="744"/>
      <point x="402" y="731"/>
    </contour>
  </outline>
</glyph>
<glyph name="uni015E" format="1">
  <advance width="521"/>
  <unicode hex="015E"/>
  <outline>
    <contour>
      <point x="391" y="482" type="curve" smooth="yes"/>
      <point x="343" y="501"/>
      <point x="310" y="513"/>
      <point x="240" y="513" type="curve" smooth="yes"/>
      <point x="167" y="513"/>
      <point x="117" y="471"/>
      <point x="117" y="424" type="curve" smooth="yes"/>
      <point x="117" y="377"/>
      <point x="146" y="328"/>
      <point x="266" y="305" type="curve" smooth="yes"/>
      <point x="411" y="273"/>
      <point x="453" y="210"/>
      <point x="453" y="136" type="curve" smooth="yes"/>
      <point x="453" y="61"/>
      <point x="400" y="-12"/>
      <point x="261" y="-12" type="curve" smooth="yes"/>
      <point x="194" y="-12"/>
      <point x="131" y="3"/>
      <point x="74" y="36" type="curve" smooth="yes"/>
      <point x="65" y="41"/>
      <point x="61" y="54"/>
      <point x="67" y="63" type="curve" smooth="yes"/>
      <point x="72" y="72"/>
      <point x="85" y="76"/>
      <point x="94" y="70" type="curve" smooth="yes"/>
      <point x="145" y="41"/>
      <point x="202" y="28"/>
      <point x="261" y="28" type="curve" smooth="yes"/>
      <point x="362" y="28"/>
      <point x="413" y="77"/>
      <point x="413" y="136" type="curve" smooth="yes"/>
      <point x="413" y="196"/>
      <point x="369" y="241"/>
      <point x="258" y="265" type="curve" smooth="yes"/>
      <point x="98" y="296"/>
      <point x="77" y="365"/>
      <point x="77" y="424" type="curve" smooth="yes"/>
      <point x="77" y="487"/>
      <point x="135" y="553"/>
      <point x="240" y="553" type="curve" smooth="yes"/>
      <point x="316" y="553"/>
      <point x="353" y="541"/>
      <point x="405" y="520" type="curve" smooth="yes"/>
      <point x="415" y="516"/>
      <point x="421" y="504"/>
      <point x="417" y="494" type="curve" smooth="yes"/>
      <point x="413" y="484"/>
      <point x="401" y="478"/>
    </contour>
    <contour>
      <point x="279" y="-110" type="curve" smooth="yes"/>
      <point x="286" y="-125"/>
      <point x="291" y="-141"/>
      <point x="291" y="-158" type="curve" smooth="yes"/>
      <point x="291" y="-204"/>
      <point x="256" y="-248"/>
      <point x="198" y="-275" type="curve" smooth="yes"/>
      <point x="189" y="-280"/>
      <point x="176" y="-275"/>
      <point x="172" y="-265" type="curve" smooth="yes"/>
      <point x="167" y="-256"/>
      <point x="172" y="-243"/>
      <point x="182" y="-239" type="curve" smooth="yes"/>
      <point x="222" y="-220"/>
      <point x="251" y="-192"/>
      <point x="251" y="-158" type="curve" smooth="yes"/>
      <point x="251" y="-147"/>
      <point x="248" y="-137"/>
      <point x="243" y="-128" type="curve" smooth="yes"/>
      <point x="238" y="-118"/>
      <point x="242" y="-106"/>
      <point x="252" y="-101" type="curve" smooth="yes"/>
      <point x="262" y="-96"/>
      <point x="274" y="-100"/>
    </contour>
  </outline>
</glyph>
<glyph name="Tcaron" format="1">
  <advance width="543"/>
  <unicode hex="0164"/>
  <outline>
    <contour>
      <point x="290" y="515" type="curve" smooth="yes"/>
      <point x="290" y="5" type="line" smooth="yes"/>
      <point x="290" y="-6"/>
      <point x="281" y="-15"/>
      <point x="270" y="-15" type="curve" smooth="yes"/>
      <point x="259" y="-15"/>
      <point x="250" y="-6"/>
      <point x="250" y="5" type="curve" smooth="yes"/>
      <point x="250" y="515" type="line" smooth="yes"/>
      <point x="250" y="526"/>
      <point x="259" y="535"/>
      <point x="270" y="535" type="curve" smooth="yes"/>
      <point x="281" y="535"/>
      <point x="290" y="526"/>
    </contour>
    <contour>
      <point x="47" y="535" type="curve" smooth="yes"/>
      <point x="496" y="535" type="line" smooth="yes"/>
      <point x="507" y="535"/>
      <point x="516" y="526"/>
      <point x="516" y="515" type="curve" smooth="yes"/>
      <point x="516" y="504"/>
      <point x="507" y="495"/>
      <point x="496" y="495" type="curve" smooth="yes"/>
      <point x="47" y="495" type="line" smooth="yes"/>
      <point x="36" y="495"/>
      <point x="27" y="504"/>
      <point x="27" y="515" type="curve" smooth="yes"/>
      <point x="27" y="526"/>
      <point x="36" y="535"/>
    </contour>
    <contour>
      <point x="263" y="684" type="curve" smooth="yes"/>
      <point x="297" y="709"/>
      <point x="334" y="734"/>
      <point x="364" y="757" type="curve" smooth="yes"/>
      <point x="372" y="763"/>
      <point x="385" y="762"/>
      <point x="392" y="753" type="curve" smooth="yes"/>
      <point x="398" y="745"/>
      <point x="397" y="732"/>
      <point x="388" y="725" type="curve" smooth="yes"/>
      <point x="358" y="702"/>
      <point x="321" y="677"/>
      <point x="287" y="652" type="curve" smooth="yes"/>
      <point x="278" y="645"/>
      <point x="265" y="647"/>
      <point x="259" y="656" type="curve" smooth="yes"/>
      <point x="252" y="665"/>
      <point x="254" y="678"/>
    </contour>
    <contour>
      <point x="179" y="757" type="curve" smooth="yes"/>
      <point x="208" y="734"/>
      <point x="244" y="709"/>
      <point x="279" y="684" type="curve" smooth="yes"/>
      <point x="287" y="678"/>
      <point x="290" y="665"/>
      <point x="283" y="656" type="curve" smooth="yes"/>
      <point x="277" y="648"/>
      <point x="264" y="645"/>
      <point x="255" y="652" type="curve" smooth="yes"/>
      <point x="220" y="677"/>
      <point x="184" y="702"/>
      <point x="155" y="725" type="curve" smooth="yes"/>
      <point x="146" y="732"/>
      <point x="145" y="745"/>
      <point x="151" y="753" type="curve" smooth="yes"/>
      <point x="158" y="762"/>
      <point x="171" y="763"/>
    </contour>
  </outline>
</glyph>
<glyph name="tcaron" format="1">
  <advance width="342"/>
  <unicode hex="0165"/>
  <outline>
    <contour>
      <point x="283" y="486"/>
      <point x="294" y="493"/>
      <point x="296" y="504" type="curve" smooth="yes"/>
      <point x="319" y="633" type="line" smooth="yes"/>
      <point x="321" y="643"/>
      <point x="315" y="653"/>
      <point x="304" y="656" type="curve" smooth="yes"/>
      <point x="294" y="659"/>
      <point x="283" y="652"/>
      <point x="281" y="641" type="curve" smooth="yes"/>
      <point x="258" y="512" type="line" smooth="yes"/>
      <point x="256" y="502"/>
      <point x="262" y="492"/>
      <point x="273" y="489" type="curve" smooth="yes"/>
    </contour>
    <component base="t"/>
  </outline>
</glyph>
<glyph name="tbar" format="1">
  <advance width="343"/>
  <unicode hex="0167"/>
  <outline>
    <contour>
      <point x="293" y="235" type="line" smooth="yes"/>
      <point x="304" y="235"/>
      <point x="313" y="244"/>
      <point x="313" y="255" type="curve" smooth="yes"/>
      <point x="313" y="266"/>
      <point x="304" y="275"/>
      <point x="293" y="275" type="curve" smooth="yes"/>
      <point x="39" y="275" type="line" smooth="yes"/>
      <point x="28" y="275"/>
      <point x="19" y="266"/>
      <point x="19" y="255" type="curve" smooth="yes"/>
      <point x="19" y="244"/>
      <point x="28" y="235"/>
      <point x="39" y="235" type="curve" smooth="yes"/>
    </contour>
    <component base="t"/>
  </outline>
</glyph>
